<svg width="354" height="29" viewBox="0 0 354 29" fill="none" xmlns="http://www.w3.org/2000/svg">
<path d="M54.194 0.563477H67L57.806 28.5523H45L54.194 0.563477Z" fill="white"/>
<path d="M31.194 0.563477H44L34.806 28.5523H22L31.194 0.563477Z" fill="white"/>
<path d="M9.19403 0.563477H22L12.806 28.5523H0L9.19403 0.563477Z" fill="white"/>
<path d="M121.776 0.563477H134L125.224 28.5523H113L121.776 0.563477Z" fill="white"/>
<path d="M100.194 0.563477H113L103.806 28.5523H91L100.194 0.563477Z" fill="white"/>
<path d="M78.194 0.563477H91L81.806 28.5523H69L78.194 0.563477Z" fill="white"/>
<path d="M187.194 0.563477H200L190.806 28.5523H178L187.194 0.563477Z" fill="white"/>
<path d="M275.194 0.563477H288L278.806 28.5523H266L275.194 0.563477Z" fill="white"/>
<path d="M165.194 0.563477H178L168.806 28.5523H156L165.194 0.563477Z" fill="white"/>
<path d="M253.194 0.563477H266L256.806 28.5523H244L253.194 0.563477Z" fill="white"/>
<path d="M143.194 0.563477H156L146.806 28.5523H134L143.194 0.563477Z" fill="white"/>
<path d="M231.194 0.563477H244L234.806 28.5523H222L231.194 0.563477Z" fill="white"/>
<path d="M319.194 0.563477H332L322.806 28.5523H310L319.194 0.563477Z" fill="white"/>
<path d="M341.194 0.563477H354L344.806 28.5523H332L341.194 0.563477Z" fill="white"/>
<path d="M209.194 0.563477H222L212.806 28.5523H200L209.194 0.563477Z" fill="white"/>
<path d="M297.194 0.563477H310L300.806 28.5523H288L297.194 0.563477Z" fill="white"/>
</svg>
