<svg width="1019" height="583" fill="none" xmlns="http://www.w3.org/2000/svg"><path d="M640.053 434.92c25.884-13.333 40.727-41.983 35.442-68.279-3.077-15.199-13.136-30.624-27.351-41.844-5.04-3.995-7.615-5.475-11.351-6.644-2.217-.724-2.289-.705-1.882.811.214.795 3.114 3.194 6.595 5.438 11.73 7.472 19.929 16.273 25.043 26.904l2.526 5.053-.533 8.423c-.703 13.577-4.389 24.157-9.615 27.564-4.632 3.017-9.235 1.227-7.812-3.023 1.144-3.555-1.108-5.276-2.842-2.182-1.347 2.217.123 6.236 2.79 7.769 2.023 1.162 2.715 1.132 5.684.03l3.294-1.343-2.209 1.905c-1.204 1.018-4.492 2.67-7.355 3.589-5.001 1.644-5.238 1.63-7.978.117-3.606-2.133-4.208-4.372-2.802-10.707.732-3.059.875-5.418.371-6.135-.726-.967-.963-.981-2.776.663-2.368 2.18-2.96 6.053-1.658 10.891.835 3.105 1.431 3.875 4.36 5.802 1.878 1.201 3.243 2.23 2.953 2.307-1.378.368-8.24-1.438-10.52-2.687-4.231-2.431-5.7-5.289-6.515-12.656-.556-4.959-.945-6.404-1.903-7.076-1.622-1.115-2.763-.733-3.84 1.334-2.4 4.665.205 12.328 6.011 17.434 2.479 2.279 4.517 3.206 8.65 4.115 5.284 1.144 5.448 1.177 13.278-1.222 6.834-2.057 8.333-2.844 11.098-5.284 5.868-5.359 8.749-12.861 11.451-29.99.332-1.946.404-1.965 1.104.635.927 3.157 1.353 9.08 1.074 15.269-.969 18.368-11.928 36.308-29.478 47.958-6.595 4.391-18.493 7.567-25.228 6.811-9.658-1.215-18.313-6.799-22.893-14.863-4.226-7.618-3.384-11.712 3.973-18.474 7.178-6.56 9.271-13.232 5.208-16.482-1.476-1.154-2.7-1.369-5.206-.855-4.813.898-7.801 3.088-10.37 7.412-5.525 9.523-5.168 23.281.758 32.303 9.346 14.222 32.572 18.47 50.454 9.209Zm225.051-69.352c1.59-1.895 1.861-6.38.542-8.969-.528-1.097-1.991-2.487-3.167-3.102-1.912-1.038-2.459-1.047-3.861.102-2.176 1.741-2.535 5.32-.768 6.397 1.176.615 1.539.518 2.791-.9 1.808-1.953 2.505-1.675 3.321 1.358.796 2.961-.697 5.218-4.035 6.109-3.337.89-6.716-.685-11.918-5.566-5.995-5.521-8.849-9.481-14.7-20.536-6.094-11.377-11.269-19.052-16.665-24.656l-3.763-3.872 5.314 1.832c10.669 3.81 17.34 2.88 24.287-3.386 2.765-2.441 3.741-4.017 4.387-6.821 2.36-10.306-6.944-19.743-15.18-15.377-5.455 2.849-6.899 10.201-2.282 11.755 2.73.897 6.049-.066 7.072-2.042.532-.916.554-2.857.146-4.374-.641-2.383-.501-2.73.936-2.881 2.491-.278 6.158 3.232 7.129 6.843 2.234 8.306-5.814 16.259-16.15 15.999-5.56-.141-7.138-.804-35.366-15.252-20.032-10.289-26.353-12.394-57.221-19.017-26.404-5.646-31.858-5.971-55.951-3.023l-3.692.443 7.534-4.952c9.768-6.477 21.873-16.985 32.149-27.932 29.378-31.295 50.541-47.162 70.49-52.796 13.873-3.935 21.351 8.543 9.465 15.818-2.273 1.381-3.757 1.932-4.764 1.659-.842-.239-2.734-.044-4.113.324-2.104.562-2.534.986-2.223 2.141.68 2.528 3.23 2.467 8.922-.368 5.673-2.908 7.993-4.688 9.635-7.836 2.473-4.685 1.642-8.643-2.77-12.032l-2.382-1.919 6.987.535c3.813.298 9.805 1.176 13.207 1.97 11.47 2.744 15.3 5.128 18.635 11.746 4.465 8.793.743 17.217-8.743 19.827-3.754 1.079-4.392 1.017-6.823-.501-3.389-2.192-5.997-2.347-7.06-.515-2.125 3.663 3.925 5.918 12.358 4.597 8.979-1.314 14.756-6.726 15.16-14.187.233-3.468-1.965-9.616-4.396-12.295-.911-1.073-1.381-1.953-1.164-2.012.726-.193 14.877 8.182 23.869 14.142 9.746 6.455 10.696 7.672 11.361 14.77 1.276 13.128.895 14.313-9.275 25.078-2.059 2.175-2.222 4.463-.378 4.668 5.038.513 11.561-8.195 12.351-16.533.23-2.616.065-8.145-.423-12.272-.488-4.127-.801-7.604-.748-7.696.053-.091 2.482.267 5.352.817 4.186.817 6.519.814 11.076-.17 6.7-1.401 9.93-3.27 18.279-10.685 10.36-9.189 13.3-10.98 20.972-13.106 6.095-1.626 7.387-1.739 11.026-.93 5.943 1.277 12.025 5.382 17.542 11.727 3.938 4.522 5.043 6.317 6.596 10.934 1.573 4.689 1.666 5.903.976 8.254-.936 2.882-4.043 6.652-5.93 7.156-.58.155-.247-.631.865-1.701 2.165-2.359 2.545-4.705.821-6.489-2.301-2.482-7.699-.577-8.513 3.046-.492 2.221 1.414 6.124 3.583 7.248 2.425 1.211 6.469.054 8.378-2.391 4.175-5.294 4.237-11.425.072-19.68-7.611-14.997-21.114-22.694-34.988-19.92-7.3 1.484-11.362 3.73-20.253 11.444-7.508 6.493-11.163 9.094-11.435 8.083-.078-.288.888-2.481 2.085-4.968 2.932-5.582 2.7-9.623-.72-13.664-2.974-3.54-4.189-4.3-8.241-5.773-7.696-2.59-15.049 3.321-13.16 10.634.855 3.178 2.337 4.64 5.318 5.315 3.383.723 5.231.075 6.719-2.49 1.009-1.74 1.086-2.612.32-3.723-1.231-1.684-3.916-2.129-5.135-.875-.589.7-.221.911 1.458 1.082 2.482.266 2.774 1.35.932 3.467-1.073 1.215-1.527 1.259-3.565.332-5.156-2.107-4.346-10.373 1.096-11.826 2.467-.658 7.331.366 9.49 2.034 2.121 1.524 4.713 5.089 5.296 7.256 1.379 5.127-5.667 13.046-14.021 15.817-7.7 2.598-11.582 1.466-23.454-6.821-21.717-15.102-40.503-22.782-58.174-23.716-6-.334-16.011.326-20.239 1.377-2.922.702-2.922.702 1.087-1.451 5.925-3.13 26.937-9.435 36.352-10.864 17.174-2.649 34.709-3.382 61.927-2.519 25.65.816 30.401.554 39.22-1.645 4.353-1.162 10.245-2.967 12.905-4.064 6.68-2.634 10.043-1.984 16.435 3.276 6.169 5.01 8.353 5.898 12.271 4.853 4.281-1.143 7.04-5.053 5.943-8.553-.772-2.581-2.951-4.321-4.063-3.25-.358.405-.332 1.946.057 3.39.874 3.25-.076 6.368-2.108 6.91-3.338.891-7.946-1.207-14.029-6.473-2.256-2.029-4.386-3.009-7.237-3.486-2.284-.397-4.06-.929-4.046-1.165.087-.255 3.295-4.518 7.186-9.426 10.882-13.897 14.228-21.988 14.08-34.101-.067-9.503-4.782-15.753-10.731-14.165-4.862 1.298-8.774 8.148-6.159 10.933 1.967 2.106 4.338 2.248 6 .333 1.861-2.045 1.414-3.706-1.141-3.953-2.482-.266-2.788-1.113-1.072-3.119 3.127-3.699 8.562-2.285 9.883 2.625.855 3.178.852 10.687-.028 15.798-1.395 8.113-7.591 20.062-14.334 27.667-2.861 3.241-14.789 12.384-15.524 11.962-.184-.106 1.13-2.16 2.966-4.585 5.117-6.707 8.218-17.442 7.513-25.846-.25-2.952-.322-2.933-1.615 5.85-1.543 10.164-7.781 19.647-15.514 23.569-5.619 2.816-15.784 4.058-30.494 3.727-49.906-1.076-64.445.095-89.502 7.558-19.019 5.618-28.653 10.28-43.401 20.795-9.776 7.022-15.355 12.304-27.873 26.482-9.869 11.303-18.328 19.754-20.142 20.238-.363.097 1.013-2.593 3.124-6.02 4.788-7.935 8.427-16.956 16.739-41.855 9.442-28.218 14.72-38.374 23.543-45.76 7.673-6.46 14.866-7.761 18.292-3.412 2.16 2.829 2.164 6.312.011 11.608-2.046 5.113-1.851 6.996.858 6.66 2.347-.239 5.298-5.749 5.337-9.939-.033-4.171-1.463-6.886-5.1-9.708-2.455-1.899-2.755-2.438-1.851-2.834 1.427-.768 7.317.601 10.57 2.287 3.713 1.951 6.799 5.616 8.419 9.906 1.354 3.586 1.339 3.822-.728 7.702-2.207 4.227-2.273 5.716-.433 6.773 3.127 1.797 7.037-3.04 6.64-8.275-.441-5.687-4.711-12.598-10.357-16.819-8.653-6.437-23.21-4.177-34.949 5.381-7.01 5.742-10.893 13.28-22.988 44.064-14.469 36.992-22.979 53.351-28.711 54.881-1.016.271-1.984.142-2.081-.219-.311-1.155.913-6.436 4.255-18.01 15.845-55.006 36.363-92.064 66.098-119.429 6.531-6.078 14.247-12.086 19.91-15.61 13.003-8.037 35.986-8.753 44.509-1.353 3.012 2.525 4.716 8.572 3.889 13.592-.962 5.675.058 4.551 1.199-1.327.943-4.586.903-5.891-.319-9.28-1.834-5.084-5.771-8.445-11.923-10.21-6.481-1.83-11.382-1.838-19.843-.044l-7.373 1.504 3.603-2.51c3.08-2.138 5.561-3.032 17.732-6.358 12.461-3.404 14.913-3.826 20.671-3.815 19.205-.017 32.348 6.924 37.853 20.162 1.101 2.647 1.369 4.511 1.139 7.126-.695 6.378-5.631 10.869-9.315 8.447-2.91-1.855-2.681-5.631.293-6.426 1.161-.309 1.292-.112.8.948-.633 1.407.244 2.644 1.768 2.237 1.306-.348 1.449-2.709.122-3.593-1.346-.956-4.775-.118-5.626 1.347-.85 1.465.272 5.346 1.86 6.625.683.514 2.512.955 3.969.876 10.997-.459 12.434-15.936 2.566-27.467-12.227-14.23-42.76-16.143-68.911-4.364-16.71 7.557-27.329 14.339-41.32 26.51-27.512 24.063-47.777 57.725-64.001 106.408-2.465 7.315-6.508 19.463-9.026 26.869l-4.458 13.497-7.131 6.161c-17.152 14.873-33.166 21.547-56.307 23.699-1.819.176-2.361.475-2.167 1.197.525 1.95 2.862 2.255 12.616 1.51 7.862-.551 13.493-1.59 29.157-5.229 19.694-4.56 34.013-6.834 41.668-6.71 9.697.199 22.94 4.327 28.024 8.775 3.884 3.453 5.588 8.339 4.076 11.684-.825 1.846-1.565 2.275-6.281 3.534-5.152 1.375-5.278 1.486-5.01 3.35.594 3.944 7.785 4.656 11.59 1.164 6.139-5.509 4.92-15.246-2.474-20.471-5.955-4.216-6.27-4.519-3.172-3.411 5.077 1.818 14.645 8.476 18.433 12.728 2.916 3.324 3.929 5.066 4.881 8.605 1.379 5.128.956 8.182-1.87 12.42-2.667 3.962-5.743 5.248-13.731 5.909-10.156.699-14.083 2.289-13.287 5.25.486 1.805 3.861 4.233 6.75 4.855 3.054.655 11.418-1.5 15.548-4.073 6.871-4.233 10.846-11.719 9.89-18.74-.634-5.249.203-5.318 2.221-.128 3.561 9.189 3.182 22.527-.804 28.235-2.918 4.185-7.744 7.64-15.27 10.887-6.819 2.982-10.837 5.68-11.532 7.723-1.202 3.339 3.515 7.576 7.971 7.083 1.437-.151 4.446-1.109 6.598-2.071 6.345-3.009 10.522-7.143 14.859-14.725 6.077-10.369 6.989-17.966 3.842-29.665-2.967-10.741-8.521-19.244-17.799-27.14l-4.731-4 4.713.754c19.217 2.921 49.927 16.474 62.334 27.328 7.25 6.424 11.237 11.707 21.221 28.006 11.689 19.173 19.391 27.567 25.929 28.453 3.542.448 7.896-.714 9.486-2.609ZM467.57 455.175c10.64-6.4 17.877-20.249 17.776-33.919-.138-12.654-4.047-23.141-12.275-32.63-5.201-6.04-15.557-15.348-21.341-19.221-2.173-1.432-3.635-2.821-3.331-3.135.285-.385 2.065-.706 3.922-.737 7.009-.246 30.399-7.805 29.894-9.682-.194-.722-.049-.761-11.036 2.327-14.541 4.036-25.947 3.83-39.191-.605-7.674-2.517-18.781-8.838-24.567-13.872-2.846-2.49-4.003-3.032-5.599-2.607-1.741.465-1.9.74-1.298 2.978.816 3.033 5.685 6.685 20.496 15.5 5.464 3.262 11.727 7.471 13.964 9.428 12.181 10.6 19.482 22.426 17.446 28.154-.907 2.409-5.199 6.108-8.173 6.902-5.222 1.394-12.781-1.85-14.933-6.383-1.944-4.047.096-10.628 3.269-10.391.547.009 1.298 1.356 1.783 3.161.738 2.743 1.184 3.244 3.196 3.79 2.086.526 2.429.357 4.618-1.62 3.354-3.139 2.747-5.686-1.943-8.38-3.126-1.797-4.113-1.998-6.652-1.32-6.383 1.704-9.102 6.918-7.296 13.632 1.476 5.488 4.744 8.098 11.667 9.268 4.988.912 10.699-.689 13.545-3.693 4.905-5.179 3.89-13.575-2.828-23.234-6.215-8.943-6.758-9.804-6.313-10.465.193-.438 3.498 1.156 7.307 3.467 16.596 9.963 27.484 23.849 25.945 33.159-.5 2.765-2.722 6.066-4.463 6.531-.217.058-2.163-.816-4.423-1.992-4.612-2.406-6.59-1.955-6.118 1.246.409 2.677 4.441 5.237 7.88 5.016 2.82-.211 7.426-3.607 8.962-6.571.492-1.06.867-3.714.811-5.943l-.159-4.059 1.901 4.755c4.51 11.564 2.77 23.017-4.143 26.797-3.916 2.206-8.139 1.244-16.106-3.516-8.059-4.814-10.415-5.191-10.958-1.718-.514 3 1.2 5.328 5.982 8.076 6.253 3.593 11.255 4.27 17.106 2.321 3.569-1.185 5.174-2.155 7.015-4.271 4.682-5.429 4.804-3.527.309 4.328-4.655 8.13-8.478 11.549-14.769 13.306-4.498 1.2-5.518 1.163-13.946-.688-11.994-2.68-15.331-1.789-13.894 3.553 1.185 4.405 7.645 7.323 16.333 7.248 5.137.022 9.523-1.303 14.628-4.291Zm247.313-77.561c6.461-3.738 8.381-5.566 5.043-4.675-3.048.813-6.47-.054-14.643-3.834-4.076-1.854-8.714-3.48-10.209-3.546-2.846-.169-7.321 1.413-10.454 3.643-1.765 1.245-1.746 1.317-.051 2.413 2.063 1.308 12.669 4.593 15.955 4.954 2.957.295 2.426 1.211-.85 1.466-2.274.22-9.245-1.403-15.896-3.576-2.473-.811-2.473-.811-1.306.348 2.412 2.608 11.97 7.489 15.368 7.976 4.694.682 9.663-.799 17.043-5.169ZM560.44 413.167c10.465-5.038 13.383-19.051 5.851-28.263-2.921-3.632-4.655-4.873-8.647-6.129-12.4-3.888-25.134 6.012-24.318 18.874.418 6.468 4.57 12.944 9.973 15.682 4.995 2.381 11.991 2.372 17.141-.164Zm-12.54-4.702c-5.803-1.624-9.695-8.867-8.105-15.096 3.148-12.295 20.822-12.214 24.104-.01 2.622 9.749-5.933 17.837-15.999 15.106Z" fill="#073137"/><path d="M558.906 403.129c4.843-4.544 2.056-14.326-4.399-15.776-7.424-1.579-13.572 4.474-11.649 11.623 1.923 7.149 10.615 9.395 16.048 4.153Zm-8.758-5.093c-.813-.712-.915-1.381-.476-2.349.878-1.938 2.368-2.181 3.797-.627 2.373 2.462-.822 5.328-3.321 2.976Zm52.557-23.92c10.064-3.925 19.611-12.664 24.532-22.414 4.761-9.475 6.276-23.501 3.576-33.539-1.515-5.632-5.984-13.573-10.59-18.844-17.181-19.64-47.726-21.316-66.998-3.634-7.986 7.317-12.656 15.684-14.702 26.292-1.473 7.823-1.265 12.644.891 20.659 2.157 8.016 4.396 12.294 9.598 18.336 13.432 15.532 34.653 20.703 53.693 13.144Zm-16.702-10.634c-14.045.111-25.94-7.395-31.468-19.851-8.932-19.906 4.882-43.717 26.618-45.881 7.039-.717 13.034.469 19.376 3.807 10.862 5.691 17.472 16.388 17.528 28.447.069 6.328-1.045 10.573-4.227 16.376-5.675 10.415-16.496 17.019-27.827 17.102Z" fill="#073137"/><path d="M598.516 355.653c7.959-4.524 12.926-11.499 14.543-20.522.866-4.875.826-6.18-.728-11.957-1.554-5.777-2.174-6.927-5.371-10.718-12.822-14.998-35.628-13.632-45.994 2.757-13.492 21.248 4.9 47.994 29.652 43.167 2.525-.441 6.003-1.679 7.898-2.727Zm-15.381-10.058c-8.71-1.158-14.852-8.961-13.423-17.237 2.101-12.712 17.69-17.492 26.481-8.229 3.71 3.963 4.984 10.434 3.174 15.561-2.548 6.717-9.293 10.839-16.232 9.905Zm215.876-27.835c1.479-2.02 3.5-8.675 2.484-8.404-.217.058-1.43 1.62-2.73 3.438-1.228 1.799-2.949 3.497-3.747 3.71-1.234.329-1.113-.09.622-2.024 1.842-2.117 3.745-6.032 3.453-7.115-.039-.145-1.805-.06-3.842.174l-3.764.463-4.136 6.6c-2.29 3.631-4.644 6.736-5.297 6.911-.871.232-.885.468-.149.891.552.317 4.244-.126 8.221-.956 6.7-1.401 7.407-1.667 8.885-3.688Zm-301.176 68.582c5.806-4.723 6.494-13.73 1.5-19.285-2.562-2.877-4.639-3.948-8.51-4.462-9.914-1.301-17.26 7.238-14.599 17.131 2.448 9.099 14.058 12.656 21.609 6.616Zm-11.219.208c-3.547-.756-7.359-4.227-8.213-7.405-1.243-4.621 1.175-10.375 5.416-12.823 2.093-1.178 3.346-1.435 6.138-1.174 10.074 1.026 13.7 13.061 5.844 19.415-2.75 2.205-5.474 2.777-9.185 1.987Z" fill="#073137"/><path d="M492.667 377.815c1.594-2.748-1.564-6.394-4.757-5.542-2.104.562-2.988 2.191-2.366 4.502.272 1.011.965 2.141 1.609 2.511.644.37 1.974.402 2.99.131 1.016-.271 2.152-.961 2.524-1.602Zm45.383-10.038c3.751-3.401 3.876-9.007.138-12.498-5.313-5.006-14.351-.736-14.136 6.714.181 6.453 9.096 10.111 13.998 5.784Zm-8.618-1.105c-3.423-2.028-4.292-4.969-2.452-8.247 2.923-5.037 10.099-4.088 11.594 1.472.505 1.878.328 3.241-.721 4.836-2.024 3.172-5.018 3.894-8.421 1.939Z" fill="#073137"/><path d="M533.904 361.609c.294-.93-1.947-2.035-2.425-1.21-.232.294-.275 1.002-.12 1.579.292 1.084 2.237.797 2.545-.369Zm269.656-65.18c4.468-1.89 7.214-4.403 8.382-7.578.907-2.409 2.717-16.205 2.329-17.649-.098-.361-.813.449-1.682 1.842-.831 1.538-3.291 3.665-6.159 5.437-5.338 3.282-7.537 5.804-8.312 9.571-.954 3.97-.849 6.96.166 6.689 1.306-.349 7.755-5.862 8.856-7.549.479-.825 1.107-1.379 1.383-1.221.92.529-2.8 5.778-5.909 8.388-1.779 1.481-3.103 2.918-3.006 3.279.078.289.209.486.281.467.126-.111 1.789-.865 3.671-1.676Zm-97.939 15.433c-4.07-1.545-6.966-4.797-10.975-12.472-5.739-10.929-10.46-14.313-20.615-14.775-2.753-.117-5.105-.186-5.322-.128-1.742.465 8.219 14.369 12.834 17.936l3.34 2.591-2.395-.522c-4.554-1.029-9.88-5.799-14.982-13.492-3.978-5.827-4.389-5.33-1.842 2.117 5.478 16.029 9.807 18.821 30.94 19.913 6.073.314 11.322.461 11.685.364.435-.116-.761-.803-2.668-1.532Zm75.205-27.923c5.367-6.926 4.951-11.071-2.175-22.247-3.72-5.739-3.831-5.864-3.567-3.148.098 1.521-.422 4.213-1.194 5.967-.772 1.754-2.143 4.751-3.021 6.687-.806 1.918-1.529 4.432-1.528 5.593.089 2.065 2.934 7.729 4.497 8.627 1.287.74 2.75-2.205 4.248-8.485 1.035-4.533 1.354-5.082 1.82-3.349.563 2.093-.211 7.02-1.778 11.308-.487 1.368-.723 2.514-.539 2.62.184.106 1.614-1.514 3.237-3.573ZM925.225 246.9c-.116-.433-.412-.664-.774-.567-1.596.426-5.374-4.37-7.891-9.966-3.839-8.494-5.031-10.034-9.46-12.334-4.152-2.142-9.04-3.546-9.518-2.722-.478.824 4.867 10 7.613 12.982l2.654 2.929-3.205-2.086c-3.112-2.032-5.268-4.553-8.902-10.548l-1.817-2.997 1.336 5.834c1.691 7.443 3.949 10.632 9.495 13.331 4.85 2.42 20.741 7.155 20.469 6.144ZM531.107 349.483c5.169-2.463 4.923-1.933 3.408-7.565-1.457-5.415-1.939-13.567-1.096-17.661.544-2.313.452-2.365-1.08-1.415-15.805 9.172-32.157 11.679-47.603 7.444-15.096-4.096-27.146-13.339-35.427-27.07-4.404-7.414-7.783-19.978-7.657-28.756.036-7.671 2.083-17.117 5.158-23.896 2.596-5.956 8.504-14.343 12.008-17.213 1.349-1.056 2.369-2.18 2.31-2.396-.077-.289-1.452-.774-3.024-1.128-4.152-.981-10.928-5.363-14.033-9.1l-2.639-3.165-4.359 5.187c-11.431 13.576-18.282 32.043-18.695 49.875-.798 39.526 27.061 73.724 66.116 81.33 12.134 2.333 21.31 2.05 34.301-1.107 5.842-1.405 11.355-2.877 12.312-3.364Zm119.434-36.757c5.282-5.512 1.446-14.859-6.325-15.416-4.122-.293-6.559 1.054-8.844 4.992-1.434 2.472-1.598 3.6-.957 5.983 1.574 5.849 6.1 8.511 11.759 7 1.524-.407 3.472-1.546 4.367-2.559Zm-10.606-.11c-4.783-2.748-4.505-10.098.375-12.483 6.272-2.99 12.514 3.16 9.54 9.45-1.723 3.71-6.255 5.075-9.915 3.033Z" fill="#073137"/><path d="M645.173 306.652c.043-.708-.422-1.281-1.153-1.395-1.515-.138-2.616 1.549-1.672 2.458 1.037.962 2.647.3 2.825-1.063ZM418.09 373.305c1.629-1.751 4.575-7.569 4.303-8.581-.078-.289-1.606.971-3.38 2.761-1.919 1.828-4.352 3.484-5.803 3.871l-2.467.659 2.857-2.389c3.631-2.982 6.807-7.081 6.066-7.812-.315-.303-2.488-.575-4.84-.644l-4.283-.018-5.801 6.194c-3.258 3.502-6.725 6.517-7.741 6.789l-1.867.575 2.086.527c3.277.906 14.18 1.248 16.72.57 1.306-.349 3.183-1.469 4.15-2.502Zm-29.011-8.952c7.581-5.351 10.546-15.43 6.929-23.675-2.066-4.789-7.223-9.217-12.368-10.708-10.927-3.043-21.179 2.789-24.274 13.832-.891 3.334-.832 4.711.411 9.333 1.03 3.827 2.086 6.022 3.515 7.575 2.838 3.035 7.273 5.644 11.149 6.467 4.133.909 11.306-.464 14.638-2.824Zm-15.741-2.145c-5.261-1.923-8.642-5.82-9.566-10.991-1.226-6.87 1.965-13.218 8.271-16.371 4.86-2.458 13.343-.698 17.387 3.64 2.32 2.554 4.107 9.198 3.414 12.402-2.091 8.994-11.22 14.372-19.506 11.32Z" fill="#073137"/><path d="M384.917 352.927c4.449-6.296-1.737-14.552-9.428-12.499-3.41.91-6.259 5.928-5.307 9.466.932 3.466 2.957 5.79 5.681 6.378 3.62.737 7.097-.501 9.054-3.345Zm347.86-83.917c3.123-2.846 4.23-8.559 2.509-12.356-2.609-5.651-9.849-8.285-15.435-5.633-3.453 1.618-6.327 6.256-6.338 9.973-.053 9.922 11.874 14.942 19.264 8.016Zm-9.666.491c-8.918-1.645-9.163-14.118-.384-16.461 2.83-.755 3.798-.627 6.465.906 2.391 1.374 3.283 2.374 3.826 4.396.972 3.611.08 6.945-2.381 9.072-2.639 2.33-4.09 2.717-7.526 2.087Z" fill="#073137"/><path d="M727.006 262.579c1.593-2.747-1.714-5.502-4.01-3.342-1.865 1.737.18 5.293 2.574 4.654.435-.116 1.064-.671 1.436-1.312Zm-296.385 87.569c2.05-1.63 2.946-4.656 2.946-10.151.03-3.646-.777-7.223-1.298-5.691-.154.583-2.754 3.058-5.81 5.576-4.51 3.758-5.457 4.862-5.354 6.692.002 1.16.047 2.774.023 3.554-.041 1.868 1.371 1.337 5.069-1.972 1.687-1.534 3.214-2.793 3.359-2.832.871-.232-1.955 4.005-3.821 5.741l-2.19 1.978 2.54-.678c1.378-.368 3.438-1.382 4.536-2.217Zm347.082-109.384c-2.783-.805-7.563-5.567-12.19-12.072-1.551-2.295-3.905-4.686-5.193-5.426-2.575-1.48-8.832-1.899-12.968-.795l-2.757.735 4.03 4.575c2.209 2.429 5.541 5.565 7.386 6.93 3.578 2.606 3.656 2.894.109 2.138-2.817-.641-6.119-3.088-10.721-8.052l-3.487-3.713 1.872 5.228c1.015 2.903 2.823 6.445 3.995 7.912 2.437 2.988 6.992 5.178 10.912 5.293 4.374.07 17.567-.897 19.672-1.459l1.886-.503-2.546-.791Zm-158.702 39.623c14.115-13.131 21.262-34.538 16.926-50.947-2.219-8.538-6.62-13.631-13.984-16.154-8.225-2.834-15.711 3.73-10.574 9.246 2.15 2.211 6.152-.25 5.356-3.21-.252-.938-.93-1.145-2.163-.815-2.103.561-2.102 1.721-.017 2.248 1.335.34 1.355.412-.076.872-2.394.639-4.234-1.578-3.313-4.223 1.249-3.738 7.435-4.151 12.681-.832 4.932 3.017 6.317 5.278 8.415 13.076 2.257 8.683 2.49 13.883 1.007 21.088-1.598 7.933-4.842 14.37-12.044 23.721-3.565 4.666-6.541 8.633-6.666 8.744-.106.183-.029.472.155.577.203.178 2.2-1.36 4.297-3.391Zm-313.906 84.989c2.968-3.425 3.725-6.105 3.39-11.978-.389-6.942-2.449-14.6-7.475-27.506-5.371-13.898-5.78-16.576-4.013-25.333 1.869-9.248 5.743-16.245 11.271-20.276 5.6-4.05 18.13-7.783 36.14-10.81 15.319-2.618 27.163-6.012 33.426-9.62 2.003-1.232 3.792-2.097 3.904-1.971.184.105-.435 1.277-1.396 2.618-.889 1.321-1.653 2.532-1.614 2.676.039.145 2.037-.234 4.398-.709 4.123-.869 4.519-1.129 7.41-4.843 1.677-2.152 4.848-5.399 7.097-7.161 3.704-3.002 3.989-3.387 3.107-4.933-1.561-2.913-2.326-2.863-6.935.535-5.508 4.103-11.714 6.767-22.963 9.77-16.256 4.34-23.027 3.747-35.21-3.377-4.141-2.379-8.567-5.533-9.812-6.982-3.081-3.358-6.969-10.296-7.006-12.454-.034-.998 1.565-3.438 3.91-6 4.225-4.535 5.147-7.181 3.605-10.022-1.202-2.156-4.179-2.523-8.456-1.072-2.699.953-3.222 1.325-2.891 2.553.33 1.228.896 1.309 4.017.476 3.121-.833 3.687-.752 4.254.49.854 2.018-.576 4.8-4.236 8.255-2.495 2.292-3.06 3.372-2.777 5 .326 2.081-.023 1.942-7.959-2.985-4.567-2.808-10.246-5.705-12.536-6.41-5.02-1.602-14.418-1.262-18.961.648-5.137 2.301-6.874 7.41-3.609 10.875 2.19 2.358 9.904 2.699 12.84.599 1.494-1.096.46-4.072-1.606-4.527-2.087-.527-3.673.516-3.265 2.033.427 1.589-1.32 1.746-3.639.352-2.799-1.731-3.009-3.378-.77-5.757 2.436-2.509 5.755-3.472 11.461-3.369 10.028.265 17.388 4.495 30.327 17.611 5.208 5.191 10.923 10.247 13.63 11.925l4.751 2.913-6.84-1.426c-3.785-.771-11.051-2.625-16.25-4.025-12.944-3.59-27.422-6.23-48.786-8.734-30.274-3.533-44.638-3.724-61.902-.819-12.939 2.215-23.625 6.152-45.044 16.748a2693.196 2693.196 0 0 1-27.818 13.699c-18.585 8.988-37.205 21.315-51.173 33.871-8.206 7.378-12.786 10.305-18.519 11.835-4.354 1.163-5.613 1.111-13.769-.583-7.9-1.608-9.487-1.726-13.26-.718-5.589 1.492-8.374 3.861-10.044 8.643-1.689 4.71-1.395 8.116.906 10.599 2.674 3.002 10.249 3.69 10.532.982.062-.636-1.194-2.701-2.812-4.669-3.348-4.062-4.396-6.802-3.435-9.304.56-1.389 1.59-1.896 5.654-2.981 4.5-1.201 5.758-1.15 13.565.405 9.69 1.904 15.26 1.501 20.915-1.48 1.843-.956 3.454-1.618 3.638-1.513.184.106-1.805 5.438-4.358 11.849-11.94 29.36-13.725 39.206-9.84 53.655 3.11 11.559 7.806 18.9 14.542 22.832 5.06 2.907 7.945 3.221 13.697 1.763 4.282-1.143 5.51-1.781 8.02-4.309 1.827-1.882 3.441-4.558 4.203-6.93 1.92-6.165.048-10.233-4.956-10.911-4.584-.557-7.753.676-9.579 3.719-1.86 3.207-1.758 3.876.818 5.357 1.564.899 2.494.883 4.429-.021 3.473-1.547 4.945-.701 4.265 2.268-1.103 4.863-5.383 8.329-10.933 8.804-6.19.413-14.767-6.898-18.914-16.244-5.17-11.706-4.466-28.465 1.912-43.795 9.844-23.845 11.592-27.176 19.413-36.852 3.698-4.472 5.956-6.778 6.527-6.389.184.106-.012 2.559-.493 5.397-.554 2.858-.917 7.291-.93 9.85.064 4.861 2.363 14.856 4.205 18.235 2.894 5.267 8.318 9.239 12.858 9.344 2.971.058 8.602-2.142 9.037-3.419.173-.511-.156-.578-.751-.187-1.745 1.318-8.196 1.336-11.334.083-4.478-1.901-7.424-5.916-9.309-12.923-3.21-12.229-.238-25.18 7.552-32.37 9.96-9.24 30.825-21.315 55.196-31.925 18.455-8.024 36.147-13.676 37.325-11.9.242.322-1.919 2.99-4.824 5.779-2.906 2.789-6.735 7.063-8.499 9.47-8.071 11.059-9.907 18.983-7.966 33.719 1.131 8.834.528 15.268-1.858 19.699-7.744 14.301-28.387 21.129-35.559 11.816-2.829-3.581-4.502-10.955-3.519-15.399 1.711-7.813 8.192-11.479 14.191-7.97 3.753 2.096 5.766 6.978 4.119 9.818-1.329 2.291-4.048 3.172-5.762 2.003-1.051-.726-1.061-1.343-.241-3.497 1.188-3.105.611-3.803-1.618-1.969-1.707 1.463-1.951 4.315-.579 6.814 1.241 2.301 5.108 2.508 7.879.374 9.483-7.255 1.489-21.071-10.451-18.039-4.519 1.129-7.517 3.866-9.39 8.469-1.907 4.768-1.967 7.727-.388 13.887 2.608 9.989 9.538 14.643 20.034 13.467 3.165-.38 10.479-3.262 13.216-5.231 1.475-1.168-3.267 9.544-6.219 13.894-6.867 10.041-16.61 13.726-23.236 8.758-2.436-1.827-2.955-3.469-2.242-6.602.862-4.024 6.474-6.297 8.543-3.52 1.027 1.507-.074 3.195-1.672 2.46-.973-.437-1.389-.249-1.829.72-.951 1.958.798 4.124 2.758 3.601 2.104-.562 2.863-2.081 2.666-5.126-.369-5.709-8.455-5.408-11.455.503-2.487 4.923.552 10.151 7.054 12.055 2.382.757 4.24.726 7.651-.185 7.402-1.976 9.35-4.277 21.26-24.491 5.812-9.914 10.889-19.091 11.139-20.474l.578-2.477 1.212 1.612c7.23 9.53 15.255 15.363 22.912 16.649 8.17 1.458 15.223-1.819 12.388-5.708-1.158-1.704-2.47-1.664-9.843-.16-8.628 1.761-14.316-.591-21.085-8.696-2.549-3.113-3.397-4.823-5.616-12.206-4.161-13.446-3.597-21.185 1.968-30.569 4.842-8.029 14.25-17.587 22.08-22.31 5.485-3.322 17.934-6.491 28.256-7.156 21.916-1.515 48.053 1.961 83.743 11.171 16.546 4.256 27.664 6.553 31.454 6.47 4.645-.078 1.985 1.019-6.662 2.708-17.128 3.411-31.447 9.17-36.746 14.92-4.868 5.326-8.121 13.474-12.551 32.001-2.014 8.126-3.352 10.961-6.954 14.633-2.33 2.325-3.685 3.074-7.676 4.139-5.225 1.395-7.675.965-11.646-2.233-2.751-2.131-4.339-7.747-2.963-10.437 1.343-2.527 1.871-2.59 3.151-.144 1.13 2.176 3.923 3.598 6.101 3.017 1.741-.465 4.558-5.321 4.092-7.055-.525-1.95-4.108-3.704-7.462-3.738-3.426-.014-7.3 2.646-8.574 6.006-1.26 3.124-.302 8.134 2.16 11.503 2.985 4.158 7.265 6.191 12.255 5.943 8.957-.533 15.567-6.324 18.915-16.433l1.911-5.62 3.261 8.653c7.492 19.759 8.472 22.826 9.16 27.986.872 6.426-.239 12.995-2.468 14.829-2.805 2.297-5.732 2.691-7.583 1.017-2.146-1.905-1.944-4.049.296-4.105 2.26.016 3.309-1.58 2.648-4.037-.66-2.456-2.37-3.316-5.292-2.613-2.85.683-3.971 2.299-3.755 5.416.628 8.117 9.923 11.443 15.163 5.476ZM409.6 334.728c5.053-2.897 9.428-7.161 12.906-12.733l3-4.749-1.847-3.686c-1.091-2.031-2.414-4.929-3.113-6.368l-1.285-2.753-1.055 4.461c-1.277 5.372-2.566 7.806-5.925 11.799-3.61 4.215-9.128 7.7-14.497 9.133l-4.571 1.22 2.214 2.737c1.245 1.448 2.422 3.224 2.616 3.946.272 1.011.984 1.054 4.084.149 2.104-.562 5.451-1.997 7.473-3.156Zm154.691-51.474c4.066-1.937 7.001-2.875 11.344-3.493l5.833-.86.025-3.954c.11-10.863-3.238-25.91-7.934-35.567-3.771-7.661-9.724-16.209-10.991-15.716-.507.136-2.944 1.483-5.38 2.829-4.854 2.766-11.823 4.317-16.588 3.654-1.533-.209-2.699-.208-2.641.009.039.144 1.206 1.303 2.629 2.548 12.128 10.692 19.374 31.276 17.138 48.975-.423 3.053-.286 4.719.203 4.511.488-.208 3.326-1.507 6.362-2.936Z" fill="#073137"/><path d="M610.248 270.435c13.025-7.656 18.824-23.676 13.673-37.625-.956-2.685-2.575-5.813-3.524-7.03-1.434-1.862-1.966-2.107-3.373-1.267-2.113 1.106-5.989.283-7.936-1.751-1.206-1.304-1.439-2.17-1.369-4.511.118-2.74-.051-3.082-1.832-3.922-3.175-1.397-9.969-2.369-14.608-1.983-7.096.502-16.955 5.764-21.091 11.202-1.053 1.288-.995 1.504 1.273 5.31 1.366 2.189 2.582 4.109 2.766 4.215.204.178.919-.632 1.648-1.678 3.797-6.122 12.597-10.405 20.348-9.92 12.472.695 22.059 12.918 19.971 25.393-2.342 13.55-15.541 21.717-28.366 17.401l-3.663-1.19.161 2.047c.002 1.16.13 3.371.175 4.984.168 3.515 1.416 4.11 8.872 4.365 5.597.286 12.311-1.351 16.875-4.04Zm-207.892 53.55c3.719-2.076 6.048-4.4 8.836-8.782 9.231-14.538.745-33.944-16.38-37.19-5.812-1.08-13.89.689-18.788 4.163-9.776 7.021-13.333 20.973-7.899 31.055 2.613 4.798 5.208 7.511 9.754 10.245 7.049 4.233 17.364 4.42 24.477.509Zm-14.823-8.272c-13.017-2.717-14.849-20.803-2.624-26.234 4.106-1.792 9.255-1.154 13.365 1.696 7.316 4.936 8.032 15.116 1.627 21.082-2.943 2.643-8.636 4.318-12.368 3.456Z" fill="#073137"/><path d="M365.664 329.53c.16-.275 2.002-1.231 4.174-2.12l3.927-1.59-2.959-2.616c-4.232-3.592-6.166-7.023-8.089-14.173-1.457-5.416-1.517-6.793-.631-11.596 2.902-16.1 18.055-26.26 34.214-23.142 5.101 1.038 12.367 5.213 15.565 9.003 2.548 3.113 3.516 3.242 2.777.497-.238-1.174-.541-4.035-.601-6.573-.125-4.224-.222-4.585-2.198-6.147-4.135-3.231-12.107-5.979-19.002-6.461-14.483-.933-27.936 6.295-35.375 19.117-8.023 13.829-6.264 30.775 4.408 43.562 2.397 2.843 3.133 3.266 3.79 2.239Zm315.067-86.293c-.156-.578-2.834-2.727-5.928-4.688-3.094-1.961-5.675-3.75-5.733-3.966-.253-.939 3.688.409 8.248 2.907 2.537 1.336 4.852 2.421 5.069 2.363.218-.058-.645-1.531-1.968-3.268-3.091-3.974-7.652-6.473-11.44-6.39-3.605.188-17.214 3.665-17 4.46.078.289 1.36.72 2.822.95 1.718.315 4.352 2.012 7.423 4.753 2.736 2.366 5.835 4.636 7.026 5.014 1.191.379 4.288.327 6.958-.154 3.924-.737 4.756-1.114 4.523-1.981Zm-77.865 16.246c3.883-2.043 5.942-4.218 7.95-8.314 2.289-4.79 2.416-8.075.538-13.61-4.158-12.28-19-16.29-28.77-7.8-1.904 1.592-4.045 4.33-4.711 5.901-1.119 2.776-1.134 3.012 1.238 8.648 1.256 3.224 2.842 7.677 3.464 9.988 1.029 3.827 1.272 4.149 4.394 5.638 3.175 1.396 9.745 2.119 12.173 1.316.634-.246 2.297-1 3.724-1.767Zm-9.958-6.088c-7.34-.982-10.832-9.337-6.547-15.666 1.599-2.439 2.518-3.072 5.492-3.866 8.054-2.149 14.829 5.407 11.92 13.381-1.621 4.38-5.934 6.847-10.865 6.151Zm261.914-62.956c.879-.777 1.831-2.734 2.148-4.444.559-2.548.418-3.362-.89-5.335-3.964-6.062-13.247-4.436-14.788 2.554-.708 3.44.669 6.246 3.98 8.148 3.403 1.956 6.659 1.628 9.55-.923Zm-6.208.341c-.362.096-1.48-.302-2.492-.883-4.231-2.431-3.3-9.955 1.489-11.233 2.684-.717 6.784 1.517 7.484 4.117.913 3.394-1.889 8.011-4.734 7.842-.619.011-1.384.06-1.747.157Z" fill="#073137"/><path d="M850.154 184.642a1.187 1.187 0 0 0-1.472-.846c-.653.175-.919.633-.638 1.099.785 1.184 2.44.975 2.11-.253Zm36.923-20.694c1.831-1.572 3.686-3.925 4.333-5.568.941-2.572.848-3.786-.974-11.425-1.214-5.092-2.481-8.933-3.129-9.611-1.056-1.034-1.056-1.034-.759.357.64 2.383-.755 4.999-5.384 10.336-4.701 5.357-5.337 7.616-3.9 12.959 1.476 5.487 2.274 5.274 6.509-1.815 3.153-5.33 3.796-6.121 3.86-4.436.055 1.069-1.311 4.374-2.938 7.285-3.221 5.658-2.722 6.066 2.382 1.918Zm-196.28 45.807c3.321-2.976 4.363-6.04 3.671-10.345-.73-4.449-2.668-7.027-6.526-8.939-4.37-2.084-8.497-1.524-12.122 1.765-4.22 3.681-5.103 6.471-3.704 11.67.854 3.177 1.644 4.669 3.194 5.803 5.132 4.048 11.054 4.093 15.487.046Zm-9.173.591c-3.232-.453-6.762-3.458-7.558-6.419-1.749-6.499 2.672-12.323 9.306-12.236 8.708-.002 12.43 11.233 5.58 16.699-2.572 2.002-3.95 2.37-7.328 1.956Z" fill="#073137"/><path d="M685.068 203.776c1.552-.878 1.515-4.197-.015-5.259-2.508-1.807-6.395 1.088-5.057 3.749.698 1.439 3.573 2.297 5.072 1.51Zm152.097-40.569c-4.575-3.421-7.122-6.533-7.323-8.724-.17-1.502-.098-1.521 1.094.018 2.101 2.612 7.063 6.317 9.903 7.339l2.604 1.007.059-2.956c.079-8.379.152-8.398-9.316-14.693-4.845-3.272-8.925-6.593-9.342-7.565l-.723-1.82-.36 2.418c-.634 4.58-.243 13.839.806 17.738.893 3.321 1.416 4.11 4.233 5.912 1.786 1.148 5.27 2.539 7.684 3.133l4.408 1.068-3.727-2.875ZM330.342 295.724c2.369-2.181 5.845-5.741 7.595-7.912l3.141-3.935-3.512 1.402c-3.149 1.305-4.243 1.287-13.11-.449-8.703-1.703-10.033-1.735-13.149-.593-3.386 1.291-8.521 5.913-8.132 7.358.233.867 11.191 2.277 16.673 2.13l4.481-.112-4.697 1.331c-3.556.949-6.16 1.102-10.651.598-3.286-.362-6.059-.55-6.112-.459-.266.458 9.285 3.87 13.09 4.713 6.128 1.384 9.301.459 14.383-4.072Zm227.992-72.837c7.026-4.816 11.063-11.776 11.979-20.224.623-6.358-2.241-15.269-6.416-19.804-7.628-8.413-17.278-11.332-28.089-8.447-7.599 2.106-12.114 5.556-16.152 12.516-4.463 7.692-4.908 12.687-2.136 21.544 1.752 5.647 2.484 6.922 5.656 10.332 7.047 7.407 15.671 9.981 25.873 7.723 4.339-.926 6.728-1.874 9.285-3.64Zm-19.361-4.042c-6.615-1.176-12.925-6.999-14.693-13.57-1.962-7.294 1.885-16.989 8.306-20.87 4.545-2.761 6.432-3.265 11.372-3.113 14.089.342 22.881 16.261 15.834 28.513-4.356 7.509-11.736 10.718-20.819 9.04Z" fill="#073137"/><path d="M553.083 212.602c10.548-8.775 6.008-25.365-7.643-27.835-4.258-.799-11.141 1.657-14.002 4.898-6.471 7.454-5.013 18.365 3.038 23.724 5.766 3.801 13.468 3.526 18.607-.787Zm-12.913-4.061c-2.966-.911-5.592-4.312-5.808-7.428-.436-5.379 5.326-10.554 10.374-9.425 3.329.814 6.739 4.238 7.061 7.171.718 7.006-5.049 11.874-11.627 9.682ZM288.935 292.48c-5.821-.536-9.315-1.384-12.2-2.858-3.365-1.811-3.511-2.933-.132-1.358 2.846 1.33 15.8 2.362 16.365 1.282.744-1.282-3.166-6.276-6.09-7.895-2.353-1.23-4.617-1.554-10.264-1.44-8.269.194-9.493-.021-13.095-1.846-2.904-1.547-3.152-2.177 2.543 7.139 5.767 9.297 9.6 10.828 21.404 8.452l5.539-1.092-4.07-.384Zm360.774-106.793c-1.36-5.055-2.919-6.805-6.886-7.681-3.382-.722-3.444-.086-.173 1.671 1.544.826 2.837 1.874 2.973 2.38.135.505-1.311.04-3.223-.997l-3.402-1.955.636 3.235c.56 2.946.913 3.393 3.536 4.473 1.578.662 3.818 1.766 4.994 2.381 1.196.687 2.26 1.177 2.405 1.138.218-.058-.181-2.118-.86-4.645Zm-21.977 9.977c1.862-.884 4.043-2.318 4.884-3.239 1.484-1.712 2.5-6.319 2.409-10.707l-.075-2.302-1.835 3.586c-.951 1.957-1.705 3.784-1.699 4.092.155.578-3.108 3.771-4.051 4.023-.218.058.376-1.494 1.346-3.378 1.623-3.22 3.094-7.871 2.803-8.954-.136-.506-6.938 1.387-8.253 2.28-.595.391-2.212 3.919-3.588 7.77-1.467 3.798-3.239 7.909-3.929 9.1l-1.315 2.054 4.988-1.409c2.738-.808 6.506-2.124 8.315-2.916Zm-209.381 52.325c.197-1.291.486-2.529.553-2.856.068-.328-1.123-.707-2.584-.936-7.742-1.029-12.899-9.792-10.124-17.111 1.361-3.614 5.91-7.228 9.635-7.835 4.107-.632 9.164 1.114 11.635 3.938l1.932 2.27 2.035-2.555c1.962-2.536 1.942-2.608.276-4.176-5.772-5.27-11.207-6.683-18.317-4.785-6.022 1.607-9.169 4.072-11.975 9.542-2.24 4.391-2.556 8.422-1.138 13.694 1.53 5.396 6.053 10.071 11.716 12.043 4.912 1.784 5.73 1.643 6.356-1.233Zm291.256-76.835c-.058-.217-2.111-2.068-4.565-3.966-2.474-1.971-4.788-4.216-5.239-5.024-2.903-5.88-2.595-7.046.679-2.968 1.172 1.467 4.44 4.077 7.329 5.86 6.002 3.815 6.074 3.795 5.398-5.078l-.388-5.778-8.277-5.915c-9.347-6.714-12.082-9.079-12.645-11.173-1.218-4.24-1.64 9.801-.592 18.033.911 6.567 2.564 9.531 6.818 12.342 2.817 1.801 11.754 4.678 11.482 3.667ZM208.405 300.85c2.664-1.95 6.731-5.048 9.013-6.974 4.008-3.315 4.061-3.406 1.575-2.82-3.522.785-7.874-.066-15.997-3.085-6.768-2.606-7.005-2.62-10.918-1.266-3.987 1.374-10.196 6.051-9.754 7.404.292 1.083 11.013 3.641 14.913 3.683 4.573-.059 4.521 1.194-.094 1.961-2.545.37-6.122.086-10.328-.804-3.64-.809-6.491-1.287-6.413-.998.311 1.156 8.668 6.202 11.984 7.253 5.001 1.529 9.427.348 16.019-4.354Zm311.004-81.801c-.019-.072-.993-1.67-2.098-3.464-2.825-4.431-4.33-10.608-4.046-16.488.046-2.721.063-4.97-.029-5.023-.368-.211-14.955-.961-15.462-.826-.363.097-.463 1.749-.248 3.704.62 5.484-.231 11.283-2.147 15.432-1.005 2.048-1.685 3.855-1.521 3.889.184.105 2.608.155 5.395.108 2.786-.048 8.152.532 12.028 1.355 8.298 1.655 8.226 1.674 8.128 1.313ZM307.24 274.897c6.126-4.112 4.52-14.132-2.643-16.477-2.73-.897-7.576.165-9.621 2.104-2.064 1.866-3.139 6.255-2.342 9.216.757 2.816 3.91 6.154 6.233 6.695 2.744.661 6.067.006 8.373-1.538Zm-7.151-.568c-8.667-1.866-6.638-14.559 2.207-14.056 4.485.196 7.892 5.633 6.081 9.599-1.738 3.947-4.32 5.332-8.288 4.457Z" fill="#073137"/><path d="M303.942 269.276c1.368-.985-.024-4.715-1.756-4.794-3.135-.092-4.691 2.799-2.613 5.031 1.075 1.106 2.696 1.061 4.369-.237Zm176.912-44.636c6.74-4.43 11.117-10.707 12.813-18.28 1.088-4.625 1.02-5.458-.787-12.174-1.592-5.921-2.407-7.793-4.471-10.261-3.531-4.166-11.296-8.749-16.778-9.763-4.114-.837-5.405-.724-11.863 1-6.747 1.801-7.506 2.158-10.987 5.409-4.809 4.379-7.958 10.019-9.021 16.185-.732 4.219-.633 5.741.882 11.374 1.593 5.921 2.102 6.946 5.352 10.645 6.926 7.826 16.581 11.054 26.71 8.814 3.232-.707 6.544-1.979 8.15-2.949Zm-15.299-5.127c-4.538-.104-12.211-4.635-14.407-8.46-2.137-3.609-3.397-10.316-2.616-13.775 2.996-13.725 20.63-19.283 30.829-9.7 5.201 4.881 7.246 12.772 5.002 19.176-2.832 8.263-9.804 12.988-18.808 12.759Z" fill="#073137"/><path d="M476.276 211.39c6.603-6.097 5.673-17.071-1.86-21.949-10.627-6.838-24.382 3.025-21.118 15.157.971 3.611 3.878 7.479 6.743 8.881 5.272 2.54 12.107 1.644 16.235-2.089Zm-11.27-7.208c-2.576-1.48-2.023-5.497.879-6.272 1.959-.523 3.614.429 4.139 2.378.524 1.95-.432 3.598-2.391 4.121-.871.233-1.983.143-2.627-.227Zm-41.065 30.472c3.617-7.079 3.446-8.582-1.337-11.33-3.495-2.008-7.423-1.579-10.387.993-4.65 4.104-4.876 10.202-.672 14.265 1.816 1.837 6.065 3.18 8.169 2.618.58-.155 2.426-3.124 4.227-6.546Zm-7.869-2.079c-.583-2.166 1.394-3.777 3.234-2.72 1.36.72 1.477 1.153.931 2.305-.898 1.865-3.699 2.148-4.165.415Zm-38.098 16.002c6.165-3.967 10.595-10.335 12.19-17.417.901-3.878.808-5.092-.843-11.23-1.651-6.138-2.18-7.235-4.907-10.145-3.841-4.16-9.083-7.173-14.624-8.403-3.896-.895-5.188-.782-11.282.844-6.457 1.724-7.144 2.062-10.803 5.515-4.341 4.1-6.693 8.366-7.959 14.354-.727 3.367-.61 4.961.964 10.81 2.136 7.944 4.617 11.383 11.186 15.28 6.017 3.579 11.606 4.41 18.557 2.787 3.232-.708 6.603-1.763 7.521-2.395Zm-13.899-4.262c-4.301-.09-11.936-4.476-14.165-8.138-7.734-12.564 1.245-28.041 16.045-27.657 4.302.09 11.936 4.477 14.165 8.139 2.379 3.931 3.264 7.797 2.533 12.017-.794 4.855-2.74 8.316-6.55 11.5-3.558 2.962-7.18 4.238-12.028 4.139Z" fill="#073137"/><path d="M372.258 240.041c9.081-4.978 10.897-17.305 3.507-24.543-4.76-4.689-12.541-5.862-18.063-2.686-9.222 5.325-10.937 17.16-3.547 24.398 4.669 4.636 12.542 5.863 18.103 2.831Zm-11.28-6.664c-2.575-1.48-3.283-2.375-3.943-4.83-.661-2.455-.497-3.582.991-6.147 1.487-2.564 2.386-3.268 4.853-3.927 2.467-.658 3.599-.496 6.175.984 2.575 1.479 3.282 2.374 3.943 4.829.66 2.456.497 3.583-.991 6.147-1.487 2.564-2.387 3.269-4.854 3.927-2.466.658-3.599.496-6.174-.983Zm285.575-60.6c12.101-5.32 13.998-20.534 2.568-20.812-2.443-.122-3.295.183-5.379 1.978-1.938 1.756-2.344 2.561-1.964 4.549.282 1.628 1.014 2.903 2.045 3.557 3.278 2.067 7.291-.94 4.787-3.6-1.318-1.429-2.339-1.466-2.754-.117-.101.492-.749.974-1.329 1.129-1.596.426-1.952-2.343-.469-4.055 3.253-3.809 9.25-2.623 10.512 2.071 1.574 5.85-3.202 11.228-11.89 13.624-9.994 2.745-18.131-.037-31.027-10.683-3.491-2.861-8.451-7.42-11.139-10.186-2.688-2.766-5.202-4.882-5.584-4.857-.363.097-.88.776-1.068 1.523-.502 1.605 5.438 9.231 11.449 14.516 4.94 4.487 15.465 10.657 20.906 12.379 6.447 1.994 14.421 1.569 20.336-1.016Zm-68.603 13.061c9.557-8.123 13.432-18.29 12.127-32.105l-.211-2.808-2.069 1.559c-1.548 1.187-2.146 2.43-2.183 4.607-.14 4.681-1.071 7.871-3.187 10.99-2.773 4.145-5.805 5.883-13.23 7.478l-6.39 1.396 3.042 3.213c1.652 1.804 3.633 4.835 4.468 6.779.834 1.945 1.716 3.489 1.933 3.431.291-.077 2.843-2.152 5.7-4.54Zm-332.81 87.245c4.067-1.937 6.662-4.719 7.898-8.222.989-2.974 1.69-13.378.862-13.853-.204-.178-.937 1.72-1.588 4.216-1.181 4.572-5.079 11.186-6.966 11.689-.508.136-.16-.886.801-2.226 1.566-2.275 5.463-14.384 5.094-15.756-.233-.867-4.581.603-7.357 2.428-3.655 2.601-4.573 4.394-6.113 12.545-1.304 7.005-2.477 9.872-5.203 12.458-.987.96-.15.891 4.204-.271 2.955-.866 6.796-2.201 8.368-3.008Zm550.568-153.256c-2.589-5.578-5.734-10.62-7.603-12.366-2.499-2.351-6.612-3.188-10.385-2.181l-2.737.808 2.908.694c7.573 1.848 9.729 4.369 2.417 2.915-5.778-1.244-6.846-.881-5.47 1.924 2.017 4.028 5.202 6.042 10.825 6.708 2.883.314 6.58 1.339 8.217 2.218l2.923 1.619-1.095-2.339ZM65.58 311.324c3.717-3.237 3.764-9.132.08-12.715-1.909-1.89-6.008-2.963-8.62-2.265-3.99 1.065-7.444 7.017-6.356 11.061.272 1.011 1.522 2.767 2.834 3.887 3.956 3.434 8.166 3.471 12.062.032Zm-7.46.598c-2.981-.675-4.463-2.137-5.318-5.314-.855-3.178.159-5.77 2.934-7.595 2.723-1.732 5.403-1.596 8.318.567 2.62 1.932 3.396 4.821 2.098 7.799-1.738 3.946-4.229 5.385-8.032 4.543Z" fill="#073137"/><path d="M62.032 306.234c1.265-2.814-2.516-5.597-4.628-3.331-2.04 2.247-.16 5.77 2.743 4.995.726-.193 1.533-.951 1.885-1.664Zm107.403-24.755c1.594-2.748 1.69-3.547.835-6.725-.757-2.816-1.542-4-3.387-5.365-4.846-3.273-10.748-2.084-13.617 2.861-2.849 5.017-.971 10.553 4.445 13.055 2.038.926 3.46 1.011 6.29.256 3.192-.852 3.84-1.335 5.434-4.082Zm-10.7 1.85c-2.033-.619-4.038-2.87-4.699-5.325-.213-.794.462-2.91 1.471-4.65 1.701-2.93 2.223-3.302 4.714-3.58 3.638-.352 6.843 1.734 7.756 5.128.913 3.394.33 5.562-2.117 7.453-2.175 1.742-3.975 1.99-7.125.974Z" fill="#073137"/><path d="M162.72 277.621c.763-1.21-.206-2.499-1.584-2.131-.943.251-1.315.892-1.063 1.831.369 1.372 1.976 1.563 2.647.3Zm351.051-89.714c6.256-5.075 6.958-14.318 1.538-20.301-4.509-4.911-13.731-5.081-18.99-.349-10.412 9.28-.593 26.705 12.863 22.959 1.432-.46 3.492-1.474 4.589-2.309Zm-9.338-.603c-4.345-.543-7.672-3.37-8.721-7.27-1.631-6.066 1.305-11.338 7.182-12.907 5.514-1.472 11.091 1.916 12.553 7.64.937 3.774-.206 7.33-3.295 10.012-2.943 2.643-4.23 3.064-7.719 2.525Z" fill="#073137"/><path d="M508.247 180.095c3.036-2.591-.027-8.197-3.945-7.151-3.192.852-3.971 5.472-1.333 7.476 1.826 1.293 3.591 1.209 5.278-.325Zm234.312-62.93c-7.502-4.188-8.162-6.643-.665-2.763 7.351 3.919 8.183 3.542 6.136-2.334-.917-2.541-2.269-4.966-2.952-5.481-.682-.514-4.094-1.925-7.592-3.08-3.426-1.175-6.843-2.894-7.623-3.77-1.152-1.394-1.317-1.428-1.422-.084-.307 2.326 2.518 12.251 4.107 14.69 2.093 3.156 4.852 4.741 9.583 5.568 6.285 1.108 6.367.544.428-2.746ZM628.92 143.048c2.86-4.403 6.05-8.738 7.022-9.462 1.726-1.389 1.634-1.442-3.829-1.223-13.239.515-17.602 2.222-20.263 7.654-1.517 3.037-3.301 9.707-2.575 9.513.218-.058 1.789-2.026 3.48-4.412 3.064-4.225 5.491-6.189 7.388-6.076.547.009-.27 1.311-1.793 2.879-2.707 2.658-6.108 8.52-5.777 9.748.097.361 1.611.499 3.358.342 1.8-.248 4.219-.507 5.511-.619 1.965-.215 2.859-1.228 7.478-8.344Zm-91.84 23.022c2.74-3.982 3.447-8.584 1.99-14.001-2.235-8.307-8.967-14.251-18.09-16.074-7.551-1.468-12.791-.998-18.74 1.751-10.941 5.011-18.585 12.161-25.319 23.558-2.464 4.141-4.489 7.314-4.547 7.097-.291-1.083 6.31-15 9.223-19.494 6.074-9.517 14.626-17.916 23.916-23.57 9.924-5.901 23.848-9.075 39.923-8.876 7.327.057 10.796-.637 10.407-2.082-.35-1.3-17.665-2.639-24.87-1.954-22.102 2.261-45.697 17.772-56.759 37.37-3.681 6.556-8.721 19.049-8.293 20.638.155.578 1.53 1.063 3.098 1.109l2.845.169 5.459-9.199c4.856-8.263 6.141-9.845 12.32-15.21 6.682-5.81 7.098-5.998 13.194-7.625 5.733-1.531 6.57-1.599 8.666-.456 3.089 1.653 3.522 3.551 1.245 5.784-1.973 1.92-2.073 3.573-.156 3.758 1.771.224 4.038-2.626 4.035-4.948-.046-2.775-2.071-5.099-5.203-6.043-3.296-.979-2.029-1.472 3.531-1.33 5.416.18 10.233 2.765 11.107 6.015.933 3.467-.105 5.68-4.394 9.689-3.858 3.585-4.455 5.989-1.537 6.139 3.702.173 9.119-7.156 8.911-11.978-.093-1.214-.748-3.361-1.572-4.69-1.183-2.084-1.261-2.373-.196-1.883 2.295 1.013 6.932 6.975 7.67 9.72.971 3.612.273 6.508-2.813 12.673-2.792 5.236-2.821 5.708-1.165 6.659 1.748 1.005 4.191-.035 6.114-2.716Z" fill="#073137"/><path d="M585.217 151.8c10.526-6.834 13.646-21.831 6.597-31.559l-2.108-2.92-4.208 1.123c-2.268.528-4.043 1.157-3.84 1.335 5.981 5.756 7.961 11.961 5.693 17.984-4.864 13.14-23.476 13.619-28.646.758-3.652-9.242 2.564-19.956 12.094-20.952l2.801-.283-2.044-2.396c-1.187-1.231-2.47-2.823-2.81-3.507-.673-1.058-1.273-.976-4.078.16-7.453 3.228-13.077 10.069-14.246 17.579-.884 5.963 1.233 13.835 4.948 18.106 3.289 3.843 8.513 6.783 13.521 7.768 4.66.846 12.342-.662 16.326-3.196ZM119.365 272.045c-5.855-.372-13.342-2.476-15.395-4.328-1.536-1.37-1.371-1.337 2.365-.167 4.23 1.271 17.184 2.302 17.715 1.387.425-.733-3.48-6.579-5.475-8.214-2.199-1.813-6.694-2.625-13.376-2.312-7.993.353-10.093.062-13.825-1.961l-3.273-1.758 3.32 5.693c8.181 14.226 11.948 16.084 26.402 13.155l6.284-1.213-4.742-.282Zm18.716-5.937c1.136-.691 2.427-1.964 2.958-2.88 1.005-2.048 1.583-8.858 1.167-14.165l-.357-3.929-1.266 1.654c-.749.974-3.243 3.265-5.69 5.156-2.465 1.819-4.906 4.018-5.404 4.77-.855 1.157-1.715 7.501-1.268 9.162.291 1.083 2.695-.1 5.401-2.758 3.19-3.173 3.408-3.231 2.878-1.155-.222.911-1.72 2.859-3.334 4.373l-2.944 2.643 2.902-.774c1.577-.499 3.821-1.407 4.957-2.097Zm112.386-32.275c4.759-1.967 7.665-4.756 8.967-8.587.975-2.737 2.069-16.886 1.406-17.329-.184-.105-.721.502-1.199 1.327-1.879 3.133-4.694 4.814-13.28 7.88-9.292 3.332-12.31 4.834-14.582 7.376-1.61 1.823-3.012 7.306-2.391 9.618.408 1.517.626 1.458 4.428-.021 6.951-2.784 14.302-6.682 16.328-8.693 1.953-1.993 2.025-2.012 1.47-.316-.757 2.68-6.298 6.946-12.378 9.498-7.11 3.059-7.999 4.38-1.831 2.733 2.612-.697 5.699-1.366 6.899-1.531 1.2-.166 3.938-.974 6.163-1.955Z" fill="#073137"/><path d="M581.603 140.381c4.021-4.711 3.753-12.07-.663-15.767-3.753-3.255-6.681-4.022-11.034-2.86-4.354 1.162-6.524 3.212-8.174 8.064-2.089 5.821 2.684 13.447 8.82 14.286 4.2.582 8.621-.907 11.051-3.723Zm-11.236-7.372c-.302-1.7.056-2.105 1.869-2.589 1.742-.465 2.347-.24 2.861 1.094.984 2.214-.62 4.345-2.851 3.857-1.079-.254-1.675-1.024-1.879-2.362Zm224.589-49.573c-.039-.144-2.019-.854-4.308-1.559-5.492-1.63-5.881-3.074-.524-1.95 5.85 1.225 6.754.83 5.353-2.357-1.832-3.922-4.335-5.421-10.379-6.207-3.048-.348-6.338-1.017-7.258-1.546-1.709-.86-1.762-.768-.011 3.718 1.979 5.044 5.287 8.96 8.641 10.154 1.979.71 8.699.542 8.486-.253Zm10.91-6.323c2.111-2.266 2.673-6.827 1.371-11.664-1.184-4.404-2.802-6.372-2.939-3.704.015.925-1.154 2.94-2.405 4.357-2.628 2.945-3.685 6.245-2.927 9.061.718 2.671 2.029 2.631 4.203-.27 2.498-3.144 2.687-2.73.679 1.366-1.656 3.382-.775 3.766 2.018.854Zm-217.027 38.358c3.959-2.914 5.604-8.075 4.264-13.057-2.856-10.615-16.443-12.561-21.916-3.129-2.444 4.213-2.603 8.822-.466 12.431 1.856 3.142 3.11 4.046 7.233 5.499 3.519 1.228 7.844.538 10.885-1.744Zm-10.515-1.218c-1.631-.571-3.66-2.042-4.667-3.476-1.585-2.131-1.798-2.925-1.535-5.704.735-10.568 15.557-12.125 18.296-1.943 1.981 7.366-4.82 13.593-12.094 11.123Z" fill="#073137"/><path d="M584.164 107.354c.85-1.465.059-4.118-1.538-4.852-1.69-.788-3.459.149-4.135 2.264-1.129 3.32 3.92 5.61 5.673 2.588Z" fill="#073137"/><path d="m535.109 264.885 1.028.129h6.525v1.695h-6.32v5.318l-1.092.514c-.034 0-.068-.115-.103-.347a12.781 12.781 0 0 1-.038-1.194v-6.115Zm0 8.935h7.566v5.588c0 .805-.163 1.391-.488 1.76-.317.368-.702.552-1.156.552h-.386c-.351 0-.642-.077-.873-.231-.223-.146-.381-.304-.475-.475-.12.376-.33.676-.63.899-.291.222-.676.334-1.156.334h-.231c-.257 0-.514-.03-.771-.09a1.762 1.762 0 0 1-.706-.347c-.206-.163-.373-.398-.501-.707-.129-.299-.193-.693-.193-1.181v-6.102Zm4.534 1.696v3.622c-.008.3.065.522.219.668a.868.868 0 0 0 .603.218h.129a.919.919 0 0 0 .565-.205c.189-.137.283-.394.283-.771v-3.532h-1.799Zm-3.301 0v4.046c0 .325.081.569.244.732.163.171.385.257.668.257h.231c.266 0 .48-.098.643-.295.171-.197.257-.523.257-.977v-3.763h-2.043Zm-51.393-12.834c0-2.975.131-5.163.394-6.563.262-1.4.568-2.1.918-2.1l5.71 2.625c-.175 1.006-.35 3.5-.525 7.482-.131 4.025-.197 9.538-.197 16.539v1.247c0 1.881.328 3.216.985 4.003.7.788 1.859 1.182 3.478 1.182h1.313c1.531 0 2.625-.328 3.281-.985.657-.612.985-2.012.985-4.2v-15.226c0-4.42.809-7.635 2.428-9.648 1.663-2.013 4.354-3.019 8.073-3.019h1.05c1.925 0 3.697.35 5.316 1.05 1.619.744 2.91 1.991 3.872 3.741 1.006 1.75 1.51 4.157 1.51 7.219v17.852c0 2.975-.154 5.382-.46 7.219-.306 1.838-.634 2.757-.984 2.757l-5.513-1.313c.131-1.137.262-3.719.394-7.744.175-4.026.262-9.429.262-16.211l.066-.722c0-2.013-.416-3.369-1.247-4.069-.788-.7-1.794-1.072-3.019-1.116h-1.116c-1.444 0-2.538.394-3.282 1.181-.7.832-1.05 2.188-1.05 4.07v14.57c0 2.8-.284 5.184-.853 7.153-.569 1.969-1.619 3.479-3.15 4.529-1.488 1.05-3.697 1.575-6.629 1.575h-1.05c-3.281 0-5.929-.853-7.941-2.56-2.013-1.662-3.019-4.572-3.019-8.728v-21.79Zm-10.37 27.637h-11.254l4.634-15.744 6.62 15.744Zm-11.254-31.486h11.254l-4.634 15.744-6.62-15.744Z" fill="#073137" fill-opacity=".7"/><path d="M539.373 261.043c-.805-7.965-4.797-15.386-11.224-20.863-6.427-5.477-14.843-8.632-23.659-8.867-8.816-.236-17.422 2.464-24.194 7.589-6.771 5.124-11.238 12.32-12.559 20.227l2.739.376c1.219-7.301 5.344-13.944 11.595-18.675 6.252-4.732 14.198-7.224 22.337-7.006 8.14.217 15.91 3.129 21.844 8.186 5.933 5.057 9.62 11.909 10.363 19.262l2.758-.229Zm.036 25.224c-.692 7.875-4.501 15.257-10.725 20.784-6.224 5.528-14.443 8.828-23.14 9.291-8.697.464-17.285-1.94-24.18-6.768-6.896-4.829-11.632-11.755-13.337-19.502l2.716-.491c1.574 7.152 5.948 13.547 12.314 18.005 6.366 4.457 14.295 6.677 22.325 6.249 8.029-.428 15.617-3.475 21.363-8.578 5.747-5.103 9.264-11.919 9.903-19.189l2.761.199Z" fill="#073137" fill-opacity=".7"/></svg>