<svg width="220" height="48" viewBox="0 0 220 48" fill="none" xmlns="http://www.w3.org/2000/svg">
<g clip-path="url(#clip0_166_22)">
<path d="M115.684 34.7453L119.217 16.8054L120.293 18.1501H112.458L113.41 13.3519H132.584L131.631 18.1501H123.611L125.209 16.8054L121.676 34.7453H115.684ZM142.247 35.1732C140.035 35.1732 138.13 34.7758 136.532 33.9812C134.934 33.1663 133.705 32.0558 132.845 30.65C131.985 29.2442 131.554 27.6142 131.554 25.7601C131.554 23.8856 131.882 22.1741 132.538 20.6257C133.193 19.0568 134.115 17.7019 135.303 16.5609C136.491 15.3996 137.905 14.5031 139.543 13.8715C141.202 13.2399 143.015 12.9241 144.982 12.9241C147.194 12.9241 149.099 13.3316 150.697 14.1466C152.295 14.9412 153.524 16.0414 154.384 17.4472C155.244 18.8531 155.675 20.483 155.675 22.3372C155.675 24.2116 155.347 25.9333 154.691 27.5021C154.036 29.0506 153.114 30.4055 151.926 31.5668C150.738 32.7078 149.314 33.5941 147.655 34.2258C146.016 34.8573 144.214 35.1732 142.247 35.1732ZM142.769 30.161C143.835 30.161 144.777 29.9675 145.596 29.5803C146.436 29.1932 147.143 28.6533 147.716 27.9605C148.31 27.2474 148.761 26.4426 149.068 25.5461C149.375 24.6497 149.529 23.7022 149.529 22.7039C149.529 21.7463 149.324 20.9109 148.915 20.1978C148.526 19.4847 147.952 18.9346 147.194 18.5475C146.457 18.14 145.545 17.9362 144.459 17.9362C143.415 17.9362 142.473 18.1298 141.632 18.5169C140.793 18.904 140.076 19.4541 139.482 20.1672C138.908 20.86 138.468 21.6546 138.161 22.5511C137.853 23.4476 137.7 24.395 137.7 25.3933C137.7 26.3306 137.894 27.166 138.284 27.8994C138.693 28.6125 139.267 29.1728 140.004 29.5803C140.762 29.9675 141.684 30.161 142.769 30.161ZM156.588 34.7453L160.89 13.3519H169.984C172.77 13.3519 174.921 13.953 176.437 15.1551C177.953 16.3572 178.711 18.0483 178.711 20.2284C178.711 22.0213 178.281 23.5902 177.42 24.9349C176.56 26.2796 175.331 27.3188 173.733 28.0522C172.135 28.7857 170.251 29.1525 168.08 29.1525H161.104L164.331 26.463L162.671 34.7453H156.588ZM164.177 27.166L162.057 24.3848H168.356C169.687 24.3848 170.722 24.069 171.459 23.4374C172.197 22.8058 172.565 21.9093 172.565 20.7479C172.565 19.8515 172.269 19.1892 171.674 18.7614C171.08 18.3335 170.251 18.1196 169.186 18.1196H163.348L166.574 15.2468L164.177 27.166ZM179.096 34.7453L183.398 13.3519H199.129L198.177 18.1501H186.993L188.59 16.8054L185.088 34.7453H179.096Z" fill="black"/>
<path d="M76.8153 13.4473H82.8068L78.5052 34.8406H72.5137L76.8153 13.4473Z" fill="#3D76CA"/>
<path d="M58.6868 13.4473H64.6784L62.3743 27.0474L76.8816 13.4854L75.2791 22.1574L60.3768 34.8406H54.3853L58.6868 13.4473Z" fill="#3D76CA"/>
<path d="M47.9331 13.4473H53.9246L49.6231 34.8406H43.6313L47.9331 13.4473Z" fill="#3D76CA"/>
<path d="M37.4858 13.4473H43.4774L39.1757 34.8406H33.1841L37.4858 13.4473Z" fill="#3D76CA"/>
<path d="M26.7319 13.4473H32.7235L28.4218 34.8406H22.4302L26.7319 13.4473Z" fill="#3D76CA"/>
<path d="M103.855 13.4473H109.846L105.545 34.8406H99.5532L103.855 13.4473Z" fill="#3D76CA"/>
<path d="M85.7264 13.4473H91.718L89.8747 22.9215H102.011L101.089 27.6586H88.7993L87.4164 34.8406H81.4248L85.7264 13.4473Z" fill="#3D76CA"/>
<path d="M23.9665 0.76416H196.034C208.846 0.76416 219.232 11.0949 219.232 23.8384C219.232 36.582 208.846 46.9127 196.034 46.9127H23.9665C11.1544 46.9127 0.768143 36.582 0.768143 23.8384C0.768143 11.0949 11.1544 0.76416 23.9665 0.76416Z" stroke="url(#paint0_linear_166_22)" stroke-width="1.0824"/>
<path d="M23.8127 5.80664H196.187C206.454 5.80664 214.776 14.0849 214.776 24.2966C214.776 34.5083 206.454 42.7866 196.187 42.7866H23.8127C13.546 42.7866 5.22327 34.5083 5.22327 24.2966C5.22327 14.0849 13.546 5.80664 23.8127 5.80664Z" stroke="url(#paint1_linear_166_22)" stroke-width="2.1648"/>
</g>
<defs>
<linearGradient id="paint0_linear_166_22" x1="218.464" y1="23.8384" x2="-1.53623" y2="23.8384" gradientUnits="userSpaceOnUse">
<stop/>
<stop offset="1" stop-color="#3D76CB"/>
</linearGradient>
<linearGradient id="paint1_linear_166_22" x1="213.24" y1="24.2966" x2="0.614523" y2="24.2966" gradientUnits="userSpaceOnUse">
<stop/>
<stop offset="1" stop-color="#3D76CB"/>
</linearGradient>
<clipPath id="clip0_166_22">
<rect width="220" height="48" fill="white"/>
</clipPath>
</defs>
</svg>
