<svg width="208" height="46" viewBox="0 0 208 46" fill="none" xmlns="http://www.w3.org/2000/svg">
<g clip-path="url(#clip0_178_2936)">
<path d="M109.374 33.298L112.715 16.1056L113.732 17.3943H106.324L107.225 12.796H125.352L124.452 17.3943H116.869L118.38 16.1056L115.039 33.298H109.374ZM134.488 33.708C132.397 33.708 130.596 33.3273 129.085 32.5658C127.575 31.7848 126.413 30.7206 125.599 29.3733C124.786 28.0261 124.379 26.464 124.379 24.6872C124.379 22.8908 124.689 21.2506 125.309 19.7667C125.928 18.2632 126.8 16.9647 127.923 15.8713C129.046 14.7584 130.383 13.8992 131.932 13.2939C133.501 12.6886 135.215 12.386 137.074 12.386C139.165 12.386 140.967 12.7765 142.477 13.5575C143.988 14.319 145.15 15.3734 145.963 16.7207C146.777 18.0679 147.183 19.63 147.183 21.4069C147.183 23.2032 146.873 24.8531 146.254 26.3566C145.634 27.8405 144.763 29.139 143.639 30.252C142.516 31.3454 141.17 32.1948 139.602 32.8001C138.052 33.4054 136.348 33.708 134.488 33.708ZM134.982 28.9047C135.989 28.9047 136.88 28.7192 137.655 28.3482C138.449 27.9772 139.117 27.4598 139.659 26.7959C140.221 26.1125 140.647 25.3413 140.938 24.4821C141.228 23.623 141.373 22.7151 141.373 21.7583C141.373 20.8406 141.18 20.0401 140.792 19.3567C140.425 18.6732 139.882 18.146 139.165 17.7751C138.468 17.3846 137.607 17.1893 136.58 17.1893C135.592 17.1893 134.702 17.3748 133.907 17.7458C133.113 18.1168 132.436 18.644 131.874 19.3273C131.332 19.9912 130.915 20.7528 130.625 21.6119C130.334 22.471 130.189 23.3789 130.189 24.3357C130.189 25.2339 130.373 26.0345 130.741 26.7374C131.128 27.4208 131.671 27.9577 132.368 28.3482C133.084 28.7192 133.956 28.9047 134.982 28.9047ZM148.047 33.298L152.114 12.796H160.713C163.347 12.796 165.381 13.372 166.813 14.524C168.246 15.6761 168.963 17.2967 168.963 19.3859C168.963 21.1042 168.556 22.6077 167.743 23.8964C166.93 25.1851 165.767 26.1809 164.257 26.8838C162.746 27.5867 160.965 27.9382 158.912 27.9382H152.317L155.367 25.3608L153.799 33.298H148.047ZM155.223 26.0345L153.218 23.3692H159.173C160.432 23.3692 161.41 23.0665 162.107 22.4612C162.805 21.8559 163.153 20.9968 163.153 19.8839C163.153 19.0247 162.872 18.3901 162.311 17.9801C161.749 17.5701 160.965 17.365 159.958 17.365H154.438L157.488 14.6119L155.223 26.0345ZM169.328 33.298L173.395 12.796H188.268L187.368 17.3943H176.793L178.304 16.1056L174.992 33.298H169.328Z" fill="white"/>
<path d="M72.6256 12.8875H78.2903L74.2234 33.3894H68.5586L72.6256 12.8875Z" fill="#3D76CA"/>
<path d="M55.4859 12.8875H61.1507L58.9723 25.9209L72.6882 12.924L71.1731 21.2347L57.0837 33.3894H51.4189L55.4859 12.8875Z" fill="#3D76CA"/>
<path d="M45.3181 12.8875H50.9828L46.9159 33.3894H41.251L45.3181 12.8875Z" fill="#3D76CA"/>
<path d="M35.4411 12.8875H41.1059L37.0389 33.3894H31.374L35.4411 12.8875Z" fill="#3D76CA"/>
<path d="M25.2741 12.8875H30.9389L26.8718 33.3894H21.207L25.2741 12.8875Z" fill="#3D76CA"/>
<path d="M98.19 12.8875H103.855L99.7878 33.3894H94.123L98.19 12.8875Z" fill="#3D76CA"/>
<path d="M81.0504 12.8875H86.7151L84.9724 21.9669H96.4468L95.5755 26.5067H83.9556L82.6482 33.3894H76.9834L81.0504 12.8875Z" fill="#3D76CA"/>
<path d="M22.6588 0.73291H185.34C197.454 0.73291 207.273 10.6332 207.273 22.8457C207.273 35.0583 197.454 44.9586 185.34 44.9586H22.6588C10.5456 44.9586 0.725861 35.0583 0.725861 22.8457C0.725861 10.6332 10.5456 0.73291 22.6588 0.73291Z" stroke="url(#paint0_linear_178_2936)" stroke-width="1.45252"/>
<path d="M22.514 5.56519H185.486C195.193 5.56519 203.062 13.4985 203.062 23.2847C203.062 33.071 195.193 41.0043 185.486 41.0043H22.514C12.8074 41.0043 4.9386 33.071 4.9386 23.2847C4.9386 13.4985 12.8074 5.56519 22.514 5.56519Z" stroke="url(#paint1_linear_178_2936)" stroke-width="2.90503"/>
</g>
<defs>
<linearGradient id="paint0_linear_178_2936" x1="206.547" y1="22.8457" x2="-1.45282" y2="22.8457" gradientUnits="userSpaceOnUse">
<stop stop-color="white"/>
<stop offset="1" stop-color="#3D76CB"/>
</linearGradient>
<linearGradient id="paint1_linear_178_2936" x1="201.609" y1="23.2847" x2="0.581241" y2="23.2847" gradientUnits="userSpaceOnUse">
<stop stop-color="white"/>
<stop offset="1" stop-color="#3D76CB"/>
</linearGradient>
<clipPath id="clip0_178_2936">
<rect width="208" height="46" fill="white"/>
</clipPath>
</defs>
</svg>
