<svg width="128" height="28" viewBox="0 0 128 28" fill="none" xmlns="http://www.w3.org/2000/svg">
<g clip-path="url(#clip0_173_3087)">
<path d="M67.3072 20.2681L69.3629 9.80319L69.9886 10.5876H65.4302L65.9843 7.78865H77.1396L76.5854 10.5876H71.9194L72.8489 9.80319L70.7932 20.2681H67.3072ZM82.7619 20.5177C81.4748 20.5177 80.3665 20.2859 79.437 19.8224C78.5074 19.347 77.7922 18.6993 77.2915 17.8792C76.7911 17.0591 76.5408 16.1083 76.5408 15.0267C76.5408 13.9333 76.7316 12.9349 77.1129 12.0317C77.4941 11.1165 78.0306 10.3261 78.7218 9.66056C79.413 8.98312 80.2355 8.46015 81.1888 8.09173C82.1541 7.72329 83.209 7.53906 84.353 7.53906C85.6401 7.53906 86.7486 7.77676 87.6782 8.25218C88.6078 8.71569 89.323 9.3575 89.8234 10.1776C90.3241 10.9976 90.5743 11.9485 90.5743 13.03C90.5743 14.1235 90.3836 15.1277 90.0023 16.0429C89.6208 16.9462 89.0846 17.7366 88.3934 18.414C87.7022 19.0796 86.8739 19.5966 85.9085 19.965C84.955 20.3335 83.9062 20.5177 82.7619 20.5177ZM83.0658 17.5939C83.6857 17.5939 84.2338 17.481 84.7106 17.2552C85.1992 17.0294 85.6104 16.7144 85.944 16.3103C86.2898 15.8943 86.5521 15.4249 86.7308 14.9019C86.9094 14.379 86.9989 13.8263 86.9989 13.244C86.9989 12.6854 86.8797 12.1981 86.6413 11.7821C86.415 11.3661 86.0811 11.0452 85.6401 10.8194C85.2113 10.5817 84.6808 10.4628 84.0491 10.4628C83.4413 10.4628 82.8932 10.5757 82.4043 10.8016C81.9157 11.0274 81.4987 11.3483 81.153 11.7642C80.8194 12.1683 80.5631 12.6319 80.3844 13.1548C80.2055 13.6778 80.1163 14.2304 80.1163 14.8128C80.1163 15.3595 80.2295 15.8468 80.456 16.2747C80.6941 16.6907 81.028 17.0175 81.4569 17.2552C81.8979 17.481 82.4344 17.5939 83.0658 17.5939ZM91.1059 20.2681L93.6086 7.78865H98.9001C100.521 7.78865 101.773 8.13925 102.654 8.84049C103.536 9.54172 103.977 10.5282 103.977 11.7999C103.977 12.8458 103.727 13.761 103.227 14.5454C102.726 15.3298 102.011 15.936 101.081 16.3638C100.151 16.7917 99.0551 17.0056 97.7919 17.0056H93.7336L95.6106 15.4368L94.6453 20.2681H91.1059ZM95.5215 15.8468L94.288 14.2245H97.9526C98.7272 14.2245 99.3293 14.0403 99.7581 13.6718C100.187 13.3034 100.402 12.7804 100.402 12.103C100.402 11.58 100.229 11.1937 99.8834 10.9442C99.5376 10.6946 99.0551 10.5698 98.4355 10.5698H95.0386L96.9157 8.89396L95.5215 15.8468ZM104.202 20.2681L106.704 7.78865H115.857L115.303 10.5876H108.796L109.725 9.80319L107.688 20.2681H104.202Z" fill="white"/>
<path d="M44.6927 7.84424H48.1787L45.6759 20.3237H42.1899L44.6927 7.84424Z" fill="#3D76CA"/>
<path d="M34.1453 7.84424H37.6313L36.2908 15.7776L44.7313 7.8665L43.799 12.9252L35.1286 20.3237H31.6426L34.1453 7.84424Z" fill="#3D76CA"/>
<path d="M27.8886 7.84424H31.3746L28.8718 20.3237H25.3857L27.8886 7.84424Z" fill="#3D76CA"/>
<path d="M21.8099 7.84424H25.296L22.7932 20.3237H19.3071L21.8099 7.84424Z" fill="#3D76CA"/>
<path d="M15.5531 7.84424H19.0391L16.5363 20.3237H13.0503L15.5531 7.84424Z" fill="#3D76CA"/>
<path d="M60.4246 7.84424H63.9106L61.4079 20.3237H57.9219L60.4246 7.84424Z" fill="#3D76CA"/>
<path d="M49.8773 7.84424H53.3633L52.2908 13.3709H59.352L58.8158 16.1342H51.6651L50.8605 20.3237H47.3745L49.8773 7.84424Z" fill="#3D76CA"/>
<path d="M13.9442 0.445679H114.056C121.51 0.445679 127.553 6.47192 127.553 13.9057C127.553 21.3394 121.51 27.3656 114.056 27.3656H13.9442C6.48992 27.3656 0.447021 21.3394 0.447021 13.9057C0.447021 6.47192 6.48992 0.445679 13.9442 0.445679Z" stroke="url(#paint0_linear_173_3087)" stroke-width="0.668543"/>
<path d="M13.8548 3.38733H114.145C120.119 3.38733 124.961 8.2163 124.961 14.1731C124.961 20.13 120.119 24.959 114.145 24.959H13.8548C7.88147 24.959 3.03915 20.13 3.03915 14.1731C3.03915 8.2163 7.88147 3.38733 13.8548 3.38733Z" stroke="url(#paint1_linear_173_3087)" stroke-width="1.33708"/>
</g>
<defs>
<linearGradient id="paint0_linear_173_3087" x1="127.106" y1="13.9057" x2="-0.893711" y2="13.9057" gradientUnits="userSpaceOnUse">
<stop stop-color="white"/>
<stop offset="1" stop-color="#3D76CB"/>
</linearGradient>
<linearGradient id="paint1_linear_173_3087" x1="124.067" y1="14.1731" x2="0.357688" y2="14.1731" gradientUnits="userSpaceOnUse">
<stop stop-color="white"/>
<stop offset="1" stop-color="#3D76CB"/>
</linearGradient>
<clipPath id="clip0_173_3087">
<rect width="128" height="28" fill="white"/>
</clipPath>
</defs>
</svg>
