<svg width="1019" height="583" fill="none" xmlns="http://www.w3.org/2000/svg"><path d="M640.354 148.078c25.883 13.332 40.726 41.981 35.441 68.276-3.077 15.199-13.136 30.623-27.35 41.843-5.04 3.995-7.615 5.474-11.351 6.644-2.217.724-2.289.705-1.881-.812.213-.794 3.113-3.193 6.594-5.437 11.729-7.472 19.928-16.273 25.043-26.903l2.525-5.053-.533-8.423c-.703-13.576-4.389-24.156-9.615-27.563-4.631-3.017-9.234-1.227-7.811 3.023 1.143 3.555-1.108 5.276-2.842 2.182-1.347-2.217.122-6.236 2.79-7.769 2.023-1.162 2.715-1.132 5.684-.03l3.293 1.343-2.209-1.905c-1.203-1.018-4.492-2.669-7.355-3.588-5-1.645-5.237-1.631-7.977-.117-3.606 2.133-4.208 4.371-2.802 10.705.732 3.059.875 5.419.371 6.136-.726.967-.963.981-2.776-.664-2.368-2.18-2.959-6.052-1.658-10.89.835-3.105 1.431-3.875 4.36-5.801 1.878-1.202 3.243-2.23 2.953-2.308-1.378-.368-8.24 1.438-10.52 2.687-4.231 2.431-5.699 5.289-6.514 12.656-.557 4.959-.945 6.403-1.904 7.076-1.622 1.115-2.763.733-3.84-1.334-2.399-4.665.206-12.328 6.012-17.434 2.479-2.279 4.516-3.206 8.649-4.115 5.284-1.143 5.448-1.177 13.278 1.223 6.834 2.056 8.333 2.843 11.098 5.283 5.867 5.359 8.748 12.861 11.45 29.989.332 1.946.404 1.965 1.104-.634.927-3.158 1.353-9.081 1.074-15.269-.969-18.368-11.928-36.307-29.477-47.956-6.595-4.392-18.492-7.567-25.227-6.811-9.658 1.214-18.313 6.798-22.893 14.862-4.226 7.617-3.383 11.712 3.973 18.473 7.178 6.56 9.271 13.232 5.209 16.482-1.477 1.153-2.701 1.368-5.207.854-4.812-.897-7.8-3.088-10.369-7.411-5.525-9.523-5.168-23.281.757-32.302 9.346-14.221 32.572-18.47 50.453-9.208Zm225.043 69.349c1.59 1.895 1.862 6.38.543 8.969-.529 1.097-1.991 2.487-3.167 3.102-1.913 1.038-2.459 1.046-3.861-.102-2.176-1.742-2.535-5.321-.768-6.397 1.176-.615 1.539-.518 2.791.9 1.807 1.953 2.504 1.675 3.32-1.359.797-2.96-.696-5.217-4.034-6.107-3.338-.891-6.716.684-11.918 5.565-5.995 5.521-8.849 9.48-14.7 20.535-6.093 11.377-11.268 19.052-16.664 24.655l-3.763 3.872 5.314-1.832c10.668-3.809 17.339-2.88 24.286 3.386 2.765 2.441 3.741 4.017 4.387 6.821 2.36 10.306-6.944 19.742-15.179 15.377-5.455-2.85-6.899-10.201-2.282-11.755 2.73-.897 6.048.066 7.072 2.042.531.916.553 2.857.145 4.374-.641 2.383-.501 2.73.936 2.881 2.492.278 6.158-3.233 7.129-6.844 2.234-8.305-5.814-16.258-16.149-15.998-5.56.142-7.138.804-35.365 15.252-20.032 10.288-26.353 12.394-57.219 19.016-26.404 5.646-31.857 5.971-55.95 3.023l-3.691-.443 7.533 4.952c9.768 6.477 21.873 16.984 32.148 27.931 29.377 31.295 50.54 47.16 70.488 52.794 13.873 3.935 21.351-8.543 9.465-15.818-2.273-1.38-3.758-1.931-4.764-1.658-.842.239-2.734.044-4.113-.324-2.104-.561-2.534-.986-2.223-2.141.68-2.528 3.229-2.467 8.921.369 5.673 2.907 7.994 4.687 9.636 7.835 2.472 4.685 1.641 8.642-2.77 12.032l-2.382 1.918 6.987-.534c3.813-.298 9.804-1.176 13.206-1.971 11.47-2.744 15.299-5.127 18.635-11.745 4.465-8.793.742-17.217-8.743-19.826-3.754-1.08-4.392-1.018-6.823.501-3.389 2.191-5.997 2.346-7.06.515-2.125-3.664 3.925-5.919 12.357-4.597 8.979 1.313 14.756 6.725 15.16 14.186.233 3.468-1.964 9.615-4.396 12.295-.911 1.072-1.381 1.953-1.163 2.011.725.194 14.876-8.181 23.867-14.141 9.746-6.454 10.696-7.671 11.361-14.77 1.276-13.127.895-14.312-9.275-25.077-2.059-2.175-2.221-4.463-.377-4.667 5.037-.513 11.56 8.194 12.35 16.532.23 2.616.065 8.145-.423 12.272-.488 4.126-.801 7.603-.748 7.695.053.091 2.483-.266 5.352-.816 4.186-.818 6.518-.815 11.075.169 6.7 1.402 9.93 3.27 18.279 10.685 10.36 9.189 13.3 10.98 20.971 13.105 6.095 1.627 7.387 1.74 11.026.931 5.943-1.278 12.024-5.382 17.542-11.727 3.938-4.522 5.043-6.317 6.596-10.934 1.572-4.689 1.665-5.902.975-8.253-.935-2.882-4.043-6.653-5.929-7.156-.581-.155-.248.63.864 1.701 2.165 2.358 2.545 4.705.821 6.489-2.301 2.482-7.698.577-8.513-3.046-.491-2.221 1.414-6.125 3.583-7.249 2.425-1.21 6.469-.053 8.378 2.391 4.175 5.295 4.237 11.426.072 19.68-7.611 14.997-21.113 22.694-34.987 19.919-7.299-1.484-11.361-3.729-20.252-11.443-7.507-6.493-11.163-9.094-11.435-8.083-.077.289.888 2.481 2.086 4.968 2.931 5.582 2.7 9.622-.72 13.663-2.975 3.541-4.19 4.3-8.241 5.773-7.696 2.59-15.049-3.32-13.16-10.634.855-3.177 2.337-4.639 5.318-5.314 3.383-.723 5.231-.075 6.718 2.49 1.01 1.74 1.086 2.612.321 3.723-1.231 1.684-3.917 2.128-5.135.874-.589-.699-.221-.91 1.458-1.081 2.482-.267 2.773-1.35.932-3.467-1.073-1.215-1.528-1.259-3.565-.332-5.156 2.107-4.346 10.373 1.096 11.825 2.467.659 7.33-.365 9.49-2.033 2.121-1.524 4.713-5.089 5.296-7.256 1.379-5.127-5.668-13.046-14.021-15.817-7.7-2.597-11.582-1.466-23.454 6.821-21.715 15.102-40.501 22.782-58.172 23.715-6 .334-16.01-.326-20.238-1.377-2.921-.702-2.921-.702 1.088 1.452 5.924 3.129 26.935 9.434 36.35 10.863 17.174 2.649 34.707 3.382 61.924 2.519 25.65-.816 30.401-.554 39.219 1.645 4.354 1.162 10.245 2.966 12.905 4.063 6.68 2.635 10.043 1.984 16.435-3.276 6.169-5.01 8.352-5.898 12.27-4.852 4.281 1.143 7.04 5.053 5.943 8.553-.772 2.58-2.951 4.321-4.063 3.25-.357-.405-.332-1.946.057-3.391.874-3.25-.076-6.367-2.108-6.909-3.337-.891-7.946 1.207-14.028 6.472-2.257 2.03-4.387 3.009-7.237 3.487-2.284.396-4.06.929-4.046 1.165.087.255 3.295 4.517 7.185 9.426 10.883 13.895 14.228 21.987 14.08 34.099-.067 9.503-4.781 15.753-10.731 14.164-4.861-1.297-8.773-8.147-6.158-10.932 1.967-2.106 4.338-2.248 6-.333 1.861 2.045 1.414 3.706-1.141 3.952-2.482.267-2.788 1.114-1.072 3.12 3.127 3.698 8.562 2.285 9.882-2.626.855-3.177.853-10.686-.027-15.797-1.396-8.113-7.591-20.061-14.334-27.666-2.861-3.24-14.788-12.384-15.524-11.961-.184.106 1.13 2.159 2.966 4.584 5.118 6.707 8.218 17.442 7.513 25.846-.25 2.952-.322 2.932-1.615-5.85-1.543-10.164-7.78-19.647-15.513-23.568-5.619-2.816-15.784-4.058-30.493-3.728-49.905 1.077-64.443-.095-89.499-7.557-19.019-5.618-28.653-10.279-43.4-20.795-9.776-7.021-15.354-12.303-27.872-26.48-9.869-11.303-18.328-19.753-20.142-20.238-.362-.096 1.014 2.593 3.125 6.02 4.787 7.935 8.426 16.956 16.738 41.853 9.441 28.218 14.719 38.373 23.542 45.759 7.673 6.46 14.866 7.761 18.291 3.412 2.161-2.829 2.164-6.311.012-11.608-2.047-5.113-1.851-6.995.858-6.659 2.346.239 5.297 5.748 5.336 9.938-.033 4.171-1.463 6.886-5.099 9.708-2.455 1.899-2.756 2.438-1.851 2.834 1.426.768 7.316-.602 10.569-2.287 3.713-1.951 6.799-5.616 8.419-9.905 1.354-3.587 1.339-3.823-.728-7.703-2.207-4.227-2.273-5.715-.433-6.772 3.127-1.797 7.037 3.039 6.64 8.274-.442 5.688-4.711 12.598-10.357 16.819-8.653 6.436-23.209 4.176-34.947-5.381-7.011-5.741-10.893-13.28-22.988-44.063-14.469-36.99-22.978-53.348-28.71-54.878-1.016-.272-1.984-.143-2.081.218-.311 1.156.913 6.436 4.255 18.009 15.844 55.005 36.361 92.062 66.096 119.426 6.53 6.078 14.247 12.085 19.909 15.609 13.002 8.037 35.984 8.754 44.507 1.353 3.012-2.524 4.717-8.571 3.889-13.591-.962-5.675.058-4.551 1.199 1.326.944 4.587.904 5.892-.319 9.281-1.834 5.083-5.771 8.444-11.922 10.208-6.481 1.831-11.382 1.839-19.843.045l-7.372-1.504 3.602 2.51c3.08 2.138 5.561 3.032 17.732 6.358 12.46 3.403 14.913 3.826 20.671 3.815 19.203.017 32.347-6.924 37.851-20.161 1.101-2.648 1.369-4.511 1.14-7.127-.696-6.377-5.631-10.868-9.316-8.446-2.909 1.855-2.681 5.631.294 6.425 1.161.31 1.292.113.799-.947-.632-1.408.245-2.644 1.768-2.238 1.306.349 1.449 2.709.123 3.594-1.346.956-4.776.118-5.626-1.347-.85-1.466.271-5.346 1.86-6.625.682-.514 2.512-.955 3.968-.876 10.997.459 12.433 15.936 2.566 27.466-12.226 14.23-42.759 16.142-68.908 4.364-16.71-7.556-27.328-14.338-41.319-26.509-27.512-24.063-47.776-57.723-63.999-106.405-2.465-7.315-6.508-19.462-9.026-26.868l-4.458-13.497-7.13-6.16c-17.152-14.873-33.166-21.547-56.306-23.698-1.819-.176-2.361-.476-2.166-1.198.524-1.95 2.861-2.255 12.615-1.509 7.862.55 13.493 1.589 29.156 5.228 19.693 4.56 34.012 6.834 41.667 6.71 9.696-.198 22.939-4.327 28.023-8.775 3.884-3.452 5.587-8.338 4.076-11.683-.825-1.846-1.565-2.276-6.282-3.534-5.151-1.375-5.277-1.486-5.009-3.35.594-3.944 7.785-4.656 11.589-1.164 6.14 5.509 4.921 15.246-2.473 20.471-5.955 4.215-6.27 4.518-3.173 3.41 5.078-1.818 14.645-8.475 18.433-12.727 2.916-3.324 3.929-5.067 4.881-8.605 1.379-5.128.956-8.182-1.87-12.419-2.667-3.963-5.743-5.248-13.73-5.91-10.156-.698-14.083-2.288-13.287-5.249.486-1.805 3.861-4.233 6.75-4.855 3.054-.655 11.417 1.5 15.547 4.072 6.871 4.234 10.846 11.719 9.89 18.74-.634 5.249.203 5.318 2.221.128 3.561-9.189 3.182-22.526-.804-28.234-2.918-4.184-7.744-7.64-15.269-10.887-6.819-2.981-10.838-5.679-11.532-7.722-1.202-3.339 3.515-7.576 7.971-7.083 1.437.151 4.445 1.109 6.597 2.07 6.346 3.01 10.522 7.143 14.859 14.725 6.077 10.369 6.989 17.965 3.842 29.664-2.967 10.741-8.521 19.244-17.799 27.139l-4.731 4.001 4.713-.754c19.217-2.921 49.925-16.474 62.332-27.327 7.25-6.425 11.237-11.707 21.22-28.006 11.69-19.172 19.391-27.566 25.929-28.452 3.542-.448 7.895.714 9.485 2.609Zm-397.522-89.604c10.64 6.4 17.877 20.248 17.777 33.918-.139 12.654-4.048 23.14-12.275 32.629-5.201 6.04-15.556 15.347-21.34 19.22-2.174 1.432-3.636 2.822-3.331 3.135.285.386 2.064.706 3.922.737 7.008.246 30.397 7.805 29.892 9.682-.194.722-.049.761-11.035-2.327-14.541-4.036-25.947-3.83-39.19.605-7.674 2.517-18.781 8.838-24.566 13.871-2.847 2.49-4.003 3.033-5.599 2.607-1.741-.465-1.9-.739-1.298-2.978.816-3.032 5.685-6.685 20.495-15.499 5.464-3.262 11.727-7.471 13.964-9.428 12.18-10.6 19.481-22.425 17.445-28.153-.906-2.409-5.198-6.108-8.172-6.902-5.223-1.394-12.781 1.851-14.933 6.383-1.944 4.047.096 10.627 3.269 10.391.547-.009 1.298-1.356 1.783-3.161.738-2.743 1.184-3.244 3.196-3.79 2.086-.526 2.429-.357 4.618 1.62 3.354 3.139 2.747 5.685-1.943 8.38-3.127 1.797-4.113 1.997-6.652 1.32-6.383-1.704-9.101-6.918-7.295-13.632 1.476-5.487 4.743-8.097 11.666-9.267 4.988-.913 10.699.689 13.545 3.693 4.904 5.178 3.89 13.574-2.829 23.233-6.215 8.942-6.757 9.803-6.313 10.464.193.438 3.498-1.156 7.307-3.466 16.596-9.963 27.483-23.849 25.945-33.159-.501-2.764-2.722-6.066-4.463-6.53-.218-.058-2.163.815-4.423 1.992-4.612 2.406-6.59 1.955-6.118-1.246.409-2.677 4.441-5.238 7.88-5.016 2.82.211 7.426 3.607 8.961 6.57.492 1.06.867 3.714.812 5.943l-.159 4.059 1.901-4.754c4.51-11.565 2.77-23.017-4.143-26.797-3.916-2.206-8.14-1.244-16.106 3.516-8.058 4.814-10.414 5.191-10.957 1.718-.515-3 1.2-5.328 5.981-8.076 6.253-3.592 11.255-4.269 17.106-2.32 3.569 1.184 5.173 2.154 7.014 4.271 4.682 5.428 4.805 3.526.309-4.329-4.655-8.129-8.477-11.548-14.768-13.305-4.497-1.2-5.518-1.163-13.946.688-11.993 2.68-15.33 1.789-13.893-3.553 1.185-4.405 7.645-7.323 16.332-7.248 5.137-.022 9.523 1.304 14.627 4.291Zm247.306 77.559c6.461 3.737 8.38 5.566 5.042 4.675-3.047-.814-6.469.053-14.642 3.833-4.076 1.854-8.713 3.48-10.209 3.546-2.845.169-7.32-1.412-10.453-3.642-1.765-1.246-1.746-1.318-.051-2.414 2.063-1.307 12.668-4.592 15.954-4.954 2.957-.294 2.426-1.21-.85-1.465-2.274-.22-9.244 1.403-15.895 3.576-2.473.81-2.473.81-1.306-.349 2.412-2.608 11.97-7.488 15.367-7.975 4.695-.682 9.663.799 17.043 5.169ZM560.743 169.83c10.465 5.037 13.383 19.05 5.85 28.262-2.921 3.632-4.654 4.872-8.647 6.128-12.398 3.888-25.132-6.012-24.316-18.873.417-6.467 4.57-12.944 9.972-15.681 4.995-2.382 11.991-2.372 17.141.164Zm-12.54 4.701c-5.802 1.625-9.695 8.867-8.104 15.096 3.147 12.295 20.82 12.214 24.103.01 2.622-9.748-5.933-17.836-15.999-15.106Z" fill="#073137"/><path d="M559.209 179.868c4.843 4.543 2.056 14.325-4.399 15.775-7.423 1.579-13.571-4.474-11.648-11.622 1.923-7.149 10.614-9.396 16.047-4.153Zm-8.757 5.092c-.814.712-.916 1.381-.477 2.35.879 1.937 2.369 2.18 3.798.626 2.373-2.462-.822-5.327-3.321-2.976Zm52.554 23.919c10.064 3.925 19.611 12.665 24.531 22.414 4.761 9.474 6.276 23.5 3.576 33.537-1.515 5.633-5.983 13.573-10.589 18.844-17.18 19.639-47.725 21.316-66.996 3.634-7.986-7.317-12.656-15.684-14.701-26.291-1.473-7.823-1.265-12.643.891-20.659 2.156-8.015 4.395-12.293 9.597-18.335 13.432-15.531 34.651-20.702 53.691-13.144Zm-16.701 10.634c-14.045-.111-25.94 7.395-31.467 19.85-8.932 19.906 4.882 43.716 26.617 45.88 7.038.717 13.034-.469 19.375-3.807 10.862-5.691 17.472-16.388 17.527-28.446.07-6.328-1.044-10.572-4.226-16.375-5.675-10.415-16.496-17.018-27.826-17.102Z" fill="#073137"/><path d="M598.818 227.342c7.959 4.523 12.926 11.499 14.542 20.521.866 4.875.826 6.18-.728 11.957-1.553 5.776-2.174 6.927-5.371 10.717-12.821 14.998-35.626 13.632-45.992-2.757-13.492-21.247 4.9-47.992 29.651-43.166 2.525.442 6.003 1.68 7.898 2.728Zm-15.38 10.058c-8.71 1.158-14.852 8.96-13.423 17.236 2.101 12.712 17.689 17.492 26.48 8.229 3.71-3.963 4.983-10.434 3.174-15.561-2.548-6.716-9.293-10.839-16.231-9.904Zm215.868 27.833c1.479 2.021 3.5 8.676 2.484 8.405-.218-.059-1.431-1.621-2.73-3.439-1.228-1.798-2.949-3.496-3.747-3.709-1.234-.33-1.113.09.622 2.024 1.842 2.117 3.744 6.031 3.453 7.114-.039.145-1.805.06-3.842-.174l-3.764-.462-4.136-6.601c-2.29-3.63-4.643-6.736-5.296-6.91-.871-.232-.885-.469-.149-.891.552-.318 4.243.126 8.22.955 6.701 1.402 7.407 1.668 8.885 3.688Zm-301.165-68.579c5.806 4.723 6.493 13.729 1.5 19.284-2.562 2.877-4.639 3.948-8.51 4.462-9.914 1.301-17.26-7.238-14.598-17.131 2.447-9.098 14.057-12.655 21.608-6.615Zm-11.219-.209c-3.547.756-7.358 4.228-8.213 7.405-1.243 4.622 1.175 10.375 5.416 12.823 2.093 1.178 3.346 1.435 6.138 1.174 10.074-1.026 13.7-13.061 5.844-19.414-2.75-2.205-5.474-2.777-9.185-1.988Z" fill="#073137"/><path d="M492.972 205.181c1.594 2.747-1.564 6.393-4.756 5.541-2.104-.561-2.988-2.19-2.367-4.501.272-1.011.965-2.142 1.609-2.512.644-.37 1.974-.402 2.99-.13 1.016.271 2.152.961 2.524 1.602Zm45.382 10.037c3.751 3.401 3.876 9.007.138 12.498-5.313 5.006-14.351.736-14.135-6.714.18-6.453 9.096-10.11 13.997-5.784Zm-8.618 1.106c-3.422 2.027-4.291 4.968-2.451 8.246 2.922 5.036 10.098 4.088 11.594-1.472.505-1.878.327-3.241-.721-4.836-2.024-3.172-5.018-3.894-8.422-1.938Z" fill="#073137"/><path d="M534.208 221.386c.294.93-1.947 2.035-2.425 1.21-.232-.294-.275-1.002-.12-1.579.292-1.084 2.236-.797 2.545.369Zm269.647 65.178c4.469 1.89 7.214 4.402 8.382 7.578.907 2.409 2.717 16.204 2.329 17.648-.097.361-.812-.449-1.682-1.842-.83-1.537-3.291-3.665-6.158-5.436-5.338-3.282-7.537-5.804-8.312-9.571-.954-3.97-.849-6.96.166-6.689 1.306.349 7.755 5.862 8.856 7.549.478.824 1.107 1.379 1.383 1.221.919-.529-2.801-5.779-5.909-8.388-1.779-1.481-3.103-2.918-3.006-3.279.078-.289.208-.486.281-.467.126.111 1.789.865 3.67 1.676Zm-97.935-15.432c-4.071 1.545-6.967 4.796-10.976 12.471-5.738 10.929-10.459 14.312-20.614 14.775-2.753.117-5.104.185-5.322.127-1.741-.464 8.219-14.368 12.833-17.935l3.341-2.591-2.395.522c-4.554 1.029-9.88 5.799-14.982 13.492-3.978 5.826-4.388 5.329-1.841-2.117 5.478-16.029 9.806-18.82 30.939-19.913 6.072-.314 11.321-.461 11.684-.364.435.116-.761.803-2.667 1.533Zm75.202 27.921c5.367 6.927 4.951 11.072-2.174 22.246-3.72 5.739-3.832 5.864-3.568 3.149.098-1.521-.421-4.213-1.193-5.967-.773-1.754-2.143-4.751-3.022-6.687-.805-1.918-1.528-4.432-1.527-5.593.089-2.065 2.934-7.728 4.497-8.626 1.287-.74 2.75 2.204 4.247 8.485 1.036 4.532 1.355 5.081 1.821 3.348.563-2.093-.211-7.02-1.779-11.307-.487-1.368-.723-2.515-.539-2.62.184-.106 1.614 1.514 3.237 3.572Zm144.395 37.038c-.117.433-.412.664-.775.567-1.596-.426-5.374 4.37-7.89 9.966-3.84 8.494-5.031 10.033-9.46 12.334-4.152 2.141-9.04 3.545-9.518 2.721-.478-.824 4.867-9.999 7.613-12.981l2.654-2.929-3.205 2.086c-3.112 2.032-5.267 4.552-8.901 10.547l-1.817 2.998 1.336-5.835c1.69-7.442 3.948-10.631 9.494-13.33 4.85-2.42 20.74-7.155 20.469-6.144ZM531.412 233.512c5.169 2.463 4.922 1.933 3.408 7.565-1.457 5.415-1.939 13.566-1.097 17.66.545 2.312.453 2.365-1.08 1.414-15.804-9.171-32.156-11.678-47.6-7.443-15.097 4.096-27.146 13.338-35.426 27.069-4.405 7.414-7.784 19.977-7.657 28.756.036 7.67 2.082 17.116 5.157 23.895 2.597 5.955 8.504 14.342 12.008 17.212 1.349 1.056 2.369 2.18 2.31 2.396-.077.289-1.452.773-3.024 1.128-4.151.981-10.928 5.363-14.032 9.1l-2.64 3.165-4.358-5.188c-11.431-13.575-18.282-32.042-18.695-49.873-.798-39.524 27.06-73.721 66.114-81.327 12.134-2.333 21.31-2.05 34.3 1.107 5.842 1.405 11.355 2.876 12.312 3.364Zm119.429 36.755c5.282 5.512 1.446 14.859-6.324 15.416-4.123.293-6.56-1.054-8.844-4.992-1.435-2.472-1.598-3.599-.957-5.982 1.573-5.849 6.1-8.511 11.759-7 1.523.406 3.472 1.545 4.366 2.558Zm-10.605.11c-4.783 2.748-4.505 10.098.374 12.484 6.272 2.989 12.515-3.161 9.541-9.45-1.724-3.711-6.256-5.075-9.915-3.034Z" fill="#073137"/><path d="M645.473 276.342c.043.708-.422 1.28-1.153 1.395-1.514.137-2.616-1.55-1.671-2.459 1.036-.962 2.646-.3 2.824 1.064ZM418.397 209.69c1.629 1.751 4.575 7.569 4.303 8.581-.077.289-1.605-.971-3.379-2.761-1.92-1.828-4.352-3.484-5.803-3.871l-2.467-.659 2.857 2.389c3.631 2.982 6.806 7.081 6.065 7.812-.315.303-2.488.575-4.839.644l-4.283.018-5.801-6.194c-3.258-3.501-6.724-6.517-7.74-6.788l-1.867-.576 2.086-.527c3.277-.906 14.179-1.247 16.719-.569 1.306.348 3.183 1.469 4.149 2.501Zm-29.01 8.952c7.581 5.351 10.546 15.43 6.929 23.674-2.066 4.789-7.222 9.217-12.367 10.708-10.927 3.043-21.178-2.789-24.273-13.832-.892-3.333-.832-4.711.411-9.332 1.029-3.827 2.086-6.022 3.515-7.575 2.838-3.035 7.272-5.644 11.148-6.467 4.133-.909 11.306.464 14.637 2.824Zm-15.74 2.145c-5.261 1.923-8.642 5.82-9.566 10.99-1.226 6.871 1.966 13.218 8.271 16.371 4.86 2.458 13.343.698 17.387-3.64 2.32-2.554 4.107-9.197 3.413-12.401-2.09-8.994-11.219-14.372-19.505-11.32Z" fill="#073137"/><path d="M385.226 230.068c4.449 6.296-1.737 14.551-9.427 12.498-3.41-.91-6.26-5.927-5.308-9.465.932-3.466 2.957-5.79 5.681-6.378 3.62-.737 7.097.501 9.054 3.345Zm347.849 83.914c3.122 2.846 4.229 8.559 2.508 12.356-2.608 5.65-9.849 8.284-15.434 5.632-3.453-1.618-6.327-6.255-6.338-9.973-.053-9.92 11.873-14.941 19.264-8.015Zm-9.666-.49c-8.918 1.644-9.163 14.116-.384 16.46 2.829.755 3.797.626 6.464-.906 2.392-1.374 3.283-2.375 3.827-4.397.971-3.61.079-6.944-2.381-9.071-2.639-2.33-4.091-2.717-7.526-2.086Z" fill="#073137"/><path d="M727.304 320.413c1.594 2.747-1.713 5.502-4.009 3.341-1.866-1.736.179-5.292 2.573-4.653.436.116 1.064.671 1.436 1.312Zm-296.376-87.567c2.05 1.631 2.947 4.657 2.946 10.151.03 3.646-.776 7.223-1.297 5.691-.155-.583-2.755-3.057-5.81-5.575-4.51-3.758-5.457-4.862-5.354-6.692.001-1.161.046-2.774.023-3.554-.042-1.869 1.37-1.337 5.068 1.972 1.687 1.533 3.215 2.793 3.36 2.831.87.233-1.956-4.004-3.821-5.741l-2.19-1.977 2.539.678c1.379.367 3.439 1.382 4.536 2.216Zm347.071 109.381c-2.783.806-7.563 5.567-12.19 12.072-1.551 2.295-3.905 4.685-5.192 5.425-2.576 1.48-8.832 1.9-12.968.796l-2.757-.736 4.03-4.575c2.209-2.429 5.541-5.564 7.385-6.929 3.579-2.606 3.656-2.894.109-2.139-2.817.642-6.119 3.089-10.72 8.053l-3.487 3.713 1.872-5.228c1.014-2.903 2.823-6.445 3.995-7.912 2.437-2.988 6.992-5.177 10.911-5.292 4.374-.071 17.567.896 19.671 1.458l1.887.503-2.546.791Zm-158.697-39.622c14.115 13.13 21.262 34.538 16.926 50.945-2.218 8.539-6.62 13.631-13.984 16.154-8.225 2.834-15.71-3.73-10.573-9.245 2.15-2.212 6.152.249 5.356 3.209-.253.939-.93 1.145-2.163.816-2.103-.562-2.102-1.722-.017-2.249 1.335-.34 1.355-.412-.077-.871-2.393-.639-4.233 1.578-3.312 4.222 1.249 3.738 7.435 4.152 12.681.832 4.931-3.017 6.317-5.278 8.414-13.075 2.257-8.683 2.49-13.883 1.007-21.088-1.598-7.932-4.841-14.369-12.044-23.72-3.564-4.666-6.54-8.633-6.665-8.743a.453.453 0 0 1 .155-.578c.203-.178 2.199 1.361 4.296 3.391Zm-313.896-84.986c2.968 3.425 3.725 6.105 3.39 11.978-.389 6.942-2.448 14.6-7.475 27.505-5.371 13.897-5.78 16.575-4.012 25.332 1.868 9.248 5.742 16.245 11.27 20.275 5.6 4.051 18.13 7.783 36.139 10.81 15.318 2.618 27.162 6.012 33.425 9.62 2.002 1.231 3.792 2.096 3.903 1.971.184-.106-.434-1.277-1.395-2.618-.89-1.321-1.653-2.532-1.614-2.676.039-.145 2.037.234 4.398.709 4.122.869 4.519 1.129 7.409 4.843 1.677 2.151 4.849 5.398 7.097 7.16 3.704 3.002 3.989 3.388 3.107 4.933-1.561 2.913-2.326 2.864-6.934-.535-5.508-4.103-11.714-6.766-22.963-9.769-16.256-4.34-23.026-3.747-35.209 3.376-4.14 2.379-8.566 5.534-9.812 6.982-3.081 3.359-6.969 10.296-7.005 12.454-.035.998 1.565 3.438 3.909 5.999 4.225 4.535 5.147 7.182 3.605 10.022-1.202 2.157-4.178 2.524-8.455 1.072-2.699-.953-3.222-1.324-2.891-2.552.33-1.229.896-1.31 4.017-.477 3.12.833 3.687.752 4.254-.49.854-2.017-.576-4.799-4.236-8.254-2.495-2.292-3.06-3.372-2.778-5 .327-2.081-.022-1.942-7.958 2.985-4.567 2.807-10.246 5.705-12.536 6.41-5.02 1.602-14.417 1.261-18.96-.648-5.137-2.301-6.874-7.41-3.609-10.875 2.19-2.358 9.904-2.698 12.84-.598 1.494 1.095.46 4.071-1.607 4.526-2.086.527-3.672-.516-3.264-2.033.427-1.589-1.319-1.746-3.639-.352-2.799 1.731-3.008 3.378-.77 5.757 2.436 2.508 5.755 3.472 11.461 3.369 10.027-.265 17.387-4.495 30.326-17.61 5.207-5.192 10.923-10.247 13.63-11.925l4.75-2.913-6.84 1.426c-3.785.77-11.05 2.625-16.249 4.024-12.944 3.591-27.421 6.23-48.784 8.734-30.274 3.533-44.637 3.725-61.901.819-12.938-2.215-23.624-6.152-45.042-16.748a2711.316 2711.316 0 0 0-27.818-13.698c-18.583-8.987-37.203-21.314-51.17-33.87-8.206-7.378-12.786-10.304-18.519-11.835-4.354-1.162-5.612-1.111-13.768.583-7.9 1.608-9.487 1.726-13.26.719-5.589-1.492-8.374-3.861-10.044-8.643-1.689-4.71-1.395-8.116.906-10.599 2.674-3.002 10.249-3.69 10.532-.982.062.636-1.194 2.701-2.812 4.669-3.348 4.062-4.396 6.802-3.435 9.304.56 1.388 1.59 1.896 5.654 2.981 4.5 1.201 5.758 1.15 13.565-.405 9.69-1.904 15.26-1.501 20.914 1.479 1.843.957 3.454 1.619 3.638 1.513.184-.105-1.805-5.437-4.359-11.848-11.938-29.359-13.724-39.204-9.838-53.653 3.109-11.559 7.805-18.899 14.54-22.831 5.06-2.908 7.945-3.222 13.698-1.764 4.281 1.144 5.51 1.781 8.019 4.309 1.827 1.882 3.44 4.558 4.203 6.93 1.92 6.165.048 10.233-4.956 10.91-4.584.558-7.752-.675-9.579-3.718-1.86-3.207-1.757-3.876.819-5.357 1.564-.898 2.493-.883 4.428.021 3.473 1.547 4.945.701 4.265-2.268-1.103-4.863-5.382-8.328-10.933-8.803-6.189-.414-14.766 6.898-18.913 16.243-5.17 11.706-4.466 28.464 1.912 43.794 9.843 23.843 11.592 27.175 19.412 36.851 3.698 4.471 5.956 6.777 6.527 6.388.184-.106-.012-2.558-.493-5.397-.554-2.858-.917-7.291-.93-9.849.064-4.861 2.363-14.855 4.205-18.235 2.894-5.267 8.318-9.239 12.858-9.343 2.971-.059 8.602 2.141 9.036 3.419.174.511-.155.578-.75.186-1.746-1.317-8.197-1.336-11.334-.083-4.478 1.902-7.424 5.916-9.309 12.923-3.21 12.229-.238 25.179 7.551 32.369 9.96 9.24 30.825 21.314 55.195 31.924 18.454 8.024 36.146 13.676 37.324 11.9.242-.323-1.919-2.99-4.824-5.779-2.906-2.789-6.735-7.063-8.499-9.47-8.07-11.059-9.906-18.982-7.966-33.717 1.132-8.835.529-15.268-1.858-19.699-7.743-14.301-28.386-21.128-35.557-11.815-2.83 3.58-4.502 10.954-3.519 15.398 1.71 7.812 8.191 11.478 14.191 7.969 3.752-2.095 5.765-6.978 4.118-9.818-1.329-2.29-4.047-3.171-5.762-2.002-1.05.726-1.061 1.342-.24 3.497 1.187 3.104.611 3.802-1.618 1.968-1.707-1.462-1.951-4.315-.579-6.813 1.241-2.301 5.108-2.508 7.878-.375 9.483 7.255 1.49 21.072-10.451 18.039-4.519-1.129-7.516-3.865-9.39-8.469-1.906-4.768-1.966-7.726-.387-13.886 2.608-9.989 9.538-14.643 20.033-13.467 3.165.38 10.479 3.262 13.216 5.232 1.475 1.168-3.267-9.545-6.219-13.895-6.867-10.04-16.61-13.725-23.235-8.758-2.436 1.828-2.955 3.47-2.242 6.603.862 4.024 6.473 6.296 8.543 3.519 1.027-1.506-.075-3.194-1.672-2.459-.974.437-1.39.248-1.829-.721-.951-1.957.798-4.123 2.757-3.6 2.105.562 2.863 2.081 2.666 5.126-.368 5.708-8.454 5.408-11.454-.503-2.487-4.923.552-10.151 7.053-12.054 2.382-.758 4.24-.727 7.651.184 7.402 1.976 9.35 4.277 21.259 24.491 5.812 9.913 10.889 19.089 11.139 20.472l.579 2.478 1.211-1.613c7.23-9.529 15.254-15.362 22.911-16.647 8.171-1.458 15.223 1.818 12.388 5.707-1.158 1.704-2.469 1.664-9.843.16-8.627-1.761-14.315.591-21.084 8.695-2.548 3.114-3.397 4.823-5.616 12.206-4.16 13.446-3.597 21.185 1.969 30.568 4.841 8.029 14.248 17.586 22.079 22.309 5.484 3.323 17.933 6.491 28.254 7.156 21.916 1.515 48.052-1.961 83.741-11.171 16.545-4.255 27.663-6.552 31.452-6.469 4.646.078 1.986-1.019-6.661-2.708-17.127-3.411-31.446-9.169-36.744-14.92-4.868-5.326-8.122-13.473-12.551-31.999-2.015-8.126-3.352-10.961-6.954-14.633-2.33-2.325-3.685-3.074-7.676-4.139-5.225-1.395-7.674-.965-11.646 2.233-2.75 2.131-4.338 7.746-2.962 10.437 1.343 2.526 1.87 2.59 3.15.144 1.13-2.176 3.924-3.598 6.101-3.017 1.742.465 4.558 5.32 4.092 7.054-.525 1.951-4.108 3.704-7.461 3.738-3.427.015-7.3-2.646-8.574-6.005-1.26-3.124-.302-8.134 2.16-11.503 2.985-4.158 7.265-6.19 12.254-5.942 8.957.532 15.566 6.323 18.915 16.431l1.911 5.621 3.26-8.654c7.492-19.757 8.472-22.825 9.16-27.984.872-6.426-.239-12.994-2.468-14.828-2.805-2.298-5.732-2.692-7.582-1.018-2.146 1.905-1.945 4.049.296 4.105 2.26-.016 3.308 1.58 2.648 4.037-.661 2.456-2.37 3.316-5.292 2.613-2.85-.683-3.971-2.299-3.755-5.416.627-8.117 9.922-11.443 15.162-5.476Zm104.502 30.647c5.053 2.897 9.428 7.161 12.906 12.733l3 4.748-1.847 3.687c-1.091 2.031-2.415 4.928-3.113 6.367l-1.285 2.754-1.055-4.462c-1.277-5.372-2.566-7.806-5.925-11.798-3.61-4.215-9.127-7.7-14.497-9.133l-4.571-1.22 2.214-2.737c1.245-1.448 2.423-3.224 2.617-3.946.272-1.011.983-1.053 4.084-.148 2.104.561 5.45 1.996 7.472 3.155Zm154.686 51.473c4.066 1.936 7.001 2.875 11.344 3.492l5.832.861.025 3.953c.11 10.862-3.237 25.909-7.933 35.566-3.771 7.66-9.724 16.208-10.991 15.715-.507-.135-2.944-1.482-5.38-2.829-4.854-2.766-11.822-4.316-16.587-3.654-1.533.21-2.699.208-2.641-.008.039-.145 1.206-1.303 2.629-2.548 12.127-10.692 19.373-31.275 17.137-48.973-.423-3.054-.286-4.719.203-4.512.488.208 3.326 1.507 6.362 2.937Z" fill="#073137"/><path d="M610.55 312.557c13.025 7.656 18.824 23.675 13.672 37.623-.955 2.686-2.574 5.814-3.524 7.031-1.433 1.862-1.966 2.106-3.373 1.266-2.113-1.105-5.988-.282-7.935 1.752-1.206 1.303-1.439 2.17-1.369 4.51.118 2.74-.051 3.082-1.832 3.922-3.175 1.397-9.968 2.37-14.607 1.983-7.096-.501-16.955-5.764-21.091-11.202-1.053-1.287-.995-1.504 1.273-5.309 1.366-2.19 2.582-4.109 2.766-4.215.204-.178.919.632 1.648 1.678 3.797 6.121 12.597 10.405 20.347 9.92 12.472-.695 22.058-12.918 19.971-25.393-2.342-13.549-15.541-21.716-28.365-17.4l-3.663 1.189.161-2.046c.001-1.16.129-3.371.174-4.984.168-3.515 1.417-4.11 8.872-4.365 5.598-.285 12.311 1.352 16.875 4.04Zm-207.886-53.549c3.718 2.076 6.048 4.401 8.835 8.782 9.231 14.538.746 33.943-16.379 37.189-5.812 1.08-13.89-.689-18.787-4.163-9.776-7.021-13.333-20.972-7.899-31.054 2.612-4.798 5.208-7.51 9.754-10.244 7.048-4.233 17.363-4.421 24.476-.51Zm-14.822 8.272c-13.017 2.717-14.849 20.803-2.624 26.233 4.106 1.793 9.254 1.155 13.364-1.695 7.315-4.936 8.032-15.116 1.627-21.082-2.944-2.643-8.636-4.317-12.367-3.456Z" fill="#073137"/><path d="M365.973 253.464c.16.275 2.002 1.231 4.174 2.12l3.927 1.59-2.959 2.616c-4.232 3.592-6.166 7.023-8.089 14.172-1.457 5.416-1.516 6.794-.631 11.596 2.902 16.1 18.055 26.259 34.213 23.142 5.101-1.038 12.367-5.213 15.564-9.004 2.548-3.112 3.516-3.241 2.778-.497-.238 1.175-.541 4.035-.602 6.573-.125 4.224-.222 4.585-2.198 6.147-4.135 3.231-12.106 5.979-19.001 6.461-14.482.933-27.935-6.295-35.373-19.117-8.023-13.828-6.265-30.774 4.407-43.56 2.398-2.843 3.133-3.266 3.79-2.239Zm315.057 86.29c-.155.578-2.833 2.728-5.927 4.689-3.094 1.96-5.675 3.749-5.733 3.965-.253.939 3.687-.409 8.248-2.907 2.537-1.336 4.851-2.421 5.068-2.363.218.058-.645 1.531-1.967 3.268-3.091 3.974-7.652 6.473-11.441 6.39-3.604-.188-17.213-3.665-16.999-4.46.078-.289 1.361-.72 2.822-.95 1.718-.315 4.352-2.012 7.423-4.753 2.736-2.366 5.835-4.635 7.026-5.014 1.19-.379 4.287-.326 6.958.154 3.923.738 4.755 1.115 4.522 1.981Zm-77.862-16.245c3.883 2.043 5.941 4.217 7.95 8.314 2.288 4.79 2.416 8.074.538 13.609-4.158 12.279-19 16.289-28.769 7.8-1.905-1.592-4.045-4.33-4.711-5.901-1.12-2.775-1.134-3.011 1.237-8.647 1.256-3.225 2.843-7.677 3.464-9.988 1.03-3.827 1.272-4.149 4.394-5.638 3.175-1.397 9.745-2.119 12.173-1.317.634.247 2.297 1.001 3.724 1.768Zm-9.958 6.088c-7.34.981-10.831 9.336-6.546 15.665 1.598 2.439 2.517 3.072 5.492 3.866 8.052 2.149 14.828-5.407 11.919-13.381-1.621-4.38-5.934-6.846-10.865-6.15Zm261.906 62.954c.879.777 1.83 2.733 2.148 4.443.559 2.549.418 3.362-.891 5.335-3.963 6.062-13.246 4.436-14.787-2.554-.708-3.44.669-6.245 3.98-8.148 3.403-1.955 6.659-1.628 9.55.924Zm-6.207-.341c-.363-.097-1.481.301-2.493.883-4.231 2.43-3.3 9.954 1.489 11.232 2.684.717 6.784-1.517 7.484-4.116.913-3.394-1.889-8.012-4.734-7.843-.619-.01-1.384-.059-1.746-.156Z" fill="#073137"/><path d="M850.448 398.347a1.187 1.187 0 0 1-1.472.846c-.653-.174-.919-.632-.638-1.099.785-1.184 2.44-.974 2.11.253Zm36.922 20.694c1.831 1.572 3.686 3.924 4.333 5.567.94 2.573.847 3.786-.974 11.425-1.214 5.092-2.481 8.933-3.129 9.611-1.056 1.034-1.056 1.034-.759-.357.64-2.383-.755-5-5.383-10.336-4.701-5.356-5.338-7.615-3.901-12.958 1.476-5.487 2.274-5.274 6.509 1.815 3.153 5.33 3.796 6.12 3.86 4.435.055-1.069-1.311-4.374-2.938-7.284-3.221-5.658-2.722-6.066 2.382-1.918Zm-196.274-45.806c3.321 2.976 4.363 6.04 3.672 10.345-.731 4.448-2.668 7.027-6.526 8.938-4.371 2.084-8.497 1.524-12.122-1.765-4.22-3.68-5.103-6.47-3.704-11.669.854-3.177 1.644-4.669 3.194-5.803 5.132-4.048 11.054-4.093 15.486-.046Zm-9.172-.591c-3.232.453-6.762 3.458-7.559 6.419-1.748 6.498 2.673 12.322 9.306 12.235 8.709.003 12.43-11.232 5.58-16.698-2.571-2.002-3.95-2.37-7.327-1.956Z" fill="#073137"/><path d="M685.367 379.214c1.553.878 1.515 4.196-.014 5.259-2.508 1.807-6.395-1.088-5.057-3.75.698-1.438 3.572-2.297 5.071-1.509Zm152.092 40.567c-4.574 3.422-7.121 6.534-7.322 8.724-.171 1.502-.098 1.522 1.093-.017 2.102-2.612 7.063-6.317 9.904-7.339l2.603-1.007.06 2.956c.078 8.378.151 8.397-9.316 14.692-4.845 3.272-8.926 6.593-9.342 7.565l-.723 1.819-.36-2.417c-.634-4.58-.243-13.839.806-17.737.893-3.321 1.416-4.11 4.233-5.912 1.786-1.148 5.27-2.54 7.684-3.133l4.407-1.068-3.727 2.874ZM330.653 287.269c2.369 2.181 5.845 5.741 7.594 7.911l3.142 3.936-3.512-1.402c-3.149-1.306-4.243-1.288-13.11.448-8.702 1.703-10.033 1.735-13.148.594-3.386-1.291-8.521-5.914-8.132-7.358.233-.867 11.19-2.278 16.672-2.13l4.481.112-4.697-1.331c-3.556-.95-6.159-1.103-10.65-.598-3.287.361-6.06.55-6.113.458-.265-.458 9.286-3.869 13.09-4.712 6.128-1.384 9.301-.459 14.383 4.072Zm227.984 72.834c7.025 4.816 11.063 11.776 11.979 20.224.622 6.358-2.241 15.268-6.416 19.804-7.628 8.412-17.278 11.331-28.088 8.446-7.599-2.106-12.114-5.555-16.152-12.515-4.462-7.692-4.907-12.687-2.136-21.544 1.752-5.647 2.484-6.922 5.656-10.332 7.047-7.406 15.671-9.98 25.872-7.722 4.339.926 6.728 1.873 9.285 3.639Zm-19.361 4.043c-6.614 1.175-12.924 6.998-14.692 13.569-1.962 7.293 1.885 16.988 8.306 20.869 4.545 2.761 6.431 3.265 11.371 3.113 14.089-.342 22.881-16.26 15.834-28.512-4.356-7.509-11.736-10.717-20.819-9.039Z" fill="#073137"/><path d="M553.386 370.388c10.548 8.775 6.008 25.364-7.643 27.835-4.258.798-11.14-1.658-14.001-4.898-6.471-7.455-5.013-18.365 3.038-23.724 5.766-3.801 13.468-3.525 18.606.787Zm-12.912 4.061c-2.966.911-5.592 4.312-5.808 7.428-.436 5.378 5.326 10.554 10.373 9.424 3.33-.814 6.739-4.238 7.061-7.17.718-7.006-5.049-11.873-11.626-9.682Zm-251.227-83.936c-5.821.536-9.315 1.383-12.2 2.858-3.364 1.811-3.511 2.933-.132 1.358 2.846-1.33 15.8-2.362 16.365-1.282.743 1.282-3.166 6.276-6.09 7.894-2.353 1.23-4.617 1.554-10.264 1.441-8.268-.195-9.492.02-13.094 1.845-2.904 1.547-3.152 2.177 2.542-7.139 5.767-9.297 9.601-10.827 21.404-8.451l5.539 1.091-4.07.385Zm360.762 106.79c-1.359 5.054-2.918 6.804-6.885 7.68-3.382.722-3.444.087-.173-1.671 1.544-.826 2.836-1.874 2.972-2.379.136-.506-1.31-.041-3.222.997l-3.402 1.954.636-3.234c.56-2.946.913-3.394 3.536-4.473 1.577-.663 3.818-1.767 4.994-2.382 1.195-.686 2.26-1.176 2.405-1.137.218.058-.181 2.118-.861 4.645Zm-21.976-9.977c1.862.884 4.043 2.318 4.884 3.239 1.484 1.712 2.5 6.318 2.409 10.706l-.075 2.302-1.835-3.586c-.952-1.957-1.705-3.783-1.699-4.092.155-.577-3.108-3.771-4.051-4.022-.218-.058.376 1.493 1.346 3.378 1.623 3.22 3.094 7.87 2.803 8.953-.136.506-6.938-1.387-8.253-2.28-.595-.391-2.212-3.919-3.587-7.769-1.468-3.798-3.239-7.909-3.93-9.1l-1.314-2.054 4.987 1.409c2.738.808 6.506 2.124 8.315 2.916Zm-209.375-52.324c.198 1.291.487 2.529.554 2.857.067.327-1.123.706-2.584.935-7.742 1.029-12.899 9.792-10.124 17.111 1.361 3.614 5.91 7.227 9.634 7.834 4.107.632 9.165-1.114 11.635-3.937l1.933-2.271 2.034 2.556c1.962 2.536 1.942 2.608.276 4.175-5.772 5.27-11.206 6.683-18.316 4.786-6.022-1.608-9.169-4.073-11.975-9.543-2.24-4.39-2.556-8.421-1.138-13.693 1.53-5.396 6.053-10.071 11.715-12.042 4.913-1.785 5.73-1.644 6.356 1.232Zm291.247 76.833c-.059.217-2.111 2.067-4.565 3.966-2.474 1.97-4.788 4.216-5.239 5.024-2.903 5.88-2.594 7.046.679 2.967 1.172-1.467 4.44-4.077 7.329-5.859 6.001-3.815 6.074-3.795 5.398 5.078l-.388 5.777-8.277 5.916c-9.346 6.713-12.082 9.078-12.645 11.172-1.218 4.24-1.639-9.801-.591-18.033.911-6.566 2.563-9.53 6.817-12.341 2.817-1.801 11.753-4.678 11.482-3.667ZM208.719 282.143c2.665 1.95 6.731 5.048 9.013 6.974 4.009 3.315 4.062 3.406 1.575 2.82-3.522-.785-7.873.066-15.996 3.085-6.768 2.606-7.005 2.62-10.918 1.266-3.986-1.374-10.195-6.051-9.753-7.404.291-1.083 11.012-3.641 14.913-3.683 4.572.059 4.52-1.194-.095-1.961-2.545-.37-6.122-.086-10.328.804-3.639.809-6.49 1.287-6.412.998.31-1.156 8.668-6.202 11.983-7.252 5.001-1.53 9.427-.348 16.018 4.353Zm310.995 81.798c-.02.073-.993 1.67-2.098 3.465-2.825 4.431-4.331 10.607-4.046 16.487.045 2.721.063 4.97-.029 5.022-.368.212-14.954.962-15.462.826-.363-.097-.463-1.748-.248-3.703.62-5.484-.231-11.283-2.147-15.432-1.004-2.048-1.685-3.855-1.52-3.888.184-.106 2.607-.155 5.394-.108 2.786.047 8.152-.533 12.027-1.356 8.299-1.654 8.226-1.674 8.129-1.313Zm-212.163-55.845c6.126 4.111 4.52 14.131-2.643 16.476-2.729.896-7.576-.165-9.621-2.104-2.064-1.867-3.138-6.255-2.342-9.216.758-2.816 3.911-6.154 6.233-6.695 2.744-.661 6.067-.006 8.373 1.539Zm-7.151.567c-8.667 1.866-6.637 14.559 2.207 14.056 4.485-.196 7.892-5.633 6.081-9.599-1.737-3.947-4.32-5.332-8.288-4.457Z" fill="#073137"/><path d="M304.253 313.716c1.369.985-.024 4.715-1.756 4.795-3.135.091-4.69-2.8-2.612-5.032 1.075-1.106 2.696-1.06 4.368.237ZM481.16 358.35c6.74 4.431 11.117 10.707 12.812 18.28 1.089 4.625 1.021 5.458-.786 12.173-1.592 5.921-2.407 7.794-4.47 10.261-3.532 4.166-11.296 8.749-16.779 9.762-4.113.837-5.405.725-11.862-.999-6.747-1.801-7.506-2.158-10.986-5.409-4.81-4.379-7.959-10.018-9.022-16.184-.731-4.22-.633-5.741.882-11.374 1.593-5.921 2.102-6.946 5.352-10.645 6.926-7.825 16.581-11.053 26.71-8.814 3.231.708 6.544 1.979 8.149 2.949Zm-15.298 5.127c-4.538.104-12.211 4.635-14.406 8.46-2.138 3.609-3.397 10.316-2.617 13.775 2.996 13.724 20.63 19.282 30.828 9.699 5.201-4.881 7.246-12.771 5.002-19.175-2.831-8.263-9.803-12.987-18.807-12.759Z" fill="#073137"/><path d="M476.582 371.6c6.603 6.097 5.673 17.071-1.86 21.948-10.626 6.838-24.381-3.025-21.117-15.156.971-3.61 3.877-7.478 6.743-8.881 5.271-2.54 12.106-1.644 16.234 2.089Zm-11.27 7.208c-2.575 1.48-2.023 5.497.879 6.272 1.959.522 3.615-.429 4.139-2.378.525-1.95-.432-3.598-2.39-4.121-.871-.233-1.984-.143-2.628.227Zm-41.064-30.471c3.617 7.079 3.446 8.581-1.336 11.329-3.495 2.008-7.423 1.579-10.387-.992-4.65-4.105-4.876-10.202-.672-14.265 1.816-1.837 6.065-3.18 8.169-2.618.58.155 2.425 3.124 4.226 6.546Zm-7.868 2.079c-.583 2.166 1.394 3.777 3.234 2.72 1.36-.72 1.476-1.154.931-2.305-.898-1.865-3.699-2.148-4.165-.415Zm-38.097-16.002c6.165 3.968 10.595 10.336 12.189 17.417.901 3.878.808 5.091-.843 11.229-1.651 6.138-2.179 7.235-4.906 10.145-3.841 4.161-9.083 7.173-14.624 8.403-3.896.895-5.187.782-11.282-.845-6.457-1.723-7.143-2.061-10.802-5.514-4.341-4.1-6.693-8.365-7.959-14.353-.727-3.367-.61-4.961.964-10.81 2.136-7.943 4.617-11.383 11.186-15.28 6.017-3.579 11.606-4.409 18.556-2.786 3.231.708 6.602 1.762 7.521 2.394Zm-13.899 4.262c-4.301.09-11.935 4.477-14.164 8.138-7.734 12.564 1.245 28.04 16.044 27.656 4.302-.09 11.936-4.476 14.165-8.138 2.379-3.931 3.263-7.797 2.532-12.017-.793-4.855-2.74-8.316-6.549-11.5-3.558-2.962-7.18-4.238-12.028-4.139Z" fill="#073137"/><path d="M372.567 342.951c9.081 4.977 10.897 17.304 3.507 24.541-4.76 4.689-12.541 5.863-18.063 2.686-9.221-5.325-10.936-17.16-3.546-24.397 4.668-4.636 12.541-5.863 18.102-2.83Zm-11.279 6.663c-2.576 1.48-3.283 2.375-3.943 4.83-.661 2.455-.497 3.582.99 6.146 1.488 2.564 2.387 3.269 4.854 3.927 2.466.659 3.599.496 6.174-.983 2.575-1.48 3.282-2.375 3.943-4.83.66-2.455.497-3.582-.991-6.146-1.487-2.564-2.386-3.269-4.853-3.927-2.467-.658-3.599-.496-6.174.983Zm285.565 60.598c12.101 5.32 13.997 20.534 2.568 20.811-2.444.122-3.295-.183-5.379-1.977-1.938-1.756-2.344-2.561-1.964-4.55.282-1.627 1.014-2.903 2.045-3.556 3.278-2.067 7.291.939 4.787 3.6-1.318 1.428-2.339 1.465-2.754.116-.101-.491-.749-.974-1.329-1.129-1.596-.426-1.952 2.343-.469 4.055 3.253 3.81 9.249 2.624 10.512-2.071 1.573-5.85-3.202-11.227-11.89-13.623-9.994-2.745-18.13.037-31.026 10.683-3.491 2.861-8.451 7.42-11.139 10.186-2.688 2.765-5.201 4.881-5.583 4.856-.363-.096-.88-.776-1.068-1.523-.502-1.605 5.438-9.231 11.448-14.516 4.94-4.487 15.465-10.656 20.905-12.378 6.447-1.994 14.421-1.569 20.336 1.016Zm-68.6-13.061c9.556 8.123 13.431 18.29 12.126 32.104l-.211 2.808-2.069-1.559c-1.547-1.187-2.146-2.43-2.182-4.607-.141-4.681-1.071-7.87-3.187-10.989-2.773-4.145-5.805-5.883-13.23-7.478l-6.389-1.396 3.041-3.213c1.652-1.803 3.633-4.834 4.467-6.779.834-1.944 1.716-3.489 1.934-3.431.29.078 2.843 2.152 5.7 4.54Zm-332.8-87.242c4.067 1.937 6.662 4.719 7.898 8.222.989 2.973 1.689 13.377.862 13.853-.204.178-.937-1.721-1.588-4.217-1.181-4.572-5.079-11.185-6.965-11.689-.508-.135-.161.886.801 2.227 1.565 2.275 5.462 14.384 5.093 15.756-.233.866-4.581-.604-7.356-2.428-3.656-2.601-4.573-4.394-6.113-12.545-1.305-7.005-2.478-9.872-5.204-12.458-.986-.959-.149-.891 4.204.271 2.956.866 6.796 2.201 8.368 3.008Zm550.55 153.251c-2.589 5.578-5.733 10.62-7.602 12.366-2.499 2.351-6.612 3.188-10.384 2.181l-2.738-.808 2.908-.694c7.573-1.848 9.729-4.369 2.417-2.915-5.777 1.244-6.846.881-5.469-1.924 2.016-4.028 5.201-6.041 10.824-6.708 2.883-.314 6.58-1.339 8.216-2.218l2.924-1.619-1.096 2.339ZM65.899 271.67c3.717 3.236 3.764 9.131.079 12.713-1.908 1.89-6.007 2.963-8.619 2.266-3.99-1.065-7.444-7.017-6.356-11.061.272-1.011 1.522-2.767 2.834-3.887 3.956-3.433 8.165-3.471 12.062-.031Zm-7.46-.598c-2.981.674-4.463 2.136-5.318 5.314-.854 3.177.16 5.769 2.934 7.593 2.723 1.733 5.403 1.597 8.318-.566 2.619-1.932 3.396-4.82 2.097-7.798-1.737-3.947-4.228-5.386-8.031-4.543Z" fill="#073137"/><path d="M62.351 276.759c1.265 2.814-2.516 5.597-4.628 3.331-2.04-2.247-.16-5.77 2.743-4.995.725.193 1.533.951 1.885 1.664Zm107.4 24.754c1.594 2.748 1.69 3.547.835 6.725-.758 2.816-1.542 3.999-3.387 5.364-4.846 3.273-10.747 2.085-13.616-2.86-2.85-5.017-.972-10.553 4.444-13.054 2.038-.927 3.46-1.012 6.29-.256 3.192.852 3.84 1.334 5.434 4.081Zm-10.7-1.849c-2.033.618-4.038 2.869-4.698 5.324-.214.794.461 2.91 1.471 4.649 1.7 2.931 2.222 3.302 4.713 3.58 3.638.352 6.843-1.733 7.756-5.127.913-3.394.33-5.562-2.117-7.453-2.175-1.742-3.975-1.99-7.125-.973Z" fill="#073137"/><path d="M163.036 305.371c.763 1.21-.206 2.499-1.584 2.131-.943-.251-1.315-.892-1.063-1.831.369-1.372 1.976-1.563 2.647-.3Zm351.04 89.711c6.256 5.075 6.958 14.318 1.538 20.301-4.509 4.911-13.731 5.081-18.99.349-10.412-9.28-.593-26.704 12.863-22.958 1.432.459 3.492 1.474 4.589 2.308Zm-9.338.604c-4.345.543-7.671 3.37-8.72 7.269-1.632 6.066 1.304 11.338 7.181 12.907 5.514 1.472 11.091-1.916 12.553-7.64.937-3.774-.206-7.33-3.295-10.012-2.944-2.643-4.23-3.064-7.719-2.524Z" fill="#073137"/><path d="M508.552 402.894c3.036 2.591-.027 8.197-3.945 7.151-3.192-.852-3.971-5.471-1.333-7.476 1.825-1.293 3.591-1.208 5.278.325Zm234.304 62.928c-7.502 4.188-8.162 6.643-.665 2.763 7.351-3.919 8.183-3.542 6.136 2.334-.917 2.541-2.269 4.966-2.952 5.48-.682.515-4.094 1.926-7.592 3.081-3.426 1.175-6.843 2.894-7.622 3.769-1.153 1.395-1.318 1.429-1.423.085-.307-2.326 2.518-12.251 4.107-14.69 2.093-3.156 4.852-4.741 9.583-5.567 6.285-1.109 6.366-.545.428 2.745ZM629.222 439.94c2.86 4.402 6.049 8.737 7.021 9.461 1.726 1.39 1.634 1.443-3.829 1.223-13.238-.514-17.601-2.221-20.262-7.654-1.517-3.036-3.3-9.706-2.575-9.512.218.058 1.789 2.026 3.48 4.413 3.064 4.224 5.491 6.187 7.388 6.075.546-.009-.27-1.311-1.793-2.879-2.707-2.658-6.108-8.52-5.777-9.748.097-.361 1.611-.499 3.358-.342 1.8.248 4.219.507 5.511.62 1.964.214 2.859 1.227 7.478 8.343Zm-91.838-23.022c2.739 3.983 3.446 8.584 1.989 14.001-2.234 8.307-8.966 14.251-18.089 16.074-7.55 1.468-12.79.998-18.74-1.751-10.94-5.011-18.583-12.16-25.318-23.557-2.463-4.142-4.488-7.314-4.546-7.097-.291 1.083 6.31 14.999 9.223 19.493 6.073 9.517 14.625 17.916 23.915 23.569 9.923 5.901 23.847 9.075 39.922 8.876 7.326-.057 10.795.637 10.406 2.082-.349 1.3-17.664 2.639-24.869 1.954-22.102-2.261-45.696-17.772-56.757-37.368-3.681-6.557-8.721-19.05-8.293-20.639.155-.577 1.53-1.062 3.098-1.108l2.845-.169 5.459 9.198c4.855 8.263 6.141 9.845 12.32 15.21 6.681 5.81 7.097 5.998 13.193 7.625 5.732 1.53 6.569 1.599 8.666.455 3.089-1.652 3.521-3.55 1.244-5.783-1.972-1.92-2.072-3.572-.156-3.758 1.771-.224 4.038 2.626 4.036 4.948-.047 2.775-2.071 5.099-5.203 6.043-3.296.978-2.029 1.471 3.531 1.33 5.415-.18 10.232-2.765 11.106-6.016.933-3.466-.105-5.679-4.394-9.688-3.857-3.584-4.455-5.989-1.537-6.139 3.702-.173 9.119 7.156 8.911 11.978-.093 1.214-.748 3.361-1.572 4.69-1.183 2.084-1.261 2.373-.196 1.883 2.295-1.013 6.932-6.975 7.67-9.72.971-3.611.272-6.507-2.814-12.673-2.791-5.235-2.82-5.707-1.164-6.658 1.748-1.005 4.19.034 6.114 2.715Z" fill="#073137"/><path d="M585.519 431.188c10.526 6.834 13.646 21.83 6.597 31.558l-2.107 2.92-4.208-1.123c-2.269-.528-4.044-1.156-3.84-1.334 5.98-5.756 7.96-11.961 5.692-17.984-4.863-13.14-23.475-13.619-28.645-.758-3.652 9.241 2.564 19.956 12.094 20.951l2.801.284-2.044 2.395c-1.187 1.231-2.47 2.823-2.81 3.507-.673 1.058-1.273.976-4.078-.16-7.452-3.227-13.077-10.069-14.245-17.578-.884-5.964 1.233-13.835 4.948-18.106 3.289-3.843 8.512-6.783 13.52-7.768 4.66-.846 12.341.663 16.325 3.196ZM119.682 310.947c-5.855.373-13.342 2.476-15.395 4.328-1.535 1.37-1.371 1.337 2.366.167 4.23-1.271 17.183-2.302 17.714-1.387.425.733-3.48 6.579-5.475 8.214-2.199 1.812-6.694 2.625-13.376 2.312-7.992-.353-10.092-.062-13.825 1.96l-3.272 1.758 3.32-5.693c8.18-14.225 11.947-16.083 26.401-13.154l6.284 1.213-4.742.282Zm18.716 5.937c1.136.69 2.427 1.964 2.958 2.879 1.004 2.048 1.583 8.859 1.167 14.165l-.357 3.929-1.266-1.654c-.749-.973-3.243-3.264-5.689-5.156-2.466-1.819-4.907-4.018-5.405-4.77-.855-1.157-1.714-7.5-1.268-9.161.292-1.083 2.695.1 5.402 2.757 3.189 3.173 3.407 3.232 2.877 1.155-.222-.91-1.72-2.858-3.334-4.372l-2.944-2.643 2.902.774c1.577.498 3.821 1.407 4.957 2.097Zm112.382 32.274c4.759 1.967 7.665 4.755 8.967 8.586.975 2.738 2.069 16.886 1.406 17.329-.184.105-.721-.502-1.199-1.327-1.879-3.133-4.694-4.814-13.279-7.879-9.292-3.332-12.31-4.835-14.582-7.376-1.61-1.823-3.012-7.307-2.391-9.618.408-1.517.626-1.459 4.428.021 6.951 2.784 14.302 6.681 16.327 8.693 1.953 1.992 2.026 2.011 1.471.315-.757-2.679-6.298-6.945-12.378-9.497-7.11-3.059-7.999-4.38-1.831-2.734 2.612.698 5.698 1.367 6.898 1.532 1.2.166 3.938.974 6.163 1.955Z" fill="#073137"/><path d="M581.906 442.607c4.02 4.711 3.752 12.069-.664 15.767-3.753 3.255-6.681 4.021-11.034 2.859-4.353-1.162-6.523-3.212-8.173-8.063-2.089-5.821 2.684-13.447 8.819-14.286 4.2-.582 8.621.908 11.052 3.723Zm-11.237 7.372c-.301 1.7.056 2.105 1.87 2.589 1.741.465 2.346.239 2.86-1.094.985-2.214-.619-4.345-2.85-3.857-1.079.254-1.675 1.024-1.88 2.362Zm224.582 49.571c-.038.144-2.018.854-4.307 1.559-5.492 1.629-5.881 3.074-.524 1.949 5.85-1.224 6.754-.828 5.353 2.358-1.833 3.922-4.335 5.421-10.378 6.207-3.049.347-6.339 1.017-7.259 1.545-1.708.86-1.761.768-.011-3.717 1.979-5.044 5.287-8.96 8.641-10.154 1.98-.71 8.699-.542 8.485.253Zm10.91 6.323c2.111 2.266 2.673 6.826 1.372 11.664-1.185 4.404-2.802 6.371-2.94 3.703.016-.924-1.153-2.939-2.404-4.356-2.629-2.946-3.685-6.245-2.928-9.061.719-2.672 2.03-2.631 4.204.271 2.497 3.142 2.686 2.729.678-1.367-1.656-3.382-.775-3.766 2.018-.854Zm-217.02-38.357c3.96 2.914 5.604 8.074 4.264 13.057-2.855 10.615-16.442 12.561-21.914 3.128-2.444-4.212-2.604-8.821-.467-12.43 1.856-3.142 3.11-4.046 7.234-5.499 3.518-1.228 7.842-.538 10.883 1.744Zm-10.514 1.218c-1.631.571-3.659 2.042-4.667 3.475-1.584 2.132-1.798 2.926-1.535 5.705.735 10.567 15.557 12.124 18.296 1.942 1.981-7.365-4.82-13.592-12.094-11.122Z" fill="#073137"/><path d="M584.467 475.633c.85 1.465.059 4.117-1.539 4.852-1.689.787-3.459-.149-4.134-2.264-1.129-3.32 3.92-5.61 5.673-2.588Z" fill="#073137"/><path d="m535.411 318.106 1.028-.128h6.525v-1.696h-6.32v-5.318l-1.092-.514c-.034 0-.068.116-.102.347-.026.231-.039.63-.039 1.195v6.114Zm0-8.934h7.566v-5.588c0-.805-.163-1.391-.488-1.76-.317-.368-.702-.552-1.156-.552h-.386c-.351 0-.642.077-.873.231-.223.146-.381.304-.475.475a1.752 1.752 0 0 0-.63-.899c-.291-.222-.676-.334-1.156-.334h-.231c-.257 0-.514.03-.771.09s-.492.176-.706.347c-.206.163-.373.398-.501.707-.129.299-.193.693-.193 1.181v6.102Zm4.534-1.696v-3.622c-.008-.3.065-.522.219-.668a.87.87 0 0 1 .604-.218h.128c.197 0 .385.068.565.205.189.137.283.394.283.771v3.532h-1.799Zm-3.301 0v-4.046c0-.325.082-.569.244-.732.163-.171.386-.257.668-.257h.231c.266 0 .48.098.643.295.171.197.257.523.257.977v3.763h-2.043Zm-51.393 12.833c0 2.976.131 5.163.394 6.563.262 1.4.569 2.1.919 2.1l5.709-2.625c-.175-1.006-.35-3.5-.525-7.481-.131-4.026-.197-9.538-.197-16.539v-1.247c0-1.881.328-3.216.985-4.003.7-.788 1.859-1.181 3.478-1.181h1.313c1.531 0 2.625.328 3.281.984.656.613.985 2.013.985 4.2v15.226c0 4.419.809 7.635 2.428 9.648 1.662 2.012 4.353 3.018 8.072 3.018h1.05c1.925 0 3.697-.35 5.316-1.05 1.619-.743 2.91-1.99 3.872-3.74 1.006-1.751 1.51-4.157 1.51-7.22v-17.851c0-2.975-.153-5.381-.46-7.219-.306-1.837-.634-2.756-.984-2.756l-5.513 1.312c.131 1.138.263 3.719.394 7.745.175 4.025.262 9.428.262 16.21l.066.722c0 2.012-.416 3.369-1.247 4.069-.788.7-1.794 1.072-3.019 1.115h-1.116c-1.443 0-2.537-.393-3.281-1.181-.7-.831-1.05-2.187-1.05-4.069V300.49c0-2.801-.285-5.185-.853-7.154-.569-1.969-1.619-3.478-3.15-4.528-1.488-1.05-3.698-1.575-6.629-1.575h-1.05c-3.281 0-5.928.853-7.941 2.559-2.013 1.663-3.019 4.572-3.019 8.729v21.788Zm-10.367-27.636H463.63l4.634 15.744 6.62-15.744Zm-11.253 31.486h11.254l-4.634-15.744-6.62 15.744Z" fill="#073137" fill-opacity=".7"/><path d="M539.677 321.949c-.805 7.964-4.798 15.385-11.224 20.862-6.427 5.477-14.843 8.631-23.659 8.867-8.815.235-17.421-2.464-24.192-7.589-6.771-5.124-11.239-12.319-12.559-20.227l2.738-.376c1.22 7.301 5.344 13.944 11.596 18.675 6.251 4.731 14.197 7.224 22.336 7.006 8.139-.217 15.909-3.129 21.842-8.186 5.934-5.057 9.62-11.909 10.363-19.261l2.759.229Zm.035-25.224c-.692-7.874-4.501-15.256-10.725-20.783-6.224-5.528-14.442-8.827-23.139-9.291-8.696-.463-17.284 1.941-24.18 6.769-6.895 4.828-11.631 11.754-13.336 19.5l2.716.492c1.574-7.152 5.948-13.547 12.313-18.004 6.366-4.458 14.295-6.677 22.325-6.25 8.029.428 15.617 3.475 21.363 8.578 5.746 5.103 9.263 11.918 9.902 19.189l2.761-.2Z" fill="#073137" fill-opacity=".7"/></svg>