<svg width="1019" height="583" viewBox="0 0 1019 583" fill="none" xmlns="http://www.w3.org/2000/svg">
<path d="M640.052 434.911C665.936 421.578 680.78 392.928 675.495 366.632C672.418 351.433 662.359 336.008 648.144 324.788C643.103 320.793 640.528 319.313 636.792 318.144C634.576 317.42 634.503 317.439 634.911 318.955C635.125 319.75 638.025 322.149 641.506 324.393C653.235 331.865 661.434 340.666 666.549 351.297L669.075 356.35L668.541 364.773C667.838 378.35 664.153 388.93 658.926 392.337C654.295 395.354 649.692 393.564 651.115 389.314C652.258 385.759 650.007 384.038 648.273 387.132C646.925 389.349 648.395 393.368 651.062 394.901C653.086 396.063 653.778 396.033 656.747 394.931L660.04 393.588L657.831 395.493C656.628 396.511 653.339 398.163 650.476 399.082C645.476 400.726 645.238 400.712 642.499 399.199C638.892 397.066 638.29 394.827 639.697 388.492C640.429 385.433 640.572 383.074 640.068 382.357C639.341 381.39 639.104 381.376 637.292 383.02C634.923 385.2 634.332 389.073 635.633 393.911C636.469 397.016 637.064 397.786 639.993 399.713C641.871 400.914 643.237 401.943 642.947 402.02C641.568 402.388 634.706 400.582 632.426 399.333C628.196 396.902 626.727 394.044 625.912 386.677C625.355 381.718 624.967 380.273 624.008 379.601C622.386 378.486 621.245 378.868 620.168 380.935C617.768 385.6 620.374 393.263 626.18 398.369C628.659 400.648 630.697 401.575 634.829 402.484C640.113 403.628 640.278 403.661 648.108 401.262C654.942 399.205 656.441 398.418 659.206 395.978C665.074 390.619 667.954 383.117 670.656 365.988C670.988 364.042 671.061 364.023 671.76 366.623C672.687 369.78 673.114 375.703 672.835 381.892C671.866 400.26 660.906 418.2 643.356 429.85C636.762 434.241 624.864 437.417 618.129 436.661C608.471 435.446 599.815 429.863 595.235 421.798C591.009 414.18 591.852 410.086 599.208 403.324C606.386 396.764 608.479 390.092 604.417 386.842C602.94 385.688 601.716 385.473 599.211 385.987C594.398 386.885 591.41 389.075 588.841 393.399C583.315 402.922 583.672 416.68 589.598 425.702C598.945 439.924 622.171 444.172 640.052 434.911Z" fill="#073137"/>
<path d="M865.103 365.559C866.693 363.664 866.964 359.179 865.646 356.59C865.117 355.493 863.654 354.103 862.478 353.488C860.566 352.45 860.019 352.441 858.617 353.59C856.441 355.331 856.082 358.91 857.849 359.987C859.025 360.602 859.388 360.505 860.64 359.087C862.448 357.134 863.145 357.412 863.961 360.445C864.757 363.406 863.264 365.663 859.926 366.554C856.589 367.444 853.21 365.869 848.008 360.988C842.013 355.467 839.159 351.507 833.308 340.452C827.214 329.075 822.039 321.4 816.643 315.796L812.88 311.924L818.195 313.756C828.863 317.566 835.534 316.636 842.481 310.37C845.246 307.929 846.222 306.353 846.868 303.549C849.228 293.243 839.924 283.806 831.688 288.172C826.233 291.021 824.789 298.373 829.406 299.927C832.136 300.824 835.455 299.861 836.478 297.885C837.01 296.969 837.032 295.028 836.624 293.511C835.983 291.128 836.123 290.781 837.56 290.63C840.052 290.352 843.718 293.862 844.689 297.473C846.923 305.779 838.875 313.732 828.539 313.472C822.979 313.331 821.401 312.668 793.173 298.22C773.141 287.931 766.82 285.826 735.953 279.203C709.548 273.557 704.094 273.232 680.001 276.18L676.309 276.623L683.843 271.671C693.611 265.194 705.716 254.686 715.992 243.739C745.37 212.444 766.533 196.577 786.482 190.943C800.355 187.008 807.833 199.486 795.947 206.761C793.674 208.142 792.19 208.693 791.183 208.42C790.341 208.181 788.449 208.376 787.07 208.744C784.966 209.305 784.536 209.73 784.847 210.885C785.527 213.413 788.077 213.352 793.769 210.516C799.442 207.609 801.762 205.829 803.404 202.681C805.877 197.996 805.046 194.038 800.634 190.649L798.252 188.73L805.239 189.265C809.053 189.563 815.044 190.441 818.446 191.235C829.916 193.979 833.746 196.363 837.081 202.981C841.546 211.774 837.824 220.198 828.338 222.808C824.585 223.887 823.946 223.825 821.515 222.307C818.126 220.115 815.518 219.96 814.455 221.792C812.33 225.455 818.38 227.71 826.813 226.388C835.792 225.075 841.569 219.663 841.973 212.202C842.206 208.734 840.008 202.586 837.577 199.907C836.666 198.834 836.196 197.953 836.413 197.895C837.139 197.702 851.29 206.077 860.282 212.037C870.028 218.491 870.978 219.709 871.643 226.807C872.919 239.935 872.538 241.12 862.368 251.885C860.309 254.06 860.146 256.348 861.99 256.553C867.028 257.066 873.551 248.358 874.341 240.02C874.571 237.404 874.406 231.875 873.918 227.748C873.43 223.621 873.117 220.144 873.17 220.052C873.223 219.961 875.652 220.319 878.522 220.869C882.708 221.686 885.041 221.683 889.598 220.699C896.298 219.298 899.528 217.429 907.877 210.014C918.237 200.825 921.177 199.034 928.849 196.908C934.944 195.281 936.236 195.169 939.875 195.978C945.818 197.255 951.9 201.36 957.417 207.705C961.355 212.227 962.46 214.022 964.013 218.639C965.586 223.328 965.679 224.542 964.989 226.893C964.053 229.775 960.946 233.545 959.059 234.049C958.479 234.204 958.812 233.418 959.924 232.348C962.089 229.989 962.469 227.643 960.745 225.859C958.444 223.377 953.046 225.282 952.232 228.905C951.74 231.126 953.646 235.029 955.815 236.153C958.24 237.364 962.284 236.207 964.193 233.762C968.368 228.468 968.43 222.337 964.265 214.082C956.654 199.085 943.151 191.388 929.277 194.162C921.977 195.646 917.915 197.892 909.024 205.606C901.516 212.099 897.861 214.7 897.589 213.689C897.511 213.4 898.477 211.208 899.674 208.721C902.606 203.139 902.374 199.098 898.954 195.057C895.98 191.517 894.765 190.757 890.713 189.284C883.017 186.694 875.664 192.605 877.553 199.918C878.408 203.096 879.89 204.558 882.871 205.233C886.254 205.956 888.102 205.308 889.59 202.743C890.599 201.003 890.676 200.131 889.91 199.02C888.679 197.336 885.994 196.891 884.775 198.145C884.186 198.845 884.554 199.056 886.233 199.227C888.715 199.493 889.007 200.577 887.165 202.694C886.092 203.909 885.638 203.953 883.6 203.026C878.444 200.919 879.254 192.653 884.696 191.2C887.163 190.542 892.027 191.566 894.187 193.234C896.307 194.758 898.9 198.323 899.482 200.49C900.862 205.617 893.815 213.536 885.461 216.307C877.761 218.904 873.879 217.773 862.007 209.486C840.29 194.384 821.504 186.704 803.833 185.77C797.833 185.436 787.822 186.096 783.594 187.147C780.672 187.849 780.672 187.849 784.681 185.696C790.606 182.566 811.618 176.261 821.033 174.832C838.207 172.183 855.742 171.45 882.96 172.313C908.61 173.129 913.361 172.867 922.18 170.668C926.533 169.506 932.425 167.701 935.085 166.604C941.765 163.97 945.128 164.62 951.52 169.88C957.69 174.89 959.873 175.778 963.791 174.733C968.072 173.59 970.831 169.68 969.734 166.18C968.962 163.599 966.783 161.859 965.671 162.93C965.313 163.335 965.339 164.876 965.728 166.32C966.602 169.57 965.652 172.688 963.62 173.23C960.282 174.121 955.674 172.023 949.591 166.757C947.335 164.728 945.205 163.748 942.354 163.271C940.07 162.874 938.294 162.342 938.308 162.106C938.395 161.851 941.603 157.588 945.494 152.68C956.376 138.783 959.722 130.692 959.574 118.579C959.507 109.076 954.792 102.826 948.843 104.414C943.981 105.712 940.069 112.562 942.684 115.347C944.651 117.453 947.022 117.595 948.684 115.68C950.545 113.635 950.098 111.974 947.543 111.727C945.061 111.461 944.755 110.614 946.471 108.608C949.598 104.909 955.033 106.322 956.354 111.233C957.209 114.411 957.206 121.92 956.326 127.031C954.931 135.144 948.735 147.093 941.992 154.698C939.131 157.939 927.203 167.082 926.468 166.66C926.284 166.554 927.598 164.5 929.434 162.075C934.551 155.368 937.652 144.633 936.947 136.229C936.697 133.277 936.625 133.296 935.332 142.079C933.789 152.243 927.551 161.726 919.818 165.648C914.199 168.464 904.034 169.706 889.324 169.375C839.418 168.299 824.879 169.47 799.822 176.933C780.803 182.551 771.169 187.213 756.421 197.728C746.645 204.75 741.066 210.032 728.548 224.21C718.679 235.513 710.22 243.964 708.406 244.448C708.043 244.545 709.419 241.855 711.53 238.428C716.318 230.493 719.957 221.472 728.269 196.573C737.711 168.355 742.989 158.199 751.812 150.813C759.485 144.353 766.678 143.052 770.104 147.401C772.264 150.23 772.268 153.713 770.115 159.009C768.069 164.122 768.264 166.005 770.973 165.669C773.32 165.43 776.271 159.92 776.31 155.73C776.277 151.559 774.847 148.844 771.21 146.022C768.755 144.123 768.455 143.584 769.359 143.188C770.786 142.42 776.676 143.789 779.929 145.475C783.642 147.426 786.728 151.091 788.348 155.381C789.702 158.967 789.687 159.203 787.62 163.083C785.413 167.31 785.347 168.799 787.187 169.856C790.314 171.653 794.224 166.816 793.827 161.581C793.386 155.894 789.116 148.983 783.47 144.762C774.817 138.325 760.26 140.585 748.521 150.143C741.511 155.885 737.628 163.423 725.533 194.207C711.064 231.199 702.554 247.558 696.822 249.088C695.806 249.359 694.838 249.23 694.741 248.869C694.43 247.714 695.654 242.433 698.996 230.859C714.841 175.853 735.359 138.795 765.094 111.429C771.625 105.352 779.341 99.3443 785.004 95.8204C798.007 87.7827 820.99 87.0666 829.513 94.4671C832.525 96.9915 834.229 103.039 833.402 108.058C832.44 113.734 833.46 112.61 834.601 106.732C835.544 102.146 835.504 100.84 834.282 97.4514C832.448 92.3678 828.511 89.0067 822.359 87.2428C815.878 85.4121 810.977 85.4045 802.516 87.1984L795.143 88.7019L798.746 86.1923C801.826 84.0543 804.307 83.1597 816.478 79.8338C828.939 76.4303 831.391 76.0079 837.149 76.019C856.354 76.0017 869.497 82.9431 875.002 96.1806C876.103 98.8281 876.371 100.692 876.142 103.307C875.446 109.685 870.51 114.176 866.826 111.754C863.916 109.899 864.145 106.122 867.12 105.328C868.28 105.019 868.411 105.216 867.919 106.276C867.286 107.683 868.163 108.92 869.687 108.513C870.993 108.165 871.136 105.804 869.809 104.92C868.463 103.963 865.034 104.802 864.183 106.267C863.333 107.732 864.455 111.613 866.043 112.892C866.726 113.406 868.555 113.847 870.012 113.768C881.009 113.309 882.446 97.8318 872.578 86.3006C860.351 72.0707 829.818 70.1581 803.667 81.9373C786.957 89.4936 776.338 96.2756 762.348 108.447C734.835 132.51 714.57 166.172 698.346 214.855C695.881 222.17 691.838 234.318 689.32 241.724L684.862 255.221L677.731 261.382C660.579 276.255 644.565 282.929 621.424 285.081C619.605 285.257 619.063 285.556 619.257 286.278C619.782 288.228 622.119 288.533 631.873 287.787C639.735 287.237 645.366 286.198 661.03 282.559C680.724 277.999 695.044 275.725 702.698 275.849C712.395 276.048 725.638 280.176 730.723 284.624C734.606 288.077 736.31 292.963 734.798 296.308C733.973 298.154 733.233 298.583 728.517 299.842C723.365 301.217 723.239 301.328 723.507 303.192C724.101 307.136 731.292 307.848 735.097 304.356C741.236 298.847 740.017 289.11 732.623 283.884C726.668 279.669 726.353 279.366 729.451 280.474C734.528 282.292 744.096 288.95 747.884 293.202C750.8 296.526 751.813 298.268 752.765 301.807C754.144 306.935 753.721 309.989 750.895 314.227C748.228 318.189 745.152 319.475 737.164 320.136C727.008 320.834 723.081 322.425 723.877 325.386C724.363 327.191 727.738 329.619 730.627 330.241C733.681 330.896 742.045 328.741 746.175 326.168C753.046 321.935 757.021 314.449 756.065 307.428C755.431 302.179 756.268 302.11 758.286 307.3C761.847 316.489 761.468 329.827 757.482 335.535C754.564 339.72 749.738 343.175 742.212 346.422C735.393 349.403 731.375 352.102 730.68 354.145C729.478 357.484 734.195 361.721 738.651 361.228C740.088 361.077 743.097 360.119 745.249 359.157C751.594 356.148 755.771 352.014 760.108 344.432C766.185 334.063 767.097 326.466 763.95 314.767C760.983 304.026 755.429 295.523 746.151 287.627L741.42 283.627L746.133 284.381C765.35 287.302 796.06 300.855 808.467 311.709C815.717 318.133 819.704 323.416 829.688 339.715C841.377 358.888 849.079 367.282 855.617 368.168C859.159 368.616 863.513 367.454 865.103 365.559Z" fill="#073137"/>
<path d="M467.569 455.166C478.209 448.766 485.446 434.917 485.346 421.247C485.207 408.593 481.298 398.106 473.071 388.617C467.87 382.577 457.514 373.269 451.73 369.396C449.557 367.964 448.094 366.575 448.399 366.261C448.684 365.876 450.464 365.555 452.321 365.524C459.33 365.278 482.719 357.719 482.214 355.842C482.02 355.12 482.165 355.081 471.178 358.169C456.637 362.205 445.231 361.999 431.988 357.564C424.313 355.047 413.206 348.726 407.421 343.692C404.574 341.202 403.417 340.659 401.822 341.085C400.081 341.55 399.921 341.825 400.523 344.063C401.339 347.095 406.209 350.748 421.019 359.563C426.483 362.825 432.747 367.034 434.983 368.991C447.164 379.591 454.465 391.417 452.43 397.145C451.523 399.554 447.231 403.253 444.257 404.047C439.034 405.441 431.475 402.197 429.323 397.664C427.38 393.617 429.419 387.036 432.593 387.273C433.139 387.282 433.89 388.629 434.376 390.434C435.114 393.177 435.559 393.678 437.572 394.224C439.657 394.75 440.001 394.581 442.19 392.604C445.544 389.465 444.937 386.918 440.247 384.224C437.12 382.427 436.133 382.226 433.594 382.904C427.211 384.608 424.493 389.822 426.299 396.536C427.775 402.024 431.043 404.634 437.966 405.804C442.954 406.716 448.665 405.115 451.511 402.111C456.415 396.932 455.401 388.536 448.682 378.877C442.467 369.934 441.925 369.073 442.369 368.412C442.562 367.974 445.867 369.568 449.677 371.879C466.273 381.842 477.16 395.728 475.622 405.038C475.121 407.803 472.9 411.104 471.159 411.569C470.941 411.627 468.996 410.753 466.736 409.577C462.123 407.171 460.146 407.622 460.618 410.823C461.027 413.5 465.059 416.06 468.498 415.839C471.317 415.628 475.924 412.232 477.459 409.268C477.951 408.208 478.326 405.554 478.271 403.325L478.112 399.266L480.013 404.021C484.523 415.585 482.783 427.038 475.87 430.818C471.954 433.024 467.73 432.062 459.763 427.302C451.705 422.488 449.349 422.111 448.806 425.584C448.291 428.584 450.006 430.912 454.788 433.66C461.041 437.253 466.043 437.93 471.894 435.981C475.462 434.796 477.067 433.826 478.908 431.71C483.59 426.281 483.713 428.183 479.217 436.038C474.562 444.168 470.74 447.587 464.448 449.344C459.951 450.544 458.93 450.507 450.502 448.656C438.508 445.976 435.172 446.867 436.609 452.209C437.793 456.614 444.254 459.532 452.941 459.457C458.078 459.479 462.464 458.154 467.569 455.166Z" fill="#073137"/>
<path d="M714.883 377.605C721.344 373.867 723.264 372.039 719.926 372.93C716.878 373.743 713.456 372.876 705.283 369.096C701.207 367.242 696.569 365.616 695.074 365.55C692.228 365.381 687.753 366.963 684.62 369.193C682.855 370.438 682.874 370.51 684.569 371.606C686.632 372.914 697.238 376.199 700.524 376.56C703.481 376.855 702.95 377.771 699.674 378.026C697.4 378.246 690.429 376.623 683.778 374.45C681.305 373.639 681.305 373.639 682.472 374.798C684.884 377.406 694.442 382.287 697.84 382.774C702.534 383.456 707.503 381.975 714.883 377.605Z" fill="#073137"/>
<path d="M560.439 413.158C570.904 408.12 573.822 394.107 566.29 384.895C563.369 381.263 561.635 380.022 557.643 378.766C545.243 374.878 532.509 384.778 533.325 397.641C533.743 404.108 537.895 410.584 543.298 413.322C548.293 415.704 555.289 415.694 560.439 413.158ZM547.899 408.456C542.096 406.832 538.204 399.589 539.794 393.36C542.942 381.065 560.616 381.146 563.898 393.35C566.52 403.099 557.965 411.187 547.899 408.456Z" fill="#073137"/>
<path d="M558.905 403.12C563.748 398.576 560.962 388.794 554.506 387.344C547.083 385.765 540.935 391.818 542.858 398.967C544.781 406.116 553.472 408.362 558.905 403.12ZM550.148 398.027C549.334 397.315 549.232 396.646 549.671 395.677C550.55 393.74 552.04 393.497 553.469 395.051C555.842 397.513 552.647 400.379 550.148 398.027Z" fill="#073137"/>
<path d="M602.705 374.107C612.769 370.182 622.316 361.442 627.237 351.693C631.998 342.218 633.513 328.192 630.813 318.154C629.298 312.522 624.829 304.581 620.223 299.31C603.042 279.67 572.497 277.994 553.225 295.676C545.239 302.993 540.569 311.36 538.523 321.968C537.05 329.791 537.258 334.612 539.414 342.627C541.571 350.643 543.81 354.921 549.012 360.963C562.444 376.495 583.665 381.666 602.705 374.107ZM586.003 363.473C571.958 363.584 560.063 356.078 554.535 343.622C545.603 323.716 559.417 299.905 581.153 297.741C588.192 297.024 594.187 298.21 600.529 301.548C611.391 307.239 618.001 317.936 618.057 329.995C618.126 336.323 617.012 340.568 613.83 346.371C608.155 356.786 597.334 363.389 586.003 363.473Z" fill="#073137"/>
<path d="M598.515 355.644C606.474 351.12 611.441 344.145 613.058 335.122C613.924 330.247 613.884 328.942 612.33 323.165C610.776 317.388 610.156 316.238 606.959 312.447C594.137 297.449 571.331 298.815 560.965 315.204C547.473 336.452 565.865 363.198 590.617 358.371C593.142 357.93 596.62 356.692 598.515 355.644ZM583.134 345.586C574.424 344.428 568.282 336.625 569.711 328.349C571.812 315.637 587.401 310.857 596.192 320.12C599.902 324.083 601.176 330.554 599.366 335.681C596.818 342.398 590.073 346.52 583.134 345.586Z" fill="#073137"/>
<path d="M799.01 317.751C800.489 315.731 802.51 309.076 801.494 309.347C801.277 309.405 800.064 310.967 798.764 312.785C797.536 314.584 795.815 316.282 795.017 316.495C793.783 316.824 793.904 316.405 795.639 314.471C797.481 312.353 799.384 308.439 799.092 307.356C799.053 307.211 797.287 307.296 795.25 307.53L791.486 307.993L787.35 314.593C785.06 318.224 782.706 321.329 782.053 321.504C781.182 321.736 781.168 321.972 781.904 322.395C782.456 322.712 786.148 322.269 790.125 321.439C796.825 320.038 797.532 319.772 799.01 317.751Z" fill="#073137"/>
<path d="M497.835 386.333C503.641 381.61 504.329 372.603 499.335 367.048C496.773 364.171 494.696 363.1 490.825 362.586C480.911 361.285 473.565 369.824 476.226 379.717C478.674 388.816 490.284 392.373 497.835 386.333ZM486.616 386.541C483.069 385.786 479.257 382.314 478.403 379.136C477.16 374.515 479.578 368.761 483.819 366.313C485.912 365.135 487.165 364.878 489.957 365.139C500.031 366.166 503.657 378.2 495.801 384.554C493.051 386.759 490.327 387.331 486.616 386.541Z" fill="#073137"/>
<path d="M492.666 377.806C494.26 375.058 491.102 371.412 487.91 372.264C485.806 372.826 484.922 374.455 485.543 376.766C485.815 377.777 486.508 378.907 487.152 379.277C487.796 379.647 489.127 379.679 490.142 379.408C491.158 379.137 492.294 378.447 492.666 377.806Z" fill="#073137"/>
<path d="M538.049 367.768C541.801 364.367 541.926 358.761 538.187 355.27C532.875 350.264 523.836 354.534 524.052 361.984C524.232 368.437 533.148 372.095 538.049 367.768ZM529.431 366.663C526.009 364.635 525.14 361.694 526.98 358.416C529.902 353.379 537.078 354.328 538.574 359.888C539.079 361.766 538.901 363.129 537.853 364.724C535.829 367.896 532.835 368.618 529.431 366.663Z" fill="#073137"/>
<path d="M533.904 361.6C534.198 360.67 531.957 359.565 531.479 360.39C531.247 360.684 531.204 361.392 531.359 361.969C531.651 363.053 533.596 362.766 533.904 361.6Z" fill="#073137"/>
<path d="M803.559 296.42C808.028 294.53 810.773 292.017 811.941 288.842C812.848 286.433 814.659 272.637 814.27 271.193C814.173 270.832 813.458 271.642 812.588 273.035C811.758 274.573 809.297 276.7 806.43 278.471C801.092 281.754 798.893 284.276 798.118 288.043C797.164 292.012 797.268 295.003 798.284 294.732C799.59 294.383 806.039 288.87 807.14 287.182C807.618 286.358 808.247 285.804 808.522 285.962C809.442 286.491 805.722 291.74 802.614 294.35C800.835 295.831 799.51 297.268 799.608 297.629C799.685 297.918 799.816 298.115 799.889 298.096C800.014 297.985 801.678 297.231 803.559 296.42Z" fill="#073137"/>
<path d="M705.621 311.853C701.551 310.308 698.654 307.056 694.646 299.381C688.906 288.452 684.186 285.068 674.03 284.605C671.277 284.489 668.926 284.42 668.708 284.478C666.967 284.943 676.928 298.847 681.542 302.414L684.883 305.005L682.488 304.483C677.934 303.454 672.607 298.684 667.505 290.991C663.527 285.164 663.117 285.661 665.664 293.108C671.142 309.137 675.47 311.929 696.604 313.021C702.676 313.335 707.926 313.482 708.288 313.385C708.724 313.269 707.528 312.582 705.621 311.853Z" fill="#073137"/>
<path d="M780.825 283.93C786.192 277.004 785.777 272.859 778.651 261.683C774.931 255.944 774.819 255.819 775.083 258.535C775.181 260.056 774.662 262.748 773.889 264.502C773.117 266.256 771.747 269.253 770.868 271.189C770.062 273.107 769.339 275.621 769.341 276.782C769.43 278.847 772.274 284.511 773.838 285.409C775.125 286.148 776.588 283.204 778.086 276.924C779.121 272.391 779.44 271.842 779.906 273.575C780.469 275.668 779.695 280.595 778.127 284.883C777.64 286.251 777.404 287.397 777.588 287.503C777.772 287.609 779.202 285.989 780.825 283.93Z" fill="#073137"/>
<path d="M925.225 246.891C925.108 246.458 924.813 246.227 924.45 246.324C922.854 246.75 919.076 241.954 916.56 236.358C912.72 227.864 911.529 226.324 907.1 224.024C902.947 221.882 898.06 220.478 897.582 221.302C897.104 222.126 902.449 231.302 905.194 234.284L907.848 237.212L904.644 235.127C901.531 233.094 899.376 230.574 895.742 224.579L893.925 221.582L895.261 227.416C896.952 234.859 899.209 238.048 904.756 240.747C909.605 243.167 925.497 247.902 925.225 246.891Z" fill="#073137"/>
<path d="M531.106 349.474C536.275 347.011 536.029 347.541 534.514 341.909C533.057 336.494 532.575 328.342 533.418 324.248C533.962 321.935 533.87 321.883 532.338 322.833C516.533 332.005 500.181 334.512 484.735 330.277C469.639 326.181 457.589 316.938 449.308 303.207C444.904 295.793 441.525 283.229 441.651 274.451C441.687 266.78 443.734 257.334 446.809 250.555C449.405 244.599 455.313 236.212 458.817 233.342C460.166 232.286 461.186 231.162 461.127 230.946C461.05 230.657 459.675 230.172 458.103 229.818C453.951 228.837 447.175 224.455 444.07 220.718L441.431 217.553L437.072 222.74C425.641 236.316 418.79 254.783 418.377 272.615C417.579 312.141 445.438 346.339 484.493 353.945C496.627 356.278 505.803 355.995 518.794 352.838C524.636 351.433 530.149 349.961 531.106 349.474Z" fill="#073137"/>
<path d="M650.54 312.717C655.823 307.205 651.986 297.858 644.216 297.301C640.093 297.008 637.656 298.355 635.372 302.293C633.937 304.765 633.774 305.893 634.415 308.276C635.988 314.125 640.514 316.787 646.174 315.276C647.697 314.869 649.646 313.73 650.54 312.717ZM639.935 312.607C635.152 309.859 635.43 302.509 640.309 300.123C646.581 297.134 652.824 303.284 649.85 309.574C648.126 313.284 643.594 314.649 639.935 312.607Z" fill="#073137"/>
<path d="M645.172 306.643C645.215 305.935 644.75 305.362 644.019 305.248C642.505 305.11 641.403 306.797 642.348 307.706C643.384 308.668 644.995 308.006 645.172 306.643Z" fill="#073137"/>
<path d="M418.089 373.296C419.718 371.545 422.664 365.727 422.392 364.715C422.315 364.426 420.787 365.686 419.013 367.476C417.093 369.304 414.661 370.96 413.209 371.347L410.742 372.006L413.6 369.617C417.231 366.635 420.406 362.536 419.665 361.805C419.35 361.502 417.177 361.23 414.825 361.161L410.543 361.143L404.742 367.337C401.484 370.839 398.017 373.854 397.001 374.126L395.134 374.701L397.22 375.228C400.497 376.134 411.4 376.475 413.94 375.797C415.246 375.449 417.122 374.329 418.089 373.296Z" fill="#073137"/>
<path d="M389.079 364.344C396.66 358.993 399.625 348.914 396.008 340.669C393.942 335.88 388.785 331.452 383.64 329.961C372.713 326.918 362.461 332.75 359.366 343.793C358.475 347.127 358.534 348.504 359.777 353.126C360.807 356.953 361.863 359.148 363.292 360.701C366.13 363.736 370.565 366.345 374.441 367.168C378.574 368.077 385.747 366.704 389.079 364.344ZM373.338 362.199C368.077 360.276 364.696 356.379 363.772 351.208C362.546 344.338 365.737 337.99 372.043 334.837C376.903 332.379 385.386 334.139 389.43 338.477C391.75 341.031 393.537 347.675 392.844 350.879C390.753 359.873 381.624 365.251 373.338 362.199Z" fill="#073137"/>
<path d="M384.916 352.918C389.366 346.622 383.179 338.366 375.489 340.419C372.079 341.329 369.229 346.347 370.181 349.885C371.113 353.351 373.138 355.674 375.863 356.263C379.482 357 382.96 355.762 384.916 352.918Z" fill="#073137"/>
<path d="M732.777 269.001C735.9 266.155 737.007 260.442 735.285 256.645C732.677 250.994 725.436 248.36 719.851 251.012C716.398 252.63 713.524 257.267 713.513 260.985C713.46 270.906 725.386 275.927 732.777 269.001ZM723.111 269.491C714.192 267.847 713.948 255.374 722.727 253.031C725.556 252.276 726.524 252.404 729.191 253.937C731.583 255.311 732.474 256.311 733.018 258.333C733.989 261.944 733.097 265.278 730.637 267.405C727.998 269.735 726.546 270.122 723.111 269.491Z" fill="#073137"/>
<path d="M727.005 262.57C728.599 259.823 725.292 257.068 722.996 259.228C721.13 260.965 723.175 264.521 725.57 263.882C726.005 263.766 726.633 263.211 727.005 262.57Z" fill="#073137"/>
<path d="M430.621 350.139C432.671 348.509 433.567 345.483 433.567 339.988C433.597 336.342 432.79 332.765 432.269 334.297C432.115 334.88 429.515 337.355 426.459 339.873C421.949 343.631 421.002 344.735 421.105 346.565C421.107 347.725 421.152 349.339 421.128 350.119C421.087 351.988 422.499 351.456 426.197 348.147C427.884 346.613 429.411 345.354 429.556 345.315C430.427 345.083 427.601 349.32 425.735 351.056L423.545 353.034L426.085 352.356C427.463 351.988 429.523 350.974 430.621 350.139Z" fill="#073137"/>
<path d="M777.702 240.755C774.919 239.949 770.139 235.188 765.512 228.683C763.961 226.388 761.607 223.997 760.319 223.257C757.744 221.777 751.487 221.358 747.351 222.461L744.594 223.197L748.624 227.772C750.833 230.201 754.165 233.337 756.01 234.702C759.588 237.308 759.666 237.596 756.119 236.84C753.302 236.199 750 233.752 745.398 228.788L741.911 225.075L743.784 230.303C744.798 233.205 746.606 236.748 747.778 238.215C750.215 241.203 754.77 243.393 758.69 243.507C763.064 243.578 776.257 242.611 778.362 242.049L780.248 241.546L777.702 240.755Z" fill="#073137"/>
<path d="M619 280.378C633.115 267.247 640.262 245.84 635.927 229.431C633.708 220.893 629.306 215.8 621.942 213.277C613.717 210.443 606.231 217.007 611.369 222.523C613.518 224.734 617.521 222.273 616.725 219.313C616.472 218.374 615.795 218.168 614.562 218.498C612.458 219.059 612.459 220.219 614.545 220.746C615.88 221.086 615.899 221.158 614.468 221.618C612.075 222.257 610.234 220.04 611.156 217.395C612.405 213.657 618.59 213.244 623.837 216.563C628.768 219.58 630.154 221.841 632.251 229.639C634.509 238.322 634.741 243.522 633.259 250.727C631.661 258.659 628.417 265.097 621.214 274.448C617.649 279.114 614.674 283.081 614.548 283.192C614.442 283.375 614.52 283.664 614.704 283.769C614.907 283.947 616.903 282.408 619 280.378Z" fill="#073137"/>
<path d="M305.094 365.367C308.062 361.942 308.82 359.262 308.485 353.389C308.095 346.447 306.036 338.789 301.009 325.883C295.638 311.985 295.229 309.307 296.997 300.55C298.865 291.301 302.74 284.305 308.267 280.274C313.867 276.224 326.398 272.491 344.407 269.464C359.727 266.846 371.57 263.452 377.834 259.844C379.836 258.612 381.626 257.747 381.737 257.873C381.921 257.978 381.303 259.15 380.341 260.491C379.452 261.812 378.689 263.023 378.727 263.167C378.766 263.312 380.765 262.933 383.126 262.457C387.248 261.589 387.645 261.328 390.535 257.614C392.212 255.463 395.384 252.216 397.632 250.454C401.336 247.452 401.622 247.066 400.739 245.521C399.178 242.608 398.414 242.658 393.805 246.056C388.297 250.159 382.09 252.823 370.842 255.826C354.585 260.166 347.814 259.573 335.631 252.449C331.491 250.07 327.065 246.916 325.819 245.467C322.738 242.108 318.85 235.171 318.814 233.012C318.779 232.015 320.379 229.575 322.723 227.013C326.948 222.478 327.87 219.832 326.328 216.991C325.126 214.834 322.149 214.468 317.873 215.919C315.173 216.872 314.651 217.244 314.981 218.472C315.312 219.7 315.878 219.781 318.999 218.948C322.119 218.115 322.685 218.196 323.253 219.438C324.107 221.456 322.677 224.238 319.017 227.693C316.522 229.985 315.957 231.065 316.239 232.693C316.565 234.774 316.217 234.635 308.28 229.708C303.714 226.9 298.034 224.003 295.744 223.298C290.724 221.696 281.326 222.036 276.784 223.946C271.647 226.247 269.909 231.356 273.175 234.821C275.364 237.179 283.079 237.519 286.014 235.419C287.509 234.324 286.475 231.347 284.408 230.893C282.322 230.366 280.735 231.408 281.143 232.926C281.571 234.515 279.824 234.672 277.505 233.278C274.706 231.547 274.496 229.9 276.734 227.521C279.171 225.012 282.49 224.049 288.196 224.152C298.223 224.417 305.583 228.647 318.523 241.763C323.73 246.954 329.446 252.01 332.153 253.688L336.903 256.601L330.064 255.175C326.278 254.404 319.012 252.55 313.813 251.15C300.869 247.56 286.392 244.92 265.028 242.416C234.753 238.883 220.39 238.691 203.125 241.597C190.187 243.812 179.5 247.749 158.081 258.345C148.828 262.984 136.319 269.111 130.263 272.044C111.679 281.032 93.0589 293.358 79.0901 305.915C70.8848 313.293 66.3048 316.22 60.5715 317.75C56.2171 318.913 54.9588 318.861 46.8026 317.167C38.903 315.559 37.3155 315.441 33.5417 316.449C27.9536 317.94 25.1684 320.31 23.4987 325.092C21.8095 329.802 22.1032 333.208 24.4045 335.691C27.0788 338.693 34.6533 339.381 34.9361 336.673C34.9984 336.037 33.743 333.972 32.1246 332.004C28.7765 327.942 27.7285 325.202 28.6891 322.7C29.2491 321.311 30.2794 320.804 34.3435 319.719C38.843 318.518 40.1013 318.569 47.9089 320.124C57.5994 322.028 63.1693 321.625 68.8237 318.644C70.6666 317.688 72.2775 317.025 72.4615 317.131C72.6455 317.237 70.6569 322.569 68.1031 328.98C56.1641 358.34 54.3784 368.185 58.2643 382.634C61.373 394.194 66.0697 401.535 72.8053 405.466C77.8654 408.374 80.7501 408.688 86.5028 407.23C90.7846 406.087 92.0132 405.449 94.5224 402.921C96.3498 401.039 97.9635 398.363 98.7259 395.991C100.646 389.826 98.7738 385.758 93.7691 385.08C89.1856 384.523 86.0169 385.756 84.1906 388.799C82.3306 392.006 82.4329 392.675 85.0089 394.156C86.573 395.054 87.5022 395.039 89.4371 394.135C92.9103 392.588 94.3823 393.434 93.7029 396.403C92.5994 401.266 88.3199 404.732 82.7695 405.207C76.5803 405.62 68.0023 398.309 63.8553 388.962C58.6849 377.257 59.3894 360.498 65.7672 345.168C75.6113 321.323 77.3599 317.992 85.1805 308.315C88.8783 303.844 91.1361 301.538 91.7075 301.927C91.8915 302.033 91.6956 304.485 91.2144 307.324C90.6607 310.182 90.2973 314.615 90.2853 317.174C90.3482 322.035 92.6471 332.029 94.4894 335.409C97.3838 340.676 102.808 344.648 107.348 344.753C110.319 344.811 115.95 342.611 116.384 341.334C116.558 340.823 116.229 340.756 115.634 341.147C113.888 342.465 107.437 342.483 104.3 341.23C99.8216 339.328 96.8752 335.314 94.9906 328.307C91.7796 316.078 94.7527 303.127 102.542 295.937C112.502 286.697 133.368 274.622 157.739 264.012C176.193 255.988 193.886 250.336 195.063 252.112C195.306 252.434 193.145 255.102 190.239 257.891C187.333 260.68 183.505 264.954 181.741 267.361C173.67 278.42 171.834 286.344 173.775 301.08C174.906 309.914 174.303 316.347 171.916 320.779C164.173 335.08 143.529 341.907 136.358 332.594C133.528 329.014 131.856 321.64 132.839 317.196C134.549 309.383 141.03 305.717 147.03 309.226C150.783 311.321 152.796 316.204 151.148 319.044C149.82 321.335 147.101 322.216 145.387 321.047C144.336 320.321 144.325 319.704 145.146 317.55C146.333 314.445 145.757 313.747 143.528 315.581C141.821 317.043 141.577 319.896 142.949 322.395C144.19 324.696 148.057 324.903 150.828 322.769C160.311 315.514 152.317 301.697 140.376 304.73C135.857 305.859 132.859 308.595 130.986 313.199C129.079 317.967 129.019 320.926 130.598 327.086C133.207 337.075 140.137 341.729 150.632 340.553C153.797 340.173 161.112 337.291 163.849 335.321C165.324 334.153 160.582 344.866 157.629 349.216C150.762 359.257 141.019 362.942 134.394 357.974C131.958 356.147 131.438 354.505 132.152 351.372C133.014 347.347 138.625 345.075 140.695 347.852C141.722 349.359 140.62 351.047 139.023 350.312C138.049 349.875 137.633 350.063 137.194 351.032C136.242 352.99 137.992 355.156 139.951 354.632C142.056 354.071 142.814 352.552 142.617 349.507C142.249 343.798 134.162 344.098 131.163 350.01C128.675 354.933 131.715 360.161 138.216 362.064C140.598 362.822 142.456 362.791 145.867 361.88C153.27 359.904 155.218 357.603 167.127 337.389C172.939 327.474 178.016 318.298 178.267 316.915L178.845 314.438L180.056 316.05C187.286 325.58 195.311 331.413 202.968 332.699C211.139 334.157 218.192 330.88 215.357 326.991C214.198 325.287 212.887 325.327 205.513 326.831C196.886 328.592 191.197 326.239 184.429 318.135C181.88 315.021 181.031 313.312 178.812 305.929C174.652 292.483 175.215 284.744 180.781 275.36C185.622 267.331 195.03 257.773 202.861 253.05C208.345 249.727 220.794 246.559 231.116 245.894C253.033 244.379 279.169 247.855 314.86 257.065C331.405 261.321 342.524 263.618 346.313 263.535C350.959 263.457 348.298 264.554 339.652 266.243C322.523 269.654 308.204 275.413 302.906 281.163C298.038 286.489 294.784 294.636 290.355 313.164C288.34 321.29 287.002 324.125 283.401 327.796C281.07 330.122 279.716 330.871 275.724 331.936C270.499 333.331 268.05 332.901 264.078 329.703C261.327 327.572 259.739 321.956 261.116 319.266C262.459 316.739 262.986 316.676 264.266 319.122C265.396 321.298 268.19 322.72 270.367 322.139C272.109 321.674 274.925 316.818 274.459 315.084C273.935 313.134 270.352 311.38 266.998 311.346C263.571 311.332 259.698 313.992 258.423 317.352C257.163 320.476 258.122 325.485 260.583 328.855C263.569 333.013 267.849 335.045 272.838 334.798C281.795 334.265 288.405 328.474 291.754 318.365L293.665 312.745L296.925 321.398C304.417 341.157 305.398 344.224 306.085 349.384C306.958 355.81 305.846 362.378 303.617 364.212C300.813 366.51 297.885 366.904 296.035 365.23C293.889 363.325 294.09 361.181 296.331 361.125C298.591 361.141 299.639 359.544 298.979 357.088C298.318 354.632 296.609 353.772 293.687 354.474C290.837 355.158 289.716 356.773 289.932 359.891C290.559 368.008 299.854 371.334 305.094 365.367Z" fill="#073137"/>
<path d="M409.599 334.719C414.653 331.822 419.027 327.558 422.506 321.986L425.506 317.237L423.659 313.55C422.568 311.519 421.244 308.622 420.546 307.183L419.261 304.43L418.206 308.891C416.929 314.263 415.639 316.697 412.28 320.69C408.67 324.904 403.153 328.39 397.783 329.823L393.212 331.043L395.426 333.78C396.671 335.228 397.849 337.004 398.043 337.726C398.315 338.737 399.026 338.78 402.127 337.875C404.231 337.313 407.578 335.878 409.599 334.719Z" fill="#073137"/>
<path d="M564.291 283.245C568.357 281.308 571.292 280.37 575.635 279.752L581.468 278.892L581.493 274.938C581.603 264.075 578.255 249.028 573.559 239.371C569.788 231.71 563.835 223.162 562.568 223.655C562.061 223.791 559.624 225.138 557.188 226.484C552.334 229.25 545.365 230.801 540.6 230.138C539.067 229.929 537.901 229.93 537.959 230.147C537.998 230.291 539.165 231.45 540.588 232.695C552.716 243.387 559.962 263.971 557.726 281.67C557.303 284.723 557.44 286.389 557.929 286.181C558.417 285.973 561.255 284.674 564.291 283.245Z" fill="#073137"/>
<path d="M610.248 270.426C623.273 262.77 629.072 246.75 623.921 232.801C622.965 230.116 621.346 226.988 620.397 225.771C618.963 223.909 618.431 223.664 617.024 224.504C614.911 225.61 611.035 224.787 609.088 222.753C607.882 221.449 607.649 220.583 607.719 218.242C607.837 215.502 607.668 215.16 605.887 214.32C602.712 212.923 595.918 211.95 591.279 212.337C584.183 212.839 574.324 218.101 570.188 223.539C569.135 224.827 569.193 225.043 571.461 228.849C572.827 231.038 574.043 232.958 574.227 233.064C574.431 233.242 575.146 232.432 575.875 231.386C579.672 225.264 588.472 220.981 596.223 221.466C608.695 222.161 618.282 234.384 616.194 246.859C613.852 260.409 600.653 268.576 587.828 264.26L584.165 263.07L584.326 265.117C584.328 266.277 584.456 268.488 584.501 270.101C584.669 273.616 585.917 274.211 593.373 274.466C598.97 274.752 605.684 273.114 610.248 270.426Z" fill="#073137"/>
<path d="M402.356 323.976C406.074 321.9 408.404 319.576 411.191 315.194C420.423 300.656 411.937 281.25 394.811 278.004C388.999 276.924 380.921 278.693 376.024 282.167C366.248 289.188 362.691 303.14 368.125 313.222C370.737 318.02 373.333 320.733 377.879 323.467C384.927 327.7 395.243 327.887 402.356 323.976ZM387.533 315.704C374.516 312.987 372.683 294.901 384.909 289.47C389.015 287.678 394.163 288.316 398.274 291.166C405.589 296.102 406.306 306.282 399.901 312.248C396.957 314.891 391.264 316.566 387.533 315.704Z" fill="#073137"/>
<path d="M365.664 329.521C365.823 329.246 367.666 328.29 369.837 327.401L373.765 325.811L370.806 323.195C366.573 319.603 364.639 316.172 362.716 309.022C361.259 303.606 361.2 302.229 362.086 297.426C364.987 281.325 380.141 271.166 396.3 274.283C401.4 275.321 408.667 279.497 411.864 283.287C414.412 286.4 415.38 286.529 414.642 283.784C414.404 282.609 414.101 279.749 414.04 277.211C413.915 272.987 413.818 272.626 411.842 271.064C407.707 267.833 399.735 265.084 392.84 264.603C378.358 263.67 364.904 270.898 357.466 283.72C349.443 297.549 351.201 314.495 361.873 327.282C364.271 330.125 365.007 330.548 365.664 329.521Z" fill="#073137"/>
<path d="M680.73 243.228C680.575 242.65 677.897 240.501 674.803 238.54C671.709 236.579 669.128 234.79 669.07 234.574C668.817 233.635 672.757 234.983 677.318 237.481C679.855 238.817 682.169 239.902 682.387 239.844C682.604 239.786 681.742 238.313 680.419 236.576C677.328 232.601 672.767 230.103 668.978 230.185C665.373 230.374 651.765 233.851 651.978 234.646C652.056 234.935 653.339 235.366 654.8 235.596C656.519 235.911 659.153 237.608 662.223 240.349C664.96 242.715 668.059 244.985 669.25 245.363C670.44 245.742 673.537 245.69 676.208 245.209C680.132 244.471 680.963 244.095 680.73 243.228Z" fill="#073137"/>
<path d="M602.866 259.474C606.749 257.431 608.808 255.256 610.816 251.16C613.105 246.37 613.232 243.085 611.354 237.55C607.196 225.27 592.354 221.26 582.584 229.75C580.68 231.342 578.539 234.08 577.873 235.651C576.754 238.427 576.739 238.663 579.111 244.299C580.367 247.523 581.953 251.976 582.575 254.287C583.604 258.114 583.847 258.436 586.969 259.925C590.144 261.321 596.714 262.044 599.142 261.241C599.776 260.995 601.439 260.241 602.866 259.474ZM592.908 253.386C585.568 252.404 582.076 244.049 586.361 237.72C587.96 235.281 588.879 234.648 591.853 233.854C599.907 231.705 606.682 239.261 603.773 247.235C602.152 251.615 597.839 254.082 592.908 253.386Z" fill="#073137"/>
<path d="M854.822 190.43C855.701 189.653 856.653 187.696 856.97 185.986C857.529 183.438 857.388 182.624 856.08 180.651C852.116 174.589 842.833 176.215 841.292 183.205C840.584 186.645 841.961 189.451 845.272 191.353C848.675 193.309 851.931 192.981 854.822 190.43ZM848.614 190.771C848.252 190.867 847.134 190.469 846.122 189.888C841.891 187.457 842.822 179.933 847.611 178.655C850.295 177.938 854.395 180.172 855.095 182.772C856.008 186.166 853.206 190.783 850.361 190.614C849.742 190.625 848.977 190.674 848.614 190.771Z" fill="#073137"/>
<path d="M850.154 184.633C849.979 183.983 849.335 183.613 848.682 183.788C848.029 183.962 847.763 184.42 848.044 184.886C848.829 186.07 850.484 185.861 850.154 184.633Z" fill="#073137"/>
<path d="M887.076 163.939C888.907 162.367 890.762 160.014 891.409 158.371C892.35 155.799 892.257 154.585 890.435 146.946C889.221 141.854 887.955 138.013 887.306 137.335C886.25 136.301 886.25 136.301 886.547 137.692C887.187 140.075 885.792 142.691 881.163 148.028C876.462 153.384 875.826 155.644 877.263 160.986C878.739 166.474 879.537 166.261 883.772 159.172C886.925 153.842 887.568 153.051 887.632 154.736C887.687 155.805 886.321 159.11 884.694 162.021C881.473 167.678 881.972 168.087 887.076 163.939Z" fill="#073137"/>
<path d="M690.796 209.746C694.117 206.77 695.159 203.706 694.468 199.401C693.738 194.952 691.8 192.374 687.942 190.462C683.571 188.378 679.445 188.938 675.819 192.228C671.599 195.908 670.717 198.698 672.115 203.897C672.97 207.074 673.76 208.566 675.309 209.7C680.442 213.748 686.364 213.793 690.796 209.746ZM681.624 210.337C678.391 209.884 674.861 206.879 674.065 203.918C672.317 197.419 676.738 191.595 683.371 191.682C692.08 191.68 695.802 202.915 688.952 208.381C686.38 210.383 685.001 210.751 681.624 210.337Z" fill="#073137"/>
<path d="M685.068 203.767C686.62 202.889 686.583 199.57 685.053 198.508C682.545 196.701 678.658 199.596 679.996 202.257C680.694 203.696 683.569 204.554 685.068 203.767Z" fill="#073137"/>
<path d="M837.164 163.198C832.59 159.776 830.042 156.665 829.842 154.474C829.671 152.972 829.744 152.953 830.935 154.492C833.037 157.103 837.998 160.809 840.839 161.831L843.442 162.838L843.502 159.881C843.581 151.503 843.653 151.484 834.186 145.189C829.341 141.917 825.26 138.595 824.843 137.623L824.121 135.804L823.76 138.222C823.126 142.802 823.518 152.061 824.566 155.96C825.46 159.281 825.983 160.07 828.8 161.871C830.586 163.02 834.07 164.411 836.484 165.005L840.891 166.073L837.164 163.198Z" fill="#073137"/>
<path d="M330.342 295.715C332.711 293.534 336.187 289.974 337.937 287.803L341.078 283.868L337.566 285.27C334.417 286.575 333.323 286.557 324.456 284.821C315.753 283.118 314.423 283.086 311.307 284.228C307.921 285.519 302.786 290.141 303.175 291.586C303.408 292.453 314.366 293.863 319.848 293.716L324.329 293.604L319.632 294.935C316.076 295.884 313.472 296.037 308.981 295.533C305.695 295.171 302.922 294.983 302.869 295.074C302.603 295.532 312.154 298.944 315.959 299.787C322.087 301.171 325.26 300.246 330.342 295.715Z" fill="#073137"/>
<path d="M558.334 222.878C565.36 218.062 569.397 211.102 570.313 202.653C570.936 196.296 568.072 187.385 563.897 182.85C556.269 174.437 546.619 171.518 535.808 174.403C528.209 176.509 523.694 179.959 519.656 186.919C515.193 194.611 514.748 199.606 517.52 208.463C519.272 214.11 520.004 215.385 523.176 218.795C530.223 226.202 538.847 228.776 549.049 226.518C553.388 225.592 555.777 224.644 558.334 222.878ZM538.973 218.836C532.358 217.66 526.048 211.837 524.28 205.266C522.318 197.972 526.165 188.277 532.586 184.396C537.131 181.635 539.018 181.131 543.958 181.283C558.047 181.625 566.839 197.544 559.792 209.796C555.436 217.305 548.056 220.513 538.973 218.836Z" fill="#073137"/>
<path d="M553.082 212.593C563.631 203.818 559.09 187.228 545.439 184.758C541.181 183.959 534.299 186.415 531.438 189.656C524.967 197.11 526.424 208.021 534.475 213.38C540.241 217.181 547.944 216.906 553.082 212.593ZM540.17 208.532C537.203 207.621 534.578 204.22 534.362 201.104C533.926 195.725 539.688 190.55 544.735 191.679C548.065 192.493 551.474 195.917 551.796 198.85C552.514 205.856 546.747 210.724 540.17 208.532Z" fill="#073137"/>
<path d="M288.935 292.471C283.114 291.935 279.619 291.087 276.734 289.613C273.37 287.802 273.223 286.68 276.602 288.255C279.449 289.585 292.402 290.616 292.967 289.537C293.711 288.255 289.802 283.261 286.878 281.642C284.525 280.412 282.26 280.088 276.614 280.202C268.345 280.396 267.12 280.181 263.519 278.356C260.614 276.809 260.367 276.179 266.061 285.495C271.828 294.792 275.662 296.323 287.465 293.947L293.004 292.855L288.935 292.471Z" fill="#073137"/>
<path d="M649.708 185.678C648.348 180.623 646.789 178.873 642.822 177.997C639.44 177.275 639.378 177.911 642.649 179.668C644.193 180.494 645.486 181.542 645.622 182.048C645.758 182.553 644.311 182.088 642.399 181.051L638.997 179.096L639.633 182.331C640.193 185.277 640.546 185.724 643.169 186.804C644.747 187.466 646.987 188.57 648.163 189.185C649.359 189.872 650.423 190.362 650.568 190.323C650.786 190.265 650.387 188.205 649.708 185.678Z" fill="#073137"/>
<path d="M627.731 195.655C629.593 194.771 631.774 193.337 632.615 192.416C634.099 190.704 635.115 186.097 635.024 181.709L634.949 179.407L633.114 182.993C632.163 184.95 631.41 186.777 631.415 187.085C631.57 187.663 628.307 190.856 627.364 191.108C627.146 191.166 627.74 189.614 628.71 187.73C630.333 184.51 631.804 179.859 631.513 178.776C631.377 178.27 624.575 180.163 623.26 181.056C622.665 181.447 621.048 184.975 619.672 188.826C618.205 192.624 616.433 196.735 615.743 197.926L614.428 199.98L619.416 198.571C622.154 197.763 625.922 196.447 627.731 195.655Z" fill="#073137"/>
<path d="M418.35 247.98C418.548 246.689 418.837 245.451 418.904 245.124C418.971 244.796 417.781 244.417 416.319 244.188C408.577 243.159 403.421 234.396 406.196 227.077C407.556 223.463 412.106 219.849 415.83 219.242C419.937 218.61 424.995 220.356 427.465 223.18L429.398 225.45L431.432 222.895C433.394 220.359 433.375 220.287 431.709 218.719C425.936 213.449 420.502 212.036 413.391 213.934C407.37 215.541 404.222 218.006 401.417 223.476C399.176 227.867 398.861 231.898 400.279 237.17C401.808 242.566 406.332 247.241 411.994 249.213C416.907 250.997 417.724 250.856 418.35 247.98Z" fill="#073137"/>
<path d="M709.606 171.145C709.548 170.928 707.495 169.077 705.041 167.179C702.567 165.208 700.253 162.963 699.802 162.154C696.899 156.275 697.207 155.109 700.481 159.187C701.653 160.654 704.921 163.264 707.81 165.047C713.812 168.862 713.884 168.842 713.208 159.969L712.82 154.191L704.543 148.276C695.196 141.562 692.461 139.197 691.898 137.103C690.68 132.863 690.258 146.904 691.306 155.136C692.217 161.703 693.87 164.667 698.124 167.478C700.941 169.279 709.878 172.156 709.606 171.145Z" fill="#073137"/>
<path d="M208.405 300.841C211.069 298.891 215.136 295.793 217.418 293.867C221.426 290.552 221.479 290.461 218.993 291.047C215.471 291.832 211.119 290.981 202.996 287.962C196.228 285.356 195.991 285.342 192.078 286.696C188.091 288.07 181.882 292.747 182.324 294.1C182.616 295.183 193.337 297.741 197.237 297.783C201.81 297.724 201.758 298.977 197.143 299.744C194.598 300.114 191.021 299.83 186.815 298.94C183.175 298.131 180.324 297.653 180.402 297.942C180.713 299.098 189.07 304.144 192.386 305.195C197.387 306.725 201.813 305.543 208.405 300.841Z" fill="#073137"/>
<path d="M519.409 219.04C519.39 218.968 518.416 217.37 517.311 215.576C514.486 211.145 512.981 204.968 513.265 199.088C513.311 196.367 513.328 194.118 513.236 194.065C512.868 193.854 498.281 193.104 497.774 193.24C497.411 193.336 497.311 194.988 497.526 196.943C498.146 202.427 497.295 208.226 495.379 212.375C494.374 214.423 493.694 216.23 493.858 216.264C494.042 216.369 496.466 216.419 499.253 216.372C502.039 216.324 507.405 216.904 511.281 217.727C519.579 219.382 519.507 219.401 519.409 219.04Z" fill="#073137"/>
<path d="M307.24 274.888C313.366 270.776 311.759 260.756 304.596 258.411C301.867 257.514 297.02 258.576 294.975 260.515C292.911 262.381 291.837 266.77 292.633 269.731C293.391 272.547 296.544 275.885 298.867 276.426C301.61 277.087 304.934 276.432 307.24 274.888ZM300.088 274.32C291.421 272.454 293.451 259.761 302.295 260.264C306.781 260.459 310.187 265.897 308.377 269.863C306.639 273.81 304.057 275.195 300.088 274.32Z" fill="#073137"/>
<path d="M303.941 269.267C305.31 268.282 303.917 264.552 302.185 264.472C299.05 264.38 297.495 267.272 299.573 269.504C300.648 270.61 302.269 270.565 303.941 269.267Z" fill="#073137"/>
<path d="M480.854 224.631C487.594 220.201 491.971 213.924 493.667 206.351C494.755 201.726 494.687 200.893 492.88 194.177C491.288 188.256 490.473 186.384 488.409 183.916C484.878 179.75 477.113 175.167 471.631 174.153C467.517 173.316 466.226 173.429 459.768 175.152C453.021 176.953 452.262 177.311 448.781 180.562C443.972 184.941 440.823 190.581 439.76 196.746C439.028 200.966 439.127 202.488 440.642 208.121C442.235 214.042 442.744 215.067 445.994 218.766C452.92 226.592 462.575 229.819 472.704 227.58C475.936 226.873 479.248 225.601 480.854 224.631ZM465.555 219.504C461.017 219.4 453.344 214.869 451.148 211.044C449.011 207.435 447.751 200.728 448.532 197.269C451.528 183.544 469.162 177.986 479.361 187.569C484.562 192.45 486.607 200.341 484.363 206.744C481.531 215.008 474.559 219.732 465.555 219.504Z" fill="#073137"/>
<path d="M476.276 211.381C482.879 205.284 481.949 194.31 474.415 189.432C463.789 182.594 450.034 192.457 453.297 204.589C454.268 208.199 457.175 212.067 460.041 213.47C465.312 216.01 472.148 215.114 476.276 211.381ZM465.005 204.173C462.43 202.693 462.982 198.676 465.884 197.901C467.843 197.378 469.499 198.329 470.023 200.279C470.548 202.229 469.592 203.877 467.633 204.4C466.762 204.633 465.649 204.543 465.005 204.173Z" fill="#073137"/>
<path d="M423.94 234.645C427.557 227.566 427.386 226.063 422.603 223.315C419.108 221.307 415.18 221.737 412.217 224.308C407.567 228.412 407.341 234.51 411.544 238.573C413.36 240.41 417.609 241.753 419.713 241.191C420.294 241.036 422.139 238.067 423.94 234.645ZM416.071 232.566C415.489 230.4 417.466 228.789 419.305 229.846C420.666 230.566 420.782 230.999 420.237 232.151C419.339 234.016 416.538 234.299 416.071 232.566Z" fill="#073137"/>
<path d="M377.973 248.568C384.138 244.601 388.568 238.233 390.163 231.151C391.064 227.273 390.971 226.059 389.32 219.921C387.669 213.783 387.14 212.686 384.413 209.776C380.573 205.616 375.33 202.603 369.789 201.373C365.893 200.478 364.602 200.591 358.507 202.217C352.05 203.941 351.363 204.279 347.704 207.732C343.363 211.832 341.011 216.098 339.745 222.086C339.018 225.453 339.135 227.047 340.709 232.896C342.845 240.84 345.326 244.279 351.895 248.176C357.913 251.755 363.501 252.586 370.452 250.963C373.684 250.255 377.055 249.2 377.973 248.568ZM364.074 244.306C359.773 244.216 352.138 239.83 349.909 236.168C342.175 223.604 351.154 208.127 365.954 208.511C370.256 208.601 377.89 212.988 380.119 216.65C382.498 220.581 383.383 224.447 382.652 228.667C381.858 233.522 379.912 236.983 376.102 240.167C372.544 243.129 368.922 244.405 364.074 244.306Z" fill="#073137"/>
<path d="M372.257 240.032C381.338 235.054 383.155 222.727 375.765 215.489C371.004 210.8 363.223 209.627 357.701 212.803C348.48 218.128 346.764 229.963 354.155 237.201C358.823 241.837 366.696 243.064 372.257 240.032ZM360.977 233.368C358.402 231.888 357.695 230.993 357.034 228.538C356.374 226.083 356.537 224.956 358.025 222.391C359.513 219.827 360.412 219.123 362.879 218.464C365.345 217.806 366.478 217.968 369.053 219.448C371.629 220.927 372.336 221.822 372.996 224.277C373.657 226.733 373.493 227.86 372.006 230.424C370.518 232.988 369.619 233.693 367.152 234.351C364.685 235.009 363.553 234.847 360.977 233.368Z" fill="#073137"/>
<path d="M646.552 172.768C658.653 167.448 660.55 152.234 649.12 151.956C646.677 151.834 645.825 152.139 643.741 153.934C641.803 155.69 641.397 156.495 641.777 158.483C642.059 160.111 642.791 161.386 643.822 162.04C647.1 164.107 651.113 161.1 648.609 158.44C647.291 157.011 646.27 156.974 645.856 158.323C645.754 158.815 645.106 159.297 644.526 159.452C642.93 159.879 642.574 157.109 644.057 155.397C647.31 151.588 653.307 152.774 654.569 157.468C656.143 163.318 651.367 168.696 642.679 171.092C632.685 173.837 624.548 171.055 611.652 160.409C608.161 157.548 603.201 152.989 600.513 150.223C597.825 147.457 595.311 145.341 594.929 145.366C594.566 145.463 594.049 146.142 593.861 146.889C593.359 148.494 599.299 156.12 605.31 161.405C610.25 165.892 620.775 172.062 626.216 173.784C632.663 175.778 640.637 175.353 646.552 172.768Z" fill="#073137"/>
<path d="M577.95 185.829C587.507 177.706 591.382 167.539 590.076 153.724L589.865 150.916L587.796 152.475C586.249 153.662 585.65 154.905 585.614 157.082C585.473 161.763 584.543 164.953 582.427 168.072C579.654 172.217 576.622 173.955 569.197 175.55L562.807 176.946L565.849 180.159C567.5 181.962 569.482 184.994 570.316 186.938C571.15 188.883 572.032 190.427 572.25 190.369C572.54 190.292 575.093 188.217 577.95 185.829Z" fill="#073137"/>
<path d="M245.14 273.074C249.207 271.137 251.802 268.355 253.038 264.852C254.027 261.879 254.728 251.474 253.9 250.999C253.696 250.821 252.963 252.719 252.312 255.215C251.131 259.787 247.233 266.401 245.346 266.904C244.838 267.04 245.186 266.019 246.147 264.678C247.713 262.403 251.61 250.294 251.241 248.922C251.008 248.055 246.66 249.525 243.884 251.35C240.229 253.951 239.311 255.744 237.771 263.895C236.467 270.9 235.294 273.767 232.568 276.353C231.581 277.313 232.418 277.244 236.772 276.082C239.727 275.216 243.568 273.881 245.14 273.074Z" fill="#073137"/>
<path d="M795.707 119.818C793.118 114.24 789.973 109.198 788.104 107.452C785.605 105.101 781.492 104.264 777.719 105.271L774.982 106.079L777.89 106.773C785.463 108.621 787.619 111.142 780.307 109.688C774.529 108.444 773.461 108.807 774.837 111.612C776.854 115.64 780.039 117.654 785.662 118.32C788.545 118.634 792.243 119.659 793.879 120.538L796.802 122.157L795.707 119.818Z" fill="#073137"/>
<path d="M65.5802 311.315C69.2976 308.078 69.345 302.183 65.6596 298.6C63.7514 296.71 59.6524 295.637 57.0405 296.334C53.05 297.4 49.5966 303.352 50.6843 307.396C50.9563 308.407 52.2063 310.163 53.5185 311.283C57.4747 314.716 61.684 314.754 65.5802 311.315ZM58.1203 311.913C55.1393 311.238 53.6573 309.776 52.8027 306.598C51.948 303.421 52.9615 300.829 55.7368 299.004C58.459 297.272 61.1395 297.407 64.0542 299.571C66.6736 301.503 67.4506 304.391 66.1521 307.37C64.4142 311.316 61.924 312.755 58.1203 311.913Z" fill="#073137"/>
<path d="M62.0327 306.225C63.2975 303.411 59.5162 300.628 57.4042 302.894C55.3647 305.141 57.2454 308.664 60.1475 307.889C60.873 307.696 61.6802 306.938 62.0327 306.225Z" fill="#073137"/>
<path d="M169.435 281.47C171.029 278.722 171.125 277.923 170.271 274.745C169.513 271.929 168.728 270.746 166.883 269.38C162.037 266.107 156.136 267.296 153.267 272.241C150.417 277.258 152.295 282.794 157.711 285.296C159.749 286.222 161.172 286.307 164.001 285.552C167.194 284.7 167.842 284.217 169.435 281.47ZM158.735 283.32C156.703 282.701 154.697 280.45 154.037 277.995C153.823 277.201 154.498 275.085 155.508 273.345C157.208 270.415 157.73 270.043 160.222 269.765C163.86 269.413 167.065 271.499 167.977 274.893C168.89 278.287 168.307 280.455 165.861 282.346C163.685 284.088 161.886 284.336 158.735 283.32Z" fill="#073137"/>
<path d="M162.721 277.612C163.484 276.402 162.515 275.113 161.136 275.481C160.193 275.732 159.821 276.373 160.074 277.312C160.443 278.684 162.049 278.875 162.721 277.612Z" fill="#073137"/>
<path d="M513.77 187.898C520.026 182.823 520.728 173.58 515.308 167.597C510.799 162.686 501.577 162.516 496.318 167.248C485.906 176.528 495.725 193.953 509.181 190.207C510.613 189.747 512.673 188.733 513.77 187.898ZM504.432 187.295C500.087 186.752 496.76 183.925 495.711 180.025C494.08 173.959 497.016 168.687 502.893 167.118C508.407 165.646 513.984 169.034 515.446 174.758C516.383 178.532 515.24 182.088 512.151 184.77C509.208 187.413 507.921 187.834 504.432 187.295Z" fill="#073137"/>
<path d="M508.246 180.086C511.282 177.495 508.219 171.889 504.301 172.935C501.109 173.787 500.33 178.406 502.968 180.411C504.794 181.704 506.559 181.62 508.246 180.086Z" fill="#073137"/>
<path d="M742.558 117.156C735.056 112.968 734.396 110.513 741.893 114.393C749.244 118.312 750.076 117.935 748.029 112.059C747.112 109.518 745.76 107.093 745.077 106.578C744.395 106.064 740.983 104.653 737.485 103.498C734.059 102.323 730.642 100.604 729.862 99.7283C728.71 98.3334 728.545 98.3 728.44 99.6436C728.133 101.97 730.958 111.895 732.547 114.334C734.64 117.49 737.399 119.075 742.13 119.902C748.415 121.01 748.497 120.446 742.558 117.156Z" fill="#073137"/>
<path d="M628.92 143.039C631.78 138.637 634.969 134.301 635.941 133.577C637.668 132.188 637.576 132.135 632.112 132.354C618.873 132.869 614.51 134.576 611.849 140.008C610.333 143.045 608.549 149.715 609.275 149.521C609.492 149.463 611.063 147.495 612.754 145.109C615.818 140.884 618.245 138.92 620.142 139.033C620.689 139.042 619.873 140.344 618.35 141.912C615.643 144.57 612.242 150.432 612.572 151.66C612.669 152.021 614.184 152.159 615.931 152.002C617.731 151.754 620.15 151.495 621.442 151.383C623.406 151.168 624.3 150.155 628.92 143.039Z" fill="#073137"/>
<path d="M537.079 166.061C539.819 162.078 540.526 157.477 539.069 152.06C536.835 143.753 530.103 137.809 520.979 135.986C513.429 134.518 508.188 134.987 502.239 137.737C491.298 142.748 483.655 149.897 476.92 161.295C474.456 165.436 472.432 168.609 472.374 168.392C472.082 167.309 478.683 153.392 481.597 148.898C487.67 139.381 496.222 130.982 505.513 125.328C515.437 119.427 529.36 116.253 545.436 116.452C552.762 116.509 556.231 115.815 555.843 114.37C555.493 113.07 538.177 111.731 530.973 112.416C508.87 114.677 485.276 130.188 474.213 149.785C470.533 156.342 465.493 168.835 465.92 170.424C466.076 171.002 467.45 171.487 469.018 171.533L471.864 171.702L477.323 162.503C482.178 154.24 483.464 152.658 489.643 147.293C496.325 141.483 496.741 141.295 502.836 139.668C508.569 138.137 509.406 138.069 511.503 139.212C514.592 140.865 515.024 142.762 512.747 144.996C510.775 146.916 510.675 148.569 512.591 148.754C514.362 148.978 516.629 146.127 516.627 143.806C516.581 141.031 514.556 138.707 511.424 137.762C508.127 136.784 509.395 136.291 514.955 136.433C520.37 136.613 525.187 139.198 526.062 142.448C526.994 145.915 525.956 148.128 521.668 152.137C517.81 155.722 517.212 158.126 520.13 158.276C523.832 158.449 529.25 151.12 529.042 146.298C528.948 145.084 528.293 142.937 527.469 141.608C526.286 139.524 526.209 139.235 527.274 139.725C529.568 140.738 534.205 146.7 534.944 149.445C535.915 153.056 535.216 155.953 532.13 162.118C529.338 167.354 529.31 167.826 530.966 168.777C532.713 169.782 535.156 168.742 537.079 166.061Z" fill="#073137"/>
<path d="M585.216 151.791C595.742 144.957 598.863 129.96 591.814 120.232L589.706 117.312L585.498 118.435C583.229 118.963 581.454 119.592 581.658 119.77C587.639 125.526 589.619 131.731 587.351 137.754C582.487 150.894 563.875 151.373 558.704 138.512C555.052 129.27 561.268 118.556 570.799 117.56L573.6 117.277L571.556 114.881C570.369 113.65 569.085 112.058 568.746 111.374C568.072 110.316 567.472 110.398 564.667 111.534C557.215 114.762 551.59 121.603 550.422 129.113C549.538 135.076 551.655 142.948 555.37 147.219C558.659 151.062 563.882 154.002 568.891 154.987C573.551 155.833 581.232 154.325 585.216 151.791Z" fill="#073137"/>
<path d="M119.365 272.036C113.511 271.663 106.023 269.56 103.97 267.708C102.435 266.338 102.599 266.371 106.336 267.541C110.566 268.812 123.52 269.843 124.051 268.927C124.476 268.195 120.57 262.348 118.575 260.714C116.377 258.901 111.881 258.089 105.199 258.401C97.2066 258.755 95.1064 258.464 91.374 256.441L88.1014 254.683L91.4214 260.376C99.6028 274.602 103.369 276.46 117.823 273.531L124.107 272.318L119.365 272.036Z" fill="#073137"/>
<path d="M138.082 266.098C139.218 265.408 140.508 264.135 141.04 263.219C142.044 261.171 142.623 254.361 142.206 249.054L141.849 245.125L140.583 246.779C139.834 247.752 137.34 250.043 134.894 251.935C132.428 253.754 129.987 255.953 129.49 256.705C128.634 257.862 127.775 264.206 128.222 265.867C128.513 266.95 130.916 265.767 133.623 263.109C136.813 259.936 137.031 259.878 136.5 261.954C136.279 262.865 134.781 264.812 133.166 266.327L130.223 268.97L133.125 268.195C134.701 267.697 136.945 266.789 138.082 266.098Z" fill="#073137"/>
<path d="M250.466 233.824C255.226 231.857 258.131 229.068 259.434 225.237C260.409 222.5 261.503 208.351 260.839 207.908C260.655 207.803 260.119 208.41 259.641 209.235C257.761 212.368 254.947 214.049 246.361 217.115C237.068 220.447 234.05 221.949 231.779 224.491C230.169 226.314 228.766 231.797 229.388 234.109C229.796 235.626 230.014 235.567 233.816 234.088C240.766 231.304 248.118 227.406 250.143 225.395C252.096 223.402 252.169 223.383 251.614 225.079C250.857 227.759 245.316 232.025 239.236 234.577C232.125 237.636 231.236 238.957 237.404 237.31C240.017 236.613 243.103 235.944 244.303 235.779C245.503 235.613 248.241 234.805 250.466 233.824Z" fill="#073137"/>
<path d="M581.603 140.372C585.624 135.661 585.355 128.302 580.939 124.605C577.186 121.35 574.258 120.583 569.905 121.745C565.552 122.907 563.382 124.957 561.732 129.809C559.642 135.63 564.416 143.256 570.551 144.095C574.751 144.677 579.172 143.188 581.603 140.372ZM570.366 133C570.065 131.3 570.422 130.895 572.236 130.411C573.977 129.946 574.582 130.171 575.096 131.505C576.081 133.719 574.477 135.85 572.246 135.362C571.167 135.108 570.571 134.338 570.366 133Z" fill="#073137"/>
<path d="M794.955 83.4273C794.916 83.2828 792.936 82.5729 790.647 81.8682C785.155 80.2385 784.766 78.7943 790.123 79.9185C795.973 81.1432 796.877 80.747 795.476 77.5609C793.644 73.6386 791.141 72.1396 785.097 71.3535C782.049 71.0062 778.759 70.3366 777.839 69.8082C776.13 68.9486 776.077 69.0401 777.828 73.526C779.807 78.5701 783.115 82.4855 786.469 83.68C788.449 84.3899 795.168 84.2216 794.955 83.4273Z" fill="#073137"/>
<path d="M805.865 77.1041C807.977 74.838 808.538 70.2772 807.237 65.4398C806.052 61.0355 804.435 59.0684 804.297 61.7362C804.313 62.6607 803.144 64.6751 801.893 66.0925C799.264 69.0383 798.208 72.3381 798.965 75.154C799.684 77.8254 800.995 77.785 803.169 74.8832C805.666 71.7402 805.855 72.1541 803.847 76.2498C802.191 79.6324 803.072 80.0164 805.865 77.1041Z" fill="#073137"/>
<path d="M588.839 115.462C592.798 112.548 594.443 107.387 593.103 102.405C590.247 91.7896 576.66 89.8437 571.187 99.2762C568.743 103.489 568.584 108.098 570.721 111.707C572.577 114.849 573.831 115.753 577.954 117.206C581.473 118.434 585.798 117.744 588.839 115.462ZM578.324 114.244C576.693 113.673 574.664 112.202 573.657 110.768C572.072 108.637 571.859 107.843 572.122 105.064C572.857 94.4964 587.679 92.9394 590.418 103.121C592.399 110.487 585.598 116.714 578.324 114.244Z" fill="#073137"/>
<path d="M584.164 107.345C585.014 105.88 584.223 103.227 582.626 102.493C580.936 101.705 579.167 102.642 578.491 104.757C577.362 108.077 582.411 110.367 584.164 107.345Z" fill="#073137"/>
<path d="M535.108 264.876L536.136 265.005L542.662 265.005L542.662 266.7L536.342 266.7L536.342 272.018L535.25 272.532C535.215 272.532 535.181 272.417 535.147 272.185C535.121 271.954 535.108 271.556 535.108 270.991L535.108 264.876ZM535.108 273.811L542.674 273.811L542.674 279.399C542.674 280.204 542.512 280.79 542.186 281.159C541.869 281.527 541.484 281.711 541.03 281.711L540.645 281.711C540.294 281.711 540.003 281.634 539.771 281.48C539.549 281.334 539.39 281.176 539.296 281.004C539.176 281.381 538.966 281.681 538.667 281.904C538.375 282.126 537.99 282.238 537.511 282.238L537.279 282.238C537.022 282.238 536.765 282.208 536.509 282.148C536.252 282.088 536.016 281.972 535.802 281.801C535.597 281.638 535.43 281.403 535.301 281.094C535.173 280.795 535.108 280.401 535.108 279.913L535.108 273.811ZM539.643 275.507L539.643 279.129C539.634 279.429 539.707 279.651 539.861 279.797C540.024 279.943 540.225 280.015 540.465 280.015L540.593 280.015C540.79 280.015 540.979 279.947 541.159 279.81C541.347 279.673 541.441 279.416 541.441 279.039L541.441 275.507L539.643 275.507ZM536.342 275.507L536.342 279.553C536.342 279.878 536.423 280.122 536.586 280.285C536.748 280.456 536.971 280.542 537.254 280.542L537.485 280.542C537.75 280.542 537.964 280.444 538.127 280.247C538.298 280.05 538.384 279.724 538.384 279.27L538.384 275.507L536.342 275.507Z" fill="#073137" fill-opacity="0.7"/>
<path d="M484.948 262.673C484.948 259.698 485.08 257.51 485.342 256.11C485.605 254.71 485.911 254.01 486.261 254.01L491.971 256.635C491.796 257.641 491.621 260.135 491.446 264.117C491.314 268.142 491.249 273.655 491.249 280.656L491.249 281.903C491.249 283.784 491.577 285.119 492.233 285.906C492.933 286.694 494.093 287.088 495.712 287.088L497.024 287.088C498.556 287.088 499.65 286.76 500.306 286.103C500.962 285.491 501.29 284.091 501.29 281.903L501.29 266.676C501.29 262.257 502.1 259.041 503.719 257.029C505.381 255.016 508.072 254.01 511.791 254.01L512.841 254.01C514.766 254.01 516.539 254.36 518.157 255.06C519.776 255.804 521.067 257.051 522.03 258.801C523.036 260.551 523.539 262.957 523.539 266.02L523.539 283.872C523.539 286.847 523.386 289.253 523.08 291.091C522.773 292.929 522.445 293.848 522.095 293.848L516.582 292.535C516.714 291.397 516.845 288.816 516.976 284.791C517.151 280.765 517.239 275.362 517.239 268.58L517.304 267.858C517.304 265.845 516.889 264.489 516.057 263.789C515.27 263.089 514.263 262.717 513.038 262.673L511.922 262.673C510.479 262.673 509.385 263.067 508.641 263.854C507.941 264.686 507.591 266.042 507.591 267.923L507.591 282.494C507.591 285.294 507.306 287.678 506.738 289.647C506.169 291.616 505.119 293.126 503.587 294.176C502.1 295.226 499.89 295.751 496.959 295.751L495.909 295.751C492.627 295.751 489.98 294.898 487.967 293.191C485.955 291.529 484.948 288.619 484.948 284.462L484.948 262.673Z" fill="#073137" fill-opacity="0.7"/>
<path d="M474.579 290.31L468.952 290.31L463.325 290.31L467.959 274.566L474.579 290.31Z" fill="#073137" fill-opacity="0.7"/>
<path d="M463.325 258.824L468.952 258.824L474.579 258.824L469.945 274.568L463.325 258.824Z" fill="#073137" fill-opacity="0.7"/>
<path d="M539.373 261.033C538.568 253.069 534.576 245.648 528.149 240.171C521.722 234.693 513.306 231.539 504.49 231.304C495.674 231.068 487.068 233.768 480.296 238.892C473.525 244.017 469.058 251.213 467.737 259.12L470.476 259.496C471.695 252.195 475.82 245.552 482.071 240.821C488.323 236.089 496.269 233.597 504.408 233.814C512.548 234.032 520.318 236.944 526.252 242.001C532.185 247.058 535.872 253.91 536.615 261.263L539.373 261.033Z" fill="#073137" fill-opacity="0.7"/>
<path d="M539.409 286.258C538.717 294.133 534.908 301.515 528.684 307.042C522.46 312.57 514.241 315.87 505.544 316.333C496.847 316.797 488.259 314.393 481.364 309.564C474.468 304.736 469.732 297.81 468.027 290.063L470.743 289.572C472.317 296.724 476.691 303.119 483.057 307.576C489.423 312.034 497.352 314.254 505.382 313.826C513.411 313.398 520.999 310.351 526.745 305.248C532.492 300.145 536.009 293.329 536.648 286.059L539.409 286.258Z" fill="#073137" fill-opacity="0.7"/>
</svg>
