<svg width="1019" height="583" fill="none" xmlns="http://www.w3.org/2000/svg"><path d="M640.052 434.911c25.884-13.333 40.728-41.983 35.443-68.279-3.077-15.199-13.136-30.624-27.351-41.844-5.041-3.995-7.616-5.475-11.352-6.644-2.216-.724-2.289-.705-1.881.811.214.795 3.114 3.194 6.595 5.438 11.729 7.472 19.928 16.273 25.043 26.904l2.526 5.053-.534 8.423c-.703 13.577-4.388 24.157-9.615 27.564-4.631 3.017-9.234 1.227-7.811-3.023 1.143-3.555-1.108-5.276-2.842-2.182-1.348 2.217.122 6.236 2.789 7.769 2.024 1.162 2.716 1.132 5.685.03l3.293-1.343-2.209 1.905c-1.203 1.018-4.492 2.67-7.355 3.589-5 1.644-5.238 1.63-7.977.117-3.607-2.133-4.209-4.372-2.802-10.707.732-3.059.875-5.418.371-6.135-.727-.967-.964-.981-2.776.663-2.369 2.18-2.96 6.053-1.659 10.891.836 3.105 1.431 3.875 4.36 5.802 1.878 1.201 3.244 2.23 2.954 2.307-1.379.368-8.241-1.438-10.521-2.687-4.23-2.431-5.699-5.289-6.514-12.656-.557-4.959-.945-6.404-1.904-7.076-1.622-1.115-2.763-.733-3.84 1.334-2.4 4.665.206 12.328 6.012 17.434 2.479 2.279 4.517 3.206 8.649 4.115 5.284 1.144 5.449 1.177 13.279-1.222 6.834-2.057 8.333-2.844 11.098-5.284 5.868-5.359 8.748-12.861 11.45-29.99.332-1.946.405-1.965 1.104.635.927 3.157 1.354 9.08 1.075 15.269-.969 18.368-11.929 36.308-29.479 47.958-6.594 4.391-18.492 7.567-25.227 6.811-9.658-1.215-18.314-6.798-22.894-14.863-4.226-7.618-3.383-11.712 3.973-18.474 7.178-6.56 9.271-13.232 5.209-16.482-1.477-1.154-2.701-1.369-5.206-.855-4.813.898-7.801 3.088-10.37 7.412-5.526 9.523-5.169 23.281.757 32.303 9.347 14.222 32.573 18.47 50.454 9.209Zm225.051-69.352c1.59-1.895 1.861-6.38.543-8.969-.529-1.097-1.992-2.487-3.168-3.102-1.912-1.038-2.459-1.047-3.861.102-2.176 1.741-2.535 5.32-.768 6.397 1.176.615 1.539.518 2.791-.9 1.808-1.953 2.505-1.675 3.321 1.358.796 2.961-.697 5.218-4.035 6.109-3.337.89-6.716-.685-11.918-5.566-5.995-5.521-8.849-9.481-14.7-20.536-6.094-11.377-11.269-19.052-16.665-24.656l-3.763-3.872 5.315 1.832c10.668 3.81 17.339 2.88 24.286-3.386 2.765-2.441 3.741-4.017 4.387-6.821 2.36-10.306-6.944-19.743-15.18-15.377-5.455 2.849-6.899 10.201-2.282 11.755 2.73.897 6.049-.066 7.072-2.042.532-.916.554-2.857.146-4.374-.641-2.383-.501-2.73.936-2.881 2.492-.278 6.158 3.232 7.129 6.843 2.234 8.306-5.814 16.259-16.15 15.999-5.56-.141-7.138-.804-35.366-15.252-20.032-10.289-26.353-12.394-57.22-19.017-26.405-5.646-31.859-5.971-55.952-3.023l-3.692.443 7.534-4.952c9.768-6.477 21.873-16.985 32.149-27.932 29.378-31.295 50.541-47.162 70.49-52.796 13.873-3.935 21.351 8.543 9.465 15.818-2.273 1.381-3.757 1.932-4.764 1.659-.842-.239-2.734-.044-4.113.324-2.104.561-2.534.986-2.223 2.141.68 2.528 3.23 2.467 8.922-.369 5.673-2.907 7.993-4.687 9.635-7.835 2.473-4.685 1.642-8.643-2.77-12.032l-2.382-1.919 6.987.535c3.814.298 9.805 1.176 13.207 1.97 11.47 2.744 15.3 5.128 18.635 11.746 4.465 8.793.743 17.217-8.743 19.827-3.753 1.079-4.392 1.017-6.823-.501-3.389-2.192-5.997-2.347-7.06-.515-2.125 3.663 3.925 5.918 12.358 4.596 8.979-1.313 14.756-6.725 15.16-14.186.233-3.468-1.965-9.616-4.396-12.295-.911-1.073-1.381-1.954-1.164-2.012.726-.193 14.877 8.182 23.869 14.142 9.746 6.454 10.696 7.672 11.361 14.77 1.276 13.128.895 14.313-9.275 25.078-2.059 2.175-2.222 4.463-.378 4.668 5.038.513 11.561-8.195 12.351-16.533.23-2.616.065-8.145-.423-12.272-.488-4.127-.801-7.604-.748-7.696.053-.091 2.482.267 5.352.817 4.186.817 6.519.814 11.076-.17 6.7-1.401 9.93-3.27 18.279-10.685 10.36-9.189 13.3-10.98 20.972-13.106 6.095-1.627 7.387-1.739 11.026-.93 5.943 1.277 12.025 5.382 17.542 11.727 3.938 4.522 5.043 6.317 6.596 10.934 1.573 4.689 1.666 5.903.976 8.254-.936 2.882-4.043 6.652-5.93 7.156-.58.155-.247-.631.865-1.701 2.165-2.359 2.545-4.705.821-6.489-2.301-2.482-7.699-.577-8.513 3.046-.492 2.221 1.414 6.124 3.583 7.248 2.425 1.211 6.469.054 8.378-2.391 4.175-5.294 4.237-11.425.072-19.68-7.611-14.997-21.114-22.694-34.988-19.92-7.3 1.484-11.362 3.73-20.253 11.444-7.508 6.493-11.163 9.094-11.435 8.083-.078-.289.888-2.481 2.085-4.968 2.932-5.582 2.7-9.623-.72-13.664-2.974-3.54-4.189-4.3-8.241-5.773-7.696-2.59-15.049 3.321-13.16 10.634.855 3.178 2.337 4.64 5.318 5.315 3.383.723 5.231.075 6.719-2.49 1.009-1.74 1.086-2.612.32-3.723-1.231-1.684-3.916-2.129-5.135-.875-.589.7-.221.911 1.458 1.082 2.482.266 2.774 1.35.932 3.467-1.073 1.215-1.527 1.259-3.565.332-5.156-2.107-4.346-10.373 1.096-11.826 2.467-.658 7.331.366 9.491 2.034 2.12 1.524 4.713 5.089 5.295 7.256 1.38 5.127-5.667 13.046-14.021 15.817-7.7 2.597-11.582 1.466-23.454-6.821-21.717-15.102-40.503-22.782-58.174-23.716-6-.334-16.011.326-20.239 1.377-2.922.702-2.922.702 1.087-1.451 5.925-3.13 26.937-9.435 36.352-10.864 17.174-2.649 34.709-3.382 61.927-2.519 25.65.816 30.401.554 39.22-1.645 4.353-1.162 10.245-2.967 12.905-4.064 6.68-2.634 10.043-1.984 16.435 3.276 6.17 5.01 8.353 5.898 12.271 4.853 4.281-1.143 7.04-5.053 5.943-8.553-.772-2.581-2.951-4.321-4.063-3.25-.358.405-.332 1.946.057 3.39.874 3.25-.076 6.368-2.108 6.91-3.338.891-7.946-1.207-14.029-6.473-2.256-2.029-4.386-3.009-7.237-3.486-2.284-.397-4.06-.929-4.046-1.165.087-.255 3.295-4.518 7.186-9.426 10.882-13.897 14.228-21.988 14.08-34.101-.067-9.503-4.782-15.753-10.731-14.165-4.862 1.298-8.774 8.148-6.159 10.933 1.967 2.106 4.338 2.248 6 .333 1.861-2.045 1.414-3.706-1.141-3.953-2.482-.266-2.788-1.113-1.072-3.119 3.127-3.699 8.562-2.286 9.883 2.625.855 3.178.852 10.687-.028 15.798-1.395 8.113-7.591 20.062-14.334 27.667-2.861 3.241-14.789 12.384-15.524 11.962-.184-.106 1.13-2.16 2.966-4.585 5.117-6.707 8.218-17.442 7.513-25.846-.25-2.952-.322-2.933-1.615 5.85-1.543 10.164-7.781 19.647-15.514 23.569-5.619 2.816-15.784 4.058-30.494 3.727-49.906-1.076-64.445.095-89.502 7.558-19.019 5.618-28.653 10.28-43.401 20.795-9.776 7.022-15.355 12.304-27.873 26.482-9.869 11.303-18.328 19.754-20.142 20.238-.363.097 1.013-2.593 3.124-6.02 4.788-7.935 8.427-16.956 16.739-41.855 9.442-28.218 14.72-38.374 23.543-45.76 7.673-6.46 14.866-7.761 18.292-3.412 2.16 2.829 2.164 6.312.011 11.608-2.046 5.113-1.851 6.996.858 6.66 2.347-.239 5.298-5.749 5.337-9.939-.033-4.171-1.463-6.886-5.1-9.708-2.455-1.899-2.755-2.438-1.851-2.834 1.427-.768 7.317.601 10.57 2.287 3.713 1.951 6.799 5.616 8.419 9.906 1.354 3.586 1.339 3.822-.728 7.702-2.207 4.227-2.273 5.716-.433 6.773 3.127 1.797 7.037-3.04 6.64-8.275-.441-5.687-4.711-12.598-10.357-16.819-8.653-6.437-23.21-4.177-34.949 5.381-7.01 5.742-10.893 13.28-22.988 44.064-14.469 36.992-22.979 53.351-28.711 54.881-1.016.271-1.984.142-2.081-.219-.311-1.155.913-6.436 4.255-18.01 15.845-55.006 36.363-92.064 66.098-119.43 6.531-6.077 14.247-12.085 19.91-15.609 13.003-8.037 35.986-8.753 44.509-1.353 3.012 2.525 4.716 8.572 3.889 13.591-.962 5.676.058 4.552 1.199-1.326.943-4.586.903-5.892-.319-9.28-1.834-5.084-5.771-8.445-11.923-10.21-6.481-1.83-11.382-1.838-19.843-.044l-7.373 1.504 3.603-2.51c3.08-2.138 5.561-3.032 17.732-6.358 12.461-3.404 14.913-3.826 20.671-3.815 19.205-.017 32.348 6.924 37.853 20.162 1.101 2.647 1.369 4.511 1.14 7.126-.696 6.378-5.632 10.869-9.316 8.447-2.91-1.855-2.681-5.632.294-6.426 1.16-.309 1.291-.112.799.948-.633 1.407.244 2.644 1.768 2.237 1.306-.348 1.449-2.709.122-3.593-1.346-.957-4.775-.118-5.626 1.347-.85 1.465.272 5.346 1.86 6.625.683.514 2.512.955 3.969.876 10.997-.459 12.434-15.936 2.566-27.467-12.227-14.23-42.76-16.143-68.911-4.364-16.71 7.557-27.329 14.339-41.319 26.51-27.513 24.063-47.778 57.725-64.002 106.408-2.465 7.315-6.508 19.463-9.026 26.869l-4.458 13.497-7.131 6.161c-17.152 14.873-33.166 21.547-56.307 23.699-1.819.176-2.361.475-2.167 1.197.525 1.95 2.862 2.255 12.616 1.509 7.862-.55 13.493-1.589 29.157-5.228 19.694-4.56 34.014-6.834 41.668-6.71 9.697.199 22.94 4.327 28.025 8.775 3.883 3.453 5.587 8.339 4.075 11.684-.825 1.846-1.565 2.275-6.281 3.534-5.152 1.375-5.278 1.486-5.01 3.35.594 3.944 7.785 4.656 11.59 1.164 6.139-5.509 4.92-15.246-2.474-20.472-5.955-4.215-6.27-4.518-3.172-3.41 5.077 1.818 14.645 8.476 18.433 12.728 2.916 3.324 3.929 5.066 4.881 8.605 1.379 5.128.956 8.182-1.87 12.42-2.667 3.962-5.743 5.248-13.731 5.909-10.156.698-14.083 2.289-13.287 5.25.486 1.805 3.861 4.233 6.75 4.855 3.054.655 11.418-1.5 15.548-4.073 6.871-4.233 10.846-11.719 9.89-18.74-.634-5.249.203-5.318 2.221-.128 3.561 9.189 3.182 22.527-.804 28.235-2.918 4.185-7.744 7.64-15.27 10.887-6.819 2.981-10.837 5.68-11.532 7.723-1.202 3.339 3.515 7.576 7.971 7.083 1.437-.151 4.446-1.109 6.598-2.071 6.345-3.009 10.522-7.143 14.859-14.725 6.077-10.369 6.989-17.966 3.842-29.665-2.967-10.741-8.521-19.244-17.799-27.14l-4.731-4 4.713.754c19.217 2.921 49.927 16.474 62.334 27.328 7.25 6.424 11.237 11.707 21.221 28.006 11.689 19.173 19.391 27.567 25.929 28.453 3.542.448 7.896-.714 9.486-2.609Zm-397.534 89.607c10.64-6.4 17.877-20.249 17.777-33.919-.139-12.654-4.048-23.141-12.275-32.63-5.201-6.04-15.557-15.348-21.341-19.221-2.173-1.432-3.636-2.821-3.331-3.135.285-.385 2.065-.706 3.922-.737 7.009-.246 30.398-7.805 29.893-9.682-.194-.722-.049-.761-11.036 2.327-14.541 4.036-25.947 3.83-39.19-.605-7.675-2.517-18.782-8.838-24.567-13.872-2.847-2.49-4.004-3.033-5.599-2.607-1.741.465-1.901.74-1.299 2.978.816 3.032 5.686 6.685 20.496 15.5 5.464 3.262 11.728 7.471 13.964 9.428 12.181 10.6 19.482 22.426 17.447 28.154-.907 2.409-5.199 6.108-8.173 6.902-5.223 1.394-12.782-1.85-14.934-6.383-1.943-4.047.096-10.628 3.27-10.391.546.009 1.297 1.356 1.783 3.161.738 2.743 1.183 3.244 3.196 3.79 2.085.526 2.429.357 4.618-1.62 3.354-3.139 2.747-5.686-1.943-8.38-3.127-1.797-4.114-1.998-6.653-1.32-6.383 1.704-9.101 6.918-7.295 13.632 1.476 5.488 4.744 8.098 11.667 9.268 4.988.912 10.699-.689 13.545-3.693 4.904-5.179 3.89-13.575-2.829-23.234-6.215-8.943-6.757-9.804-6.313-10.465.193-.438 3.498 1.156 7.308 3.467 16.596 9.963 27.483 23.849 25.945 33.159-.501 2.765-2.722 6.066-4.463 6.531-.218.058-2.163-.816-4.423-1.992-4.613-2.406-6.59-1.955-6.118 1.246.409 2.677 4.441 5.237 7.88 5.016 2.819-.211 7.426-3.607 8.961-6.571.492-1.06.867-3.714.812-5.943l-.159-4.059 1.901 4.755c4.51 11.564 2.77 23.017-4.143 26.797-3.916 2.206-8.14 1.244-16.107-3.516-8.058-4.814-10.414-5.191-10.957-1.718-.515 3 1.2 5.328 5.982 8.076 6.253 3.593 11.255 4.27 17.106 2.321 3.568-1.185 5.173-2.155 7.014-4.271 4.682-5.429 4.805-3.527.309 4.328-4.655 8.13-8.477 11.549-14.769 13.306-4.497 1.2-5.518 1.163-13.946-.688-11.994-2.68-15.33-1.789-13.893 3.553 1.184 4.405 7.645 7.323 16.332 7.248 5.137.022 9.523-1.303 14.628-4.291Zm247.314-77.561c6.461-3.738 8.381-5.566 5.043-4.675-3.048.813-6.47-.054-14.643-3.834-4.076-1.854-8.714-3.48-10.209-3.546-2.846-.169-7.321 1.413-10.454 3.643-1.765 1.245-1.746 1.317-.051 2.413 2.063 1.308 12.669 4.593 15.955 4.954 2.957.295 2.426 1.211-.85 1.466-2.274.22-9.245-1.403-15.896-3.576-2.473-.811-2.473-.811-1.306.348 2.412 2.608 11.97 7.489 15.368 7.976 4.694.682 9.663-.799 17.043-5.169Zm-154.444 35.553c10.465-5.038 13.383-19.051 5.851-28.263-2.921-3.632-4.655-4.873-8.647-6.129-12.4-3.888-25.134 6.012-24.318 18.875.418 6.467 4.57 12.943 9.973 15.681 4.995 2.382 11.991 2.372 17.141-.164Zm-12.54-4.702c-5.803-1.624-9.695-8.867-8.105-15.096 3.148-12.295 20.822-12.214 24.104-.01 2.622 9.749-5.933 17.837-15.999 15.106Z" fill="#073137"/><path d="M558.905 403.12c4.843-4.544 2.057-14.326-4.399-15.776-7.423-1.579-13.571 4.474-11.648 11.623 1.923 7.149 10.614 9.395 16.047 4.153Zm-8.757-5.093c-.814-.712-.916-1.381-.477-2.35.879-1.937 2.369-2.18 3.798-.626 2.373 2.462-.822 5.328-3.321 2.976Zm52.557-23.92c10.064-3.925 19.611-12.665 24.532-22.414 4.761-9.475 6.276-23.501 3.576-33.539-1.515-5.632-5.984-13.573-10.59-18.844-17.181-19.64-47.726-21.316-66.998-3.634-7.986 7.317-12.656 15.684-14.702 26.292-1.473 7.823-1.265 12.644.891 20.659 2.157 8.016 4.396 12.294 9.598 18.336 13.432 15.532 34.653 20.703 53.693 13.144Zm-16.702-10.634c-14.045.111-25.94-7.395-31.468-19.851-8.932-19.906 4.882-43.717 26.618-45.881 7.039-.717 13.034.469 19.376 3.807 10.862 5.691 17.472 16.388 17.528 28.447.069 6.328-1.045 10.573-4.227 16.376-5.675 10.415-16.496 17.018-27.827 17.102Z" fill="#073137"/><path d="M598.515 355.644c7.959-4.524 12.926-11.499 14.543-20.522.866-4.875.826-6.18-.728-11.957-1.554-5.777-2.174-6.927-5.371-10.718-12.822-14.998-35.628-13.632-45.994 2.757-13.492 21.248 4.9 47.994 29.652 43.167 2.525-.441 6.003-1.679 7.898-2.727Zm-15.381-10.058c-8.71-1.158-14.852-8.961-13.423-17.237 2.101-12.712 17.69-17.492 26.481-8.229 3.71 3.963 4.984 10.434 3.174 15.561-2.548 6.717-9.293 10.839-16.232 9.905Zm215.876-27.835c1.479-2.02 3.5-8.675 2.484-8.404-.217.058-1.43 1.62-2.73 3.438-1.228 1.799-2.949 3.497-3.747 3.71-1.234.329-1.113-.09.622-2.024 1.842-2.118 3.745-6.032 3.453-7.115-.039-.145-1.805-.06-3.842.174l-3.764.463-4.136 6.6c-2.29 3.631-4.644 6.736-5.297 6.911-.871.232-.885.468-.149.891.552.317 4.244-.126 8.221-.956 6.7-1.401 7.407-1.667 8.885-3.688Zm-301.175 68.582c5.806-4.723 6.494-13.73 1.5-19.285-2.562-2.877-4.639-3.948-8.51-4.462-9.914-1.301-17.26 7.238-14.599 17.131 2.448 9.099 14.058 12.656 21.609 6.616Zm-11.219.208c-3.547-.755-7.359-4.227-8.213-7.405-1.243-4.621 1.175-10.375 5.416-12.823 2.093-1.178 3.346-1.435 6.138-1.174 10.074 1.027 13.7 13.061 5.844 19.415-2.75 2.205-5.474 2.777-9.185 1.987Z" fill="#073137"/><path d="M492.666 377.806c1.594-2.748-1.564-6.394-4.756-5.542-2.104.562-2.988 2.191-2.367 4.502.272 1.011.965 2.141 1.609 2.511.644.37 1.975.402 2.99.131 1.016-.271 2.152-.961 2.524-1.602Zm45.383-10.038c3.752-3.401 3.877-9.007.138-12.498-5.312-5.006-14.351-.736-14.135 6.714.18 6.453 9.096 10.111 13.997 5.784Zm-8.618-1.105c-3.422-2.028-4.291-4.969-2.451-8.247 2.922-5.037 10.098-4.088 11.594 1.472.505 1.878.327 3.241-.721 4.836-2.024 3.172-5.018 3.894-8.422 1.939Z" fill="#073137"/><path d="M533.904 361.6c.294-.93-1.947-2.035-2.425-1.21-.232.294-.275 1.002-.12 1.579.292 1.084 2.237.797 2.545-.369Zm269.655-65.18c4.469-1.89 7.214-4.403 8.382-7.578.907-2.409 2.718-16.205 2.329-17.649-.097-.361-.812.449-1.682 1.842-.83 1.538-3.291 3.665-6.158 5.436-5.338 3.283-7.537 5.805-8.312 9.572-.954 3.969-.85 6.96.166 6.689 1.306-.349 7.755-5.862 8.856-7.55.478-.824 1.107-1.378 1.382-1.22.92.529-2.8 5.778-5.908 8.388-1.779 1.481-3.104 2.918-3.006 3.279.077.289.208.486.281.467.125-.111 1.789-.865 3.67-1.676Zm-97.938 15.433c-4.07-1.545-6.967-4.797-10.975-12.472-5.74-10.929-10.46-14.313-20.616-14.776-2.753-.116-5.104-.185-5.322-.127-1.741.465 8.22 14.369 12.834 17.936l3.341 2.591-2.395-.522c-4.554-1.029-9.881-5.799-14.983-13.492-3.978-5.827-4.388-5.33-1.841 2.117 5.478 16.029 9.806 18.821 30.94 19.913 6.072.314 11.322.461 11.684.364.436-.116-.76-.803-2.667-1.532Zm75.204-27.923c5.367-6.926 4.952-11.071-2.174-22.247-3.72-5.739-3.832-5.864-3.568-3.148.098 1.521-.421 4.213-1.194 5.967-.772 1.754-2.142 4.751-3.021 6.687-.806 1.918-1.529 4.432-1.527 5.593.089 2.065 2.933 7.729 4.497 8.627 1.287.739 2.75-2.205 4.248-8.485 1.035-4.533 1.354-5.082 1.82-3.349.563 2.093-.211 7.02-1.779 11.308-.487 1.368-.723 2.514-.539 2.62.184.106 1.614-1.514 3.237-3.573Zm144.4-37.039c-.117-.433-.412-.664-.775-.567-1.596.426-5.374-4.37-7.89-9.966-3.84-8.494-5.031-10.034-9.46-12.334-4.153-2.142-9.04-3.546-9.518-2.722-.478.824 4.867 10 7.612 12.982l2.654 2.928-3.204-2.085c-3.113-2.033-5.268-4.553-8.902-10.548l-1.817-2.997 1.336 5.834c1.691 7.443 3.948 10.632 9.495 13.331 4.849 2.42 20.741 7.155 20.469 6.144ZM531.106 349.474c5.169-2.463 4.923-1.933 3.408-7.565-1.457-5.415-1.939-13.567-1.096-17.661.544-2.313.452-2.365-1.08-1.415-15.805 9.172-32.157 11.679-47.603 7.444-15.096-4.096-27.146-13.339-35.427-27.07-4.404-7.414-7.783-19.978-7.657-28.756.036-7.671 2.083-17.117 5.158-23.896 2.596-5.956 8.504-14.343 12.008-17.213 1.349-1.056 2.369-2.18 2.31-2.396-.077-.289-1.452-.774-3.024-1.128-4.152-.981-10.928-5.363-14.033-9.1l-2.639-3.165-4.359 5.187c-11.431 13.576-18.282 32.043-18.695 49.875-.798 39.526 27.061 73.724 66.116 81.33 12.134 2.333 21.31 2.05 34.301-1.107 5.842-1.405 11.355-2.877 12.312-3.364Zm119.434-36.757c5.283-5.512 1.446-14.859-6.324-15.416-4.123-.293-6.56 1.054-8.844 4.992-1.435 2.472-1.598 3.6-.957 5.983 1.573 5.849 6.099 8.511 11.759 7 1.523-.407 3.472-1.546 4.366-2.559Zm-10.605-.11c-4.783-2.748-4.505-10.098.374-12.484 6.272-2.989 12.515 3.161 9.541 9.451-1.724 3.71-6.256 5.075-9.915 3.033Z" fill="#073137"/><path d="M645.172 306.643c.043-.708-.422-1.281-1.153-1.395-1.514-.138-2.616 1.549-1.671 2.458 1.036.962 2.647.3 2.824-1.063Zm-227.083 66.653c1.629-1.751 4.575-7.569 4.303-8.581-.077-.289-1.605.971-3.379 2.761-1.92 1.828-4.352 3.484-5.804 3.871l-2.467.659 2.858-2.389c3.631-2.982 6.806-7.081 6.065-7.812-.315-.303-2.488-.575-4.84-.644l-4.282-.018-5.801 6.194c-3.258 3.502-6.725 6.517-7.741 6.789l-1.867.575 2.086.527c3.277.906 14.18 1.247 16.72.569 1.306-.348 3.182-1.468 4.149-2.501Zm-29.01-8.952c7.581-5.351 10.546-15.43 6.929-23.675-2.066-4.789-7.223-9.217-12.368-10.708-10.927-3.043-21.179 2.789-24.274 13.832-.891 3.334-.832 4.711.411 9.333 1.03 3.827 2.086 6.022 3.515 7.575 2.838 3.035 7.273 5.644 11.149 6.467 4.133.909 11.306-.464 14.638-2.824Zm-15.741-2.145c-5.261-1.923-8.642-5.82-9.566-10.991-1.226-6.87 1.965-13.218 8.271-16.371 4.86-2.458 13.343-.698 17.387 3.64 2.32 2.554 4.107 9.198 3.414 12.402-2.091 8.994-11.22 14.372-19.506 11.32Z" fill="#073137"/><path d="M384.916 352.918c4.45-6.296-1.737-14.552-9.427-12.499-3.41.91-6.26 5.928-5.308 9.466.932 3.466 2.957 5.789 5.682 6.378 3.619.737 7.097-.501 9.053-3.345Zm347.861-83.917c3.123-2.846 4.23-8.559 2.508-12.356-2.608-5.651-9.849-8.285-15.434-5.633-3.453 1.618-6.327 6.255-6.338 9.973-.053 9.921 11.873 14.942 19.264 8.016Zm-9.666.49c-8.919-1.644-9.163-14.117-.384-16.46 2.829-.755 3.797-.627 6.464.906 2.392 1.374 3.283 2.374 3.827 4.396.971 3.611.079 6.945-2.381 9.072-2.639 2.33-4.091 2.717-7.526 2.086Z" fill="#073137"/><path d="M727.005 262.57c1.594-2.747-1.713-5.502-4.009-3.342-1.866 1.737.179 5.293 2.574 4.654.435-.116 1.063-.671 1.435-1.312Zm-296.384 87.569c2.05-1.63 2.946-4.656 2.946-10.151.03-3.646-.777-7.223-1.298-5.691-.154.583-2.754 3.058-5.81 5.576-4.51 3.758-5.457 4.862-5.354 6.692.002 1.16.047 2.774.023 3.554-.041 1.869 1.371 1.337 5.069-1.972 1.687-1.534 3.214-2.793 3.359-2.832.871-.232-1.955 4.005-3.821 5.741l-2.19 1.978 2.54-.678c1.378-.368 3.438-1.382 4.536-2.217Zm347.081-109.384c-2.783-.806-7.563-5.567-12.19-12.072-1.551-2.295-3.905-4.686-5.193-5.426-2.575-1.48-8.832-1.899-12.968-.796l-2.757.736 4.03 4.575c2.209 2.429 5.541 5.565 7.386 6.93 3.578 2.606 3.656 2.894.109 2.138-2.817-.641-6.119-3.088-10.721-8.052l-3.487-3.713 1.873 5.228c1.014 2.902 2.822 6.445 3.994 7.912 2.437 2.988 6.992 5.178 10.912 5.292 4.374.071 17.567-.896 19.672-1.458l1.886-.503-2.546-.791ZM619 280.378c14.115-13.131 21.262-34.538 16.927-50.947-2.219-8.538-6.621-13.631-13.985-16.154-8.225-2.834-15.711 3.73-10.573 9.246 2.149 2.211 6.152-.25 5.356-3.21-.253-.939-.93-1.145-2.163-.815-2.104.561-2.103 1.721-.017 2.248 1.335.34 1.354.412-.077.872-2.393.639-4.234-1.578-3.312-4.223 1.249-3.738 7.434-4.151 12.681-.832 4.931 3.017 6.317 5.278 8.414 13.076 2.258 8.683 2.49 13.883 1.008 21.088-1.598 7.932-4.842 14.37-12.045 23.721-3.565 4.666-6.54 8.633-6.666 8.744a.453.453 0 0 0 .156.577c.203.178 2.199-1.361 4.296-3.391Zm-313.906 84.989c2.968-3.425 3.726-6.105 3.391-11.978-.39-6.942-2.449-14.6-7.476-27.506-5.371-13.898-5.78-16.576-4.012-25.333 1.868-9.249 5.743-16.245 11.27-20.276 5.6-4.05 18.131-7.783 36.14-10.81 15.32-2.618 27.163-6.012 33.427-9.62 2.002-1.232 3.792-2.097 3.903-1.971.184.105-.434 1.277-1.396 2.618-.889 1.321-1.652 2.532-1.614 2.676.039.145 2.038-.234 4.399-.71 4.122-.868 4.519-1.129 7.409-4.843 1.677-2.151 4.849-5.398 7.097-7.16 3.704-3.002 3.99-3.388 3.107-4.933-1.561-2.913-2.325-2.863-6.934.535-5.508 4.103-11.715 6.767-22.963 9.77-16.257 4.34-23.028 3.747-35.211-3.377-4.14-2.379-8.566-5.533-9.812-6.982-3.081-3.359-6.969-10.296-7.005-12.455-.035-.997 1.565-3.437 3.909-5.999 4.225-4.535 5.147-7.181 3.605-10.022-1.202-2.157-4.179-2.523-8.455-1.072-2.7.953-3.222 1.325-2.892 2.553.331 1.228.897 1.309 4.018.476 3.12-.833 3.686-.752 4.254.49.854 2.018-.576 4.8-4.236 8.255-2.495 2.292-3.06 3.372-2.778 5 .326 2.081-.022 1.942-7.959-2.985-4.566-2.808-10.246-5.705-12.536-6.41-5.02-1.602-14.418-1.262-18.96.648-5.137 2.301-6.875 7.41-3.609 10.875 2.189 2.358 9.904 2.698 12.839.598 1.495-1.095.461-4.072-1.606-4.526-2.086-.527-3.673.515-3.265 2.033.428 1.589-1.319 1.746-3.638.352-2.799-1.731-3.009-3.378-.771-5.757 2.437-2.509 5.756-3.472 11.462-3.369 10.027.265 17.387 4.495 30.327 17.611 5.207 5.191 10.923 10.247 13.63 11.925l4.75 2.913-6.839-1.426c-3.786-.771-11.052-2.625-16.251-4.025-12.944-3.59-27.421-6.23-48.785-8.734-30.275-3.533-44.638-3.725-61.903-.819-12.938 2.215-23.625 6.152-45.044 16.748a2693.196 2693.196 0 0 1-27.818 13.699c-18.584 8.988-37.204 21.314-51.173 33.871-8.205 7.378-12.785 10.305-18.519 11.835-4.354 1.163-5.612 1.111-13.768-.583-7.9-1.608-9.487-1.726-13.261-.718-5.588 1.491-8.374 3.861-10.043 8.643-1.69 4.71-1.396 8.116.905 10.599 2.675 3.002 10.25 3.69 10.532.982.062-.636-1.193-2.701-2.811-4.669-3.349-4.062-4.396-6.802-3.436-9.304.56-1.389 1.59-1.896 5.654-2.981 4.5-1.201 5.758-1.15 13.566.405 9.69 1.904 15.26 1.501 20.915-1.48 1.843-.956 3.454-1.619 3.638-1.513.183.106-1.805 5.438-4.359 11.849-11.939 29.36-13.725 39.205-9.839 53.654 3.109 11.56 7.806 18.901 14.541 22.832 5.06 2.908 7.945 3.222 13.698 1.764 4.282-1.143 5.51-1.781 8.02-4.309 1.827-1.882 3.44-4.558 4.203-6.93 1.92-6.165.048-10.233-4.957-10.911-4.583-.557-7.752.676-9.578 3.719-1.86 3.207-1.758 3.876.818 5.357 1.564.898 2.493.883 4.428-.021 3.473-1.547 4.945-.701 4.266 2.268-1.104 4.863-5.383 8.329-10.934 8.804-6.189.413-14.767-6.898-18.914-16.245-5.17-11.705-4.466-28.464 1.912-43.794 9.844-23.845 11.593-27.176 19.413-36.853 3.698-4.471 5.956-6.777 6.527-6.388.184.106-.011 2.558-.493 5.397-.553 2.858-.917 7.291-.929 9.85.063 4.861 2.362 14.855 4.204 18.235 2.895 5.267 8.319 9.239 12.859 9.344 2.971.058 8.602-2.142 9.036-3.419.174-.511-.155-.578-.75-.187-1.746 1.318-8.197 1.336-11.334.083-4.478-1.902-7.425-5.916-9.31-12.923-3.21-12.229-.237-25.18 7.552-32.37 9.96-9.24 30.826-21.315 55.197-31.925 18.454-8.024 36.147-13.676 37.324-11.9.243.322-1.918 2.99-4.824 5.779-2.906 2.789-6.734 7.063-8.498 9.47-8.071 11.059-9.907 18.983-7.966 33.719 1.131 8.834.528 15.267-1.859 19.699-7.743 14.301-28.387 21.128-35.558 11.815-2.83-3.58-4.502-10.954-3.519-15.398 1.71-7.813 8.191-11.479 14.191-7.97 3.753 2.095 5.766 6.978 4.118 9.818-1.328 2.291-4.047 3.172-5.761 2.003-1.051-.726-1.062-1.343-.241-3.497 1.187-3.105.611-3.803-1.618-1.969-1.707 1.462-1.951 4.315-.579 6.814 1.241 2.301 5.108 2.508 7.879.374 9.483-7.255 1.489-21.072-10.452-18.039-4.519 1.129-7.517 3.865-9.39 8.469-1.907 4.768-1.967 7.727-.388 13.887 2.609 9.989 9.539 14.643 20.034 13.467 3.165-.38 10.48-3.262 13.217-5.232 1.475-1.168-3.267 9.545-6.22 13.895-6.867 10.041-16.61 13.726-23.235 8.758-2.436-1.827-2.956-3.469-2.242-6.602.862-4.025 6.473-6.297 8.543-3.52 1.027 1.507-.075 3.195-1.672 2.46-.974-.437-1.39-.249-1.829.72-.952 1.958.798 4.124 2.757 3.6 2.105-.561 2.863-2.08 2.666-5.125-.368-5.709-8.455-5.409-11.454.503-2.488 4.923.552 10.151 7.053 12.054 2.382.758 4.24.727 7.651-.184 7.403-1.976 9.351-4.277 21.26-24.491 5.812-9.915 10.889-19.091 11.14-20.474l.578-2.477 1.211 1.612c7.23 9.53 15.255 15.363 22.912 16.649 8.171 1.458 15.224-1.819 12.389-5.708-1.159-1.704-2.47-1.664-9.844-.16-8.627 1.761-14.316-.592-21.084-8.696-2.549-3.114-3.398-4.823-5.617-12.206-4.16-13.446-3.597-21.185 1.969-30.569 4.841-8.029 14.249-17.587 22.08-22.31 5.484-3.323 17.933-6.491 28.255-7.156 21.917-1.515 48.053 1.961 83.744 11.171 16.545 4.256 27.664 6.553 31.453 6.47 4.646-.078 1.985 1.019-6.661 2.708-17.129 3.411-31.448 9.17-36.746 14.92-4.868 5.326-8.122 13.473-12.551 32.001-2.015 8.126-3.353 10.961-6.954 14.632-2.331 2.326-3.685 3.075-7.677 4.14-5.225 1.395-7.674.965-11.646-2.233-2.751-2.131-4.339-7.747-2.962-10.437 1.343-2.527 1.87-2.59 3.15-.144 1.13 2.176 3.924 3.598 6.101 3.017 1.742-.465 4.558-5.321 4.092-7.055-.524-1.95-4.107-3.704-7.461-3.738-3.427-.014-7.3 2.646-8.575 6.006-1.26 3.124-.301 8.133 2.16 11.503 2.986 4.158 7.266 6.19 12.255 5.943 8.957-.533 15.567-6.324 18.916-16.433l1.911-5.62 3.26 8.653c7.492 19.759 8.473 22.826 9.16 27.986.873 6.426-.239 12.994-2.468 14.828-2.804 2.298-5.732 2.692-7.582 1.018-2.146-1.905-1.945-4.049.296-4.105 2.26.016 3.308-1.581 2.648-4.037-.661-2.456-2.37-3.316-5.292-2.614-2.85.684-3.971 2.299-3.755 5.417.627 8.117 9.922 11.443 15.162 5.476Zm104.505-30.648c5.054-2.897 9.428-7.161 12.907-12.733l3-4.749-1.847-3.687c-1.091-2.031-2.415-4.928-3.113-6.367l-1.285-2.753-1.055 4.461c-1.277 5.372-2.567 7.806-5.926 11.799-3.61 4.214-9.127 7.7-14.497 9.133l-4.571 1.22 2.214 2.737c1.245 1.448 2.423 3.224 2.617 3.946.272 1.011.983 1.054 4.084.149 2.104-.562 5.451-1.997 7.472-3.156Zm154.692-51.474c4.066-1.937 7.001-2.875 11.344-3.493l5.833-.86.025-3.954c.11-10.863-3.238-25.91-7.934-35.567-3.771-7.661-9.724-16.209-10.991-15.716-.507.136-2.944 1.483-5.38 2.829-4.854 2.766-11.823 4.317-16.588 3.654-1.533-.209-2.699-.208-2.641.009.039.144 1.206 1.303 2.629 2.548 12.128 10.692 19.374 31.276 17.138 48.975-.423 3.053-.286 4.719.203 4.511.488-.208 3.326-1.507 6.362-2.936Z" fill="#073137"/><path d="M610.248 270.426c13.025-7.656 18.824-23.676 13.673-37.625-.956-2.685-2.575-5.813-3.524-7.03-1.434-1.862-1.966-2.107-3.373-1.267-2.113 1.106-5.989.283-7.936-1.751-1.206-1.304-1.439-2.17-1.369-4.511.118-2.74-.051-3.082-1.832-3.922-3.175-1.397-9.969-2.37-14.608-1.983-7.096.502-16.955 5.764-21.091 11.202-1.053 1.288-.995 1.504 1.273 5.31 1.366 2.189 2.582 4.109 2.766 4.215.204.178.919-.632 1.648-1.678 3.797-6.122 12.597-10.405 20.348-9.92 12.472.695 22.059 12.918 19.971 25.393-2.342 13.55-15.541 21.717-28.366 17.401l-3.663-1.19.161 2.047c.002 1.16.13 3.371.175 4.984.168 3.515 1.416 4.11 8.872 4.365 5.597.286 12.311-1.352 16.875-4.04Zm-207.892 53.55c3.718-2.076 6.048-4.4 8.835-8.782 9.232-14.538.746-33.944-16.38-37.19-5.812-1.08-13.89.689-18.787 4.163-9.776 7.021-13.333 20.973-7.899 31.055 2.612 4.798 5.208 7.511 9.754 10.245 7.048 4.233 17.364 4.42 24.477.509Zm-14.823-8.272c-13.017-2.717-14.85-20.803-2.624-26.234 4.106-1.792 9.254-1.154 13.365 1.696 7.315 4.936 8.032 15.116 1.627 21.082-2.944 2.643-8.637 4.318-12.368 3.456Z" fill="#073137"/><path d="M365.664 329.521c.159-.275 2.002-1.231 4.173-2.12l3.928-1.59-2.959-2.616c-4.233-3.592-6.167-7.023-8.09-14.173-1.457-5.416-1.516-6.793-.63-11.596 2.901-16.101 18.055-26.26 34.214-23.143 5.1 1.038 12.367 5.214 15.564 9.004 2.548 3.113 3.516 3.242 2.778.497-.238-1.175-.541-4.035-.602-6.573-.125-4.224-.222-4.585-2.198-6.147-4.135-3.231-12.107-5.98-19.002-6.461-14.482-.933-27.936 6.295-35.374 19.117-8.023 13.829-6.265 30.775 4.407 43.562 2.398 2.843 3.134 3.266 3.791 2.239Zm315.066-86.293c-.155-.578-2.833-2.727-5.927-4.688-3.094-1.961-5.675-3.75-5.733-3.966-.253-.939 3.687.409 8.248 2.907 2.537 1.336 4.851 2.421 5.069 2.363.217-.058-.645-1.531-1.968-3.268-3.091-3.975-7.652-6.473-11.441-6.391-3.605.189-17.213 3.666-17 4.461.078.289 1.361.72 2.822.95 1.719.315 4.353 2.012 7.423 4.753 2.737 2.366 5.836 4.636 7.027 5.014 1.19.379 4.287.327 6.958-.154 3.924-.738 4.755-1.114 4.522-1.981Zm-77.864 16.246c3.883-2.043 5.942-4.218 7.95-8.314 2.289-4.79 2.416-8.075.538-13.61-4.158-12.28-19-16.29-28.77-7.8-1.904 1.592-4.045 4.33-4.711 5.901-1.119 2.776-1.134 3.012 1.238 8.648 1.256 3.224 2.842 7.677 3.464 9.988 1.029 3.827 1.272 4.149 4.394 5.638 3.175 1.396 9.745 2.119 12.173 1.316.634-.246 2.297-1 3.724-1.767Zm-9.958-6.088c-7.34-.982-10.832-9.337-6.547-15.666 1.599-2.439 2.518-3.072 5.492-3.866 8.054-2.149 14.829 5.407 11.92 13.381-1.621 4.38-5.934 6.847-10.865 6.151Zm261.914-62.956c.879-.777 1.831-2.734 2.148-4.444.559-2.548.418-3.362-.89-5.335-3.964-6.062-13.247-4.436-14.788 2.554-.708 3.44.669 6.246 3.98 8.148 3.403 1.956 6.659 1.628 9.55-.923Zm-6.208.341c-.362.096-1.48-.302-2.492-.883-4.231-2.431-3.3-9.955 1.489-11.233 2.684-.717 6.784 1.517 7.484 4.117.913 3.394-1.889 8.011-4.734 7.842-.619.011-1.384.06-1.747.157Z" fill="#073137"/><path d="M850.154 184.633a1.186 1.186 0 0 0-1.472-.845c-.653.174-.919.632-.638 1.098.785 1.184 2.44.975 2.11-.253Zm36.922-20.694c1.831-1.572 3.686-3.925 4.333-5.568.941-2.572.848-3.786-.974-11.425-1.214-5.092-2.48-8.933-3.129-9.611-1.056-1.034-1.056-1.034-.759.357.64 2.383-.755 4.999-5.384 10.336-4.701 5.356-5.337 7.616-3.9 12.958 1.476 5.488 2.274 5.275 6.509-1.814 3.153-5.33 3.796-6.121 3.86-4.436.055 1.069-1.311 4.374-2.938 7.285-3.221 5.657-2.722 6.066 2.382 1.918Zm-196.28 45.807c3.321-2.976 4.363-6.04 3.672-10.345-.73-4.449-2.668-7.027-6.526-8.939-4.371-2.084-8.497-1.524-12.123 1.766-4.22 3.68-5.102 6.47-3.704 11.669.855 3.177 1.645 4.669 3.194 5.803 5.133 4.048 11.055 4.093 15.487.046Zm-9.172.591c-3.233-.453-6.763-3.458-7.559-6.419-1.748-6.499 2.673-12.323 9.306-12.236 8.709-.002 12.431 11.233 5.581 16.699-2.572 2.002-3.951 2.37-7.328 1.956Z" fill="#073137"/><path d="M685.068 203.767c1.552-.878 1.515-4.197-.015-5.259-2.508-1.807-6.395 1.088-5.057 3.749.698 1.439 3.573 2.297 5.072 1.51Zm152.096-40.569c-4.574-3.422-7.122-6.533-7.322-8.724-.171-1.502-.098-1.521 1.093.018 2.102 2.611 7.063 6.317 9.904 7.339l2.603 1.007.06-2.957c.079-8.378.151-8.397-9.316-14.692-4.845-3.272-8.926-6.594-9.343-7.566l-.722-1.819-.361 2.418c-.634 4.58-.242 13.839.806 17.738.894 3.321 1.417 4.11 4.234 5.911 1.786 1.149 5.27 2.54 7.684 3.134l4.407 1.068-3.727-2.875ZM330.342 295.715c2.369-2.181 5.845-5.741 7.595-7.912l3.141-3.935-3.512 1.402c-3.149 1.305-4.243 1.287-13.11-.449-8.703-1.703-10.033-1.735-13.149-.593-3.386 1.291-8.521 5.913-8.132 7.358.233.867 11.191 2.277 16.673 2.13l4.481-.112-4.697 1.331c-3.556.949-6.16 1.102-10.651.598-3.286-.362-6.059-.55-6.112-.459-.266.458 9.285 3.87 13.09 4.713 6.128 1.384 9.301.459 14.383-4.072Zm227.992-72.837c7.026-4.816 11.063-11.776 11.979-20.225.623-6.357-2.241-15.268-6.416-19.803-7.628-8.413-17.278-11.332-28.089-8.447-7.599 2.106-12.114 5.556-16.152 12.516-4.463 7.692-4.908 12.687-2.136 21.544 1.752 5.647 2.484 6.922 5.656 10.332 7.047 7.407 15.671 9.981 25.873 7.723 4.339-.926 6.728-1.874 9.285-3.64Zm-19.361-4.042c-6.615-1.176-12.925-6.999-14.693-13.57-1.962-7.294 1.885-16.989 8.306-20.87 4.545-2.761 6.432-3.265 11.372-3.113 14.089.342 22.881 16.261 15.834 28.513-4.356 7.509-11.736 10.717-20.819 9.04Z" fill="#073137"/><path d="M553.082 212.593c10.549-8.775 6.008-25.365-7.643-27.835-4.258-.799-11.14 1.657-14.001 4.898-6.471 7.454-5.014 18.365 3.037 23.724 5.766 3.801 13.469 3.526 18.607-.787Zm-12.912-4.061c-2.967-.911-5.592-4.312-5.808-7.428-.436-5.379 5.326-10.554 10.373-9.425 3.33.814 6.739 4.238 7.061 7.171.718 7.006-5.049 11.874-11.626 9.682Zm-251.235 83.939c-5.821-.536-9.316-1.384-12.201-2.858-3.364-1.811-3.511-2.933-.132-1.358 2.847 1.33 15.8 2.361 16.365 1.282.744-1.282-3.165-6.276-6.089-7.895-2.353-1.23-4.618-1.554-10.264-1.44-8.269.194-9.494-.021-13.095-1.846-2.905-1.547-3.152-2.177 2.542 7.139 5.767 9.297 9.601 10.828 21.404 8.452l5.539-1.092-4.069-.384Zm360.773-106.793c-1.36-5.055-2.919-6.805-6.886-7.681-3.382-.722-3.444-.086-.173 1.671 1.544.826 2.837 1.874 2.973 2.38.136.505-1.311.04-3.223-.997l-3.402-1.955.636 3.235c.56 2.946.913 3.393 3.536 4.473 1.578.662 3.818 1.766 4.994 2.381 1.196.687 2.26 1.177 2.405 1.138.218-.058-.181-2.118-.86-4.645Zm-21.977 9.977c1.862-.884 4.043-2.318 4.884-3.239 1.484-1.712 2.5-6.319 2.409-10.707l-.075-2.302-1.835 3.586c-.951 1.957-1.704 3.784-1.699 4.092.155.578-3.108 3.771-4.051 4.023-.218.058.376-1.494 1.346-3.378 1.623-3.22 3.094-7.871 2.803-8.954-.136-.506-6.938 1.387-8.253 2.28-.595.391-2.212 3.919-3.588 7.77-1.467 3.798-3.239 7.909-3.929 9.1l-1.315 2.054 4.988-1.409c2.738-.808 6.506-2.124 8.315-2.916ZM418.35 247.98c.198-1.291.487-2.529.554-2.856.067-.328-1.123-.707-2.585-.936-7.742-1.029-12.898-9.792-10.123-17.111 1.36-3.614 5.91-7.228 9.634-7.835 4.107-.632 9.165 1.114 11.635 3.938l1.933 2.27 2.034-2.555c1.962-2.536 1.943-2.608.277-4.176-5.773-5.27-11.207-6.683-18.318-4.785-6.021 1.607-9.169 4.072-11.974 9.542-2.241 4.391-2.556 8.422-1.138 13.694 1.529 5.396 6.053 10.071 11.715 12.043 4.913 1.784 5.73 1.643 6.356-1.233Zm291.256-76.835c-.058-.217-2.111-2.068-4.565-3.966-2.474-1.971-4.788-4.216-5.239-5.025-2.903-5.879-2.595-7.045.679-2.967 1.172 1.467 4.44 4.077 7.329 5.86 6.002 3.815 6.074 3.795 5.398-5.078l-.388-5.778-8.277-5.915c-9.347-6.714-12.082-9.079-12.645-11.173-1.218-4.24-1.64 9.801-.592 18.033.911 6.567 2.564 9.531 6.818 12.342 2.817 1.801 11.754 4.678 11.482 3.667ZM208.405 300.841c2.664-1.95 6.731-5.048 9.013-6.974 4.008-3.315 4.061-3.406 1.575-2.82-3.522.785-7.874-.066-15.997-3.085-6.768-2.606-7.005-2.62-10.918-1.266-3.987 1.374-10.196 6.051-9.754 7.404.292 1.083 11.013 3.641 14.913 3.683 4.573-.059 4.521 1.194-.094 1.961-2.545.37-6.122.086-10.328-.804-3.64-.809-6.491-1.287-6.413-.998.311 1.156 8.668 6.202 11.984 7.253 5.001 1.53 9.427.348 16.019-4.354Zm311.004-81.801c-.019-.072-.993-1.67-2.098-3.464-2.825-4.431-4.33-10.608-4.046-16.488.046-2.721.063-4.97-.029-5.023-.368-.211-14.955-.961-15.462-.825-.363.096-.463 1.748-.248 3.703.62 5.484-.231 11.283-2.147 15.432-1.005 2.048-1.685 3.855-1.521 3.889.184.105 2.608.155 5.395.108 2.786-.048 8.152.532 12.028 1.355 8.298 1.655 8.226 1.674 8.128 1.313ZM307.24 274.888c6.126-4.112 4.519-14.132-2.644-16.477-2.729-.897-7.576.165-9.621 2.104-2.064 1.866-3.138 6.255-2.342 9.216.758 2.816 3.911 6.154 6.234 6.695 2.743.661 6.067.006 8.373-1.538Zm-7.152-.568c-8.667-1.866-6.637-14.559 2.207-14.056 4.486.195 7.892 5.633 6.082 9.599-1.738 3.947-4.32 5.332-8.289 4.457Z" fill="#073137"/><path d="M303.941 269.267c1.369-.985-.024-4.715-1.756-4.795-3.135-.092-4.69 2.8-2.612 5.032 1.075 1.106 2.696 1.061 4.368-.237Zm176.913-44.636c6.74-4.43 11.117-10.707 12.813-18.28 1.088-4.625 1.02-5.458-.787-12.174-1.592-5.921-2.407-7.793-4.471-10.261-3.531-4.166-11.296-8.749-16.778-9.763-4.114-.837-5.405-.724-11.863.999-6.747 1.801-7.506 2.159-10.987 5.41-4.809 4.379-7.958 10.019-9.021 16.184-.732 4.22-.633 5.742.882 11.375 1.593 5.921 2.102 6.946 5.352 10.645 6.926 7.826 16.581 11.053 26.71 8.814 3.232-.707 6.544-1.979 8.15-2.949Zm-15.299-5.127c-4.538-.104-12.211-4.635-14.407-8.46-2.137-3.609-3.397-10.316-2.616-13.775 2.996-13.725 20.63-19.283 30.829-9.7 5.201 4.881 7.246 12.772 5.002 19.175-2.832 8.264-9.804 12.988-18.808 12.76Z" fill="#073137"/><path d="M476.276 211.381c6.603-6.097 5.673-17.071-1.861-21.949-10.626-6.838-24.381 3.025-21.118 15.157.971 3.61 3.878 7.478 6.744 8.881 5.271 2.54 12.107 1.644 16.235-2.089Zm-11.271-7.208c-2.575-1.48-2.023-5.497.879-6.272 1.959-.523 3.615.428 4.139 2.378.525 1.95-.431 3.598-2.39 4.121-.871.233-1.984.143-2.628-.227Zm-41.065 30.472c3.617-7.079 3.446-8.582-1.337-11.33-3.495-2.008-7.423-1.578-10.386.993-4.65 4.104-4.876 10.202-.673 14.265 1.816 1.837 6.065 3.18 8.169 2.618.581-.155 2.426-3.124 4.227-6.546Zm-7.869-2.079c-.582-2.166 1.395-3.777 3.234-2.72 1.361.72 1.477 1.153.932 2.305-.898 1.865-3.699 2.148-4.166.415Zm-38.098 16.002c6.165-3.967 10.595-10.335 12.19-17.417.901-3.878.808-5.092-.843-11.23-1.651-6.138-2.18-7.235-4.907-10.145-3.84-4.16-9.083-7.173-14.624-8.403-3.896-.895-5.187-.782-11.282.844-6.457 1.724-7.144 2.062-10.803 5.515-4.341 4.1-6.693 8.366-7.959 14.354-.727 3.367-.61 4.961.964 10.81 2.136 7.944 4.617 11.383 11.186 15.28 6.018 3.579 11.606 4.41 18.557 2.787 3.232-.708 6.603-1.763 7.521-2.395Zm-13.899-4.262c-4.301-.09-11.936-4.476-14.165-8.138-7.734-12.564 1.245-28.041 16.045-27.657 4.302.09 11.936 4.477 14.165 8.139 2.379 3.931 3.264 7.797 2.533 12.017-.794 4.855-2.74 8.316-6.55 11.5-3.558 2.962-7.18 4.238-12.028 4.139Z" fill="#073137"/><path d="M372.257 240.032c9.081-4.978 10.898-17.305 3.508-24.543-4.761-4.689-12.542-5.862-18.064-2.686-9.221 5.325-10.937 17.16-3.546 24.398 4.668 4.636 12.541 5.863 18.102 2.831Zm-11.28-6.664c-2.575-1.48-3.282-2.375-3.943-4.83-.66-2.455-.497-3.582.991-6.147 1.488-2.564 2.387-3.268 4.854-3.927 2.466-.658 3.599-.496 6.174.984 2.576 1.479 3.283 2.374 3.943 4.829.661 2.456.497 3.583-.99 6.147-1.488 2.564-2.387 3.269-4.854 3.927-2.467.658-3.599.496-6.175-.983Zm285.575-60.6c12.101-5.32 13.998-20.534 2.568-20.812-2.443-.122-3.295.183-5.379 1.978-1.938 1.756-2.344 2.561-1.964 4.549.282 1.628 1.014 2.903 2.045 3.557 3.278 2.067 7.291-.94 4.787-3.6-1.318-1.429-2.339-1.466-2.753-.117-.102.492-.75.974-1.33 1.129-1.596.427-1.952-2.343-.469-4.055 3.253-3.809 9.25-2.623 10.512 2.071 1.574 5.85-3.202 11.228-11.89 13.624-9.994 2.745-18.131-.037-31.027-10.683-3.491-2.861-8.451-7.42-11.139-10.186-2.688-2.766-5.202-4.882-5.584-4.857-.363.097-.88.776-1.068 1.523-.502 1.605 5.438 9.231 11.449 14.516 4.94 4.487 15.465 10.657 20.906 12.379 6.447 1.994 14.421 1.569 20.336-1.016Zm-68.602 13.061c9.557-8.123 13.432-18.29 12.126-32.105l-.211-2.808-2.069 1.559c-1.547 1.187-2.146 2.43-2.182 4.607-.141 4.681-1.071 7.871-3.187 10.99-2.773 4.145-5.805 5.883-13.23 7.478l-6.39 1.396 3.042 3.213c1.651 1.803 3.633 4.835 4.467 6.779.834 1.945 1.716 3.489 1.934 3.431.29-.077 2.843-2.152 5.7-4.54Zm-332.81 87.245c4.067-1.937 6.662-4.719 7.898-8.222.989-2.973 1.69-13.378.862-13.853-.204-.178-.937 1.72-1.588 4.216-1.181 4.572-5.079 11.186-6.966 11.689-.508.136-.16-.885.801-2.226 1.566-2.275 5.463-14.384 5.094-15.756-.233-.867-4.581.603-7.357 2.428-3.655 2.601-4.573 4.394-6.113 12.545-1.304 7.005-2.477 9.872-5.203 12.458-.987.96-.15.891 4.204-.271 2.955-.866 6.796-2.201 8.368-3.008Zm550.567-153.256c-2.589-5.578-5.734-10.62-7.603-12.366-2.499-2.351-6.612-3.188-10.385-2.181l-2.737.808 2.908.694c7.573 1.848 9.729 4.369 2.417 2.915-5.778-1.244-6.846-.881-5.47 1.924 2.017 4.028 5.202 6.042 10.825 6.708 2.883.314 6.581 1.339 8.217 2.218l2.923 1.619-1.095-2.339ZM65.58 311.315c3.718-3.237 3.765-9.132.08-12.715-1.909-1.89-6.008-2.963-8.62-2.266-3.99 1.066-7.443 7.018-6.356 11.062.272 1.011 1.522 2.767 2.835 3.887 3.956 3.433 8.165 3.471 12.061.032Zm-7.46.598c-2.98-.675-4.463-2.137-5.317-5.315-.855-3.177.159-5.769 2.934-7.594 2.722-1.732 5.402-1.597 8.317.567 2.62 1.932 3.397 4.82 2.098 7.799-1.738 3.946-4.228 5.385-8.032 4.543Z" fill="#073137"/><path d="M62.033 306.225c1.264-2.814-2.517-5.597-4.629-3.331-2.04 2.247-.159 5.77 2.743 4.995.726-.193 1.533-.951 1.886-1.664Zm107.402-24.755c1.594-2.748 1.69-3.547.836-6.725-.758-2.816-1.543-3.999-3.388-5.365-4.846-3.273-10.747-2.084-13.616 2.861-2.85 5.017-.972 10.553 4.444 13.055 2.038.926 3.461 1.011 6.29.256 3.193-.852 3.841-1.335 5.434-4.082Zm-10.7 1.85c-2.032-.619-4.038-2.87-4.698-5.325-.214-.794.461-2.91 1.471-4.65 1.7-2.93 2.222-3.302 4.714-3.58 3.638-.352 6.843 1.734 7.755 5.128.913 3.394.33 5.562-2.116 7.453-2.176 1.742-3.975 1.99-7.126.974Z" fill="#073137"/><path d="M162.721 277.612c.763-1.21-.206-2.499-1.585-2.131-.943.251-1.315.892-1.062 1.831.369 1.372 1.975 1.563 2.647.3Zm351.049-89.714c6.256-5.075 6.958-14.318 1.538-20.301-4.509-4.911-13.731-5.081-18.99-.349-10.412 9.28-.593 26.705 12.863 22.959 1.432-.46 3.492-1.474 4.589-2.309Zm-9.338-.603c-4.345-.543-7.672-3.37-8.721-7.27-1.631-6.066 1.305-11.338 7.182-12.907 5.514-1.472 11.091 1.916 12.553 7.64.937 3.774-.206 7.33-3.295 10.012-2.943 2.643-4.23 3.064-7.719 2.525Z" fill="#073137"/><path d="M508.246 180.086c3.036-2.591-.027-8.197-3.945-7.151-3.192.852-3.971 5.471-1.333 7.476 1.826 1.293 3.591 1.209 5.278-.325Zm234.312-62.93c-7.502-4.188-8.162-6.643-.665-2.763 7.351 3.919 8.183 3.542 6.136-2.334-.917-2.541-2.269-4.966-2.952-5.481-.682-.514-4.094-1.925-7.592-3.08-3.426-1.175-6.843-2.894-7.623-3.77-1.152-1.395-1.317-1.428-1.422-.084-.307 2.326 2.518 12.251 4.107 14.69 2.093 3.156 4.852 4.741 9.583 5.568 6.285 1.108 6.367.544.428-2.746ZM628.92 143.039c2.86-4.402 6.049-8.738 7.021-9.462 1.727-1.389 1.635-1.442-3.829-1.223-13.239.515-17.602 2.222-20.263 7.654-1.516 3.037-3.3 9.707-2.574 9.513.217-.058 1.788-2.026 3.479-4.412 3.064-4.225 5.491-6.189 7.388-6.076.547.009-.269 1.311-1.792 2.879-2.707 2.658-6.108 8.52-5.778 9.748.097.361 1.612.499 3.359.342 1.8-.248 4.219-.507 5.511-.619 1.964-.215 2.858-1.228 7.478-8.344Zm-91.841 23.022c2.74-3.983 3.447-8.584 1.99-14.001-2.234-8.307-8.966-14.251-18.09-16.074-7.55-1.468-12.791-.999-18.74 1.751-10.941 5.011-18.584 12.16-25.319 23.558-2.464 4.141-4.488 7.314-4.546 7.097-.292-1.083 6.309-15 9.223-19.494 6.073-9.517 14.625-17.916 23.916-23.57 9.924-5.901 23.847-9.075 39.923-8.876 7.326.057 10.795-.637 10.407-2.082-.35-1.3-17.666-2.639-24.87-1.954-22.103 2.261-45.697 17.772-56.76 37.369-3.68 6.557-8.72 19.05-8.293 20.639.156.578 1.53 1.063 3.098 1.109l2.846.169 5.459-9.199c4.855-8.263 6.141-9.845 12.32-15.21 6.682-5.81 7.098-5.998 13.193-7.625 5.733-1.531 6.57-1.599 8.667-.456 3.089 1.653 3.521 3.55 1.244 5.784-1.972 1.92-2.072 3.573-.156 3.758 1.771.224 4.038-2.627 4.036-4.948-.046-2.775-2.071-5.099-5.203-6.044-3.297-.978-2.029-1.471 3.531-1.329 5.415.18 10.232 2.765 11.107 6.015.932 3.467-.106 5.68-4.394 9.689-3.858 3.585-4.456 5.989-1.538 6.139 3.702.173 9.12-7.156 8.912-11.978-.094-1.214-.749-3.361-1.573-4.69-1.183-2.084-1.26-2.373-.195-1.883 2.294 1.013 6.931 6.975 7.67 9.72.971 3.611.272 6.508-2.814 12.673-2.792 5.236-2.82 5.708-1.164 6.659 1.747 1.005 4.19-.035 6.113-2.716Z" fill="#073137"/><path d="M585.216 151.791c10.526-6.834 13.647-21.831 6.598-31.559l-2.108-2.92-4.208 1.123c-2.269.528-4.044 1.157-3.84 1.335 5.981 5.756 7.961 11.961 5.693 17.984-4.864 13.14-23.476 13.619-28.647.758-3.652-9.242 2.564-19.956 12.095-20.952l2.801-.283-2.044-2.396c-1.187-1.231-2.471-2.823-2.81-3.507-.674-1.058-1.274-.976-4.079.16-7.452 3.228-13.077 10.069-14.245 17.579-.884 5.963 1.233 13.835 4.948 18.106 3.289 3.843 8.512 6.783 13.521 7.768 4.66.846 12.341-.662 16.325-3.196ZM119.365 272.036c-5.854-.373-13.342-2.476-15.395-4.328-1.535-1.37-1.371-1.337 2.366-.167 4.23 1.271 17.184 2.302 17.715 1.386.425-.732-3.481-6.579-5.476-8.213-2.198-1.813-6.694-2.625-13.376-2.313-7.992.354-10.093.063-13.825-1.96l-3.273-1.758 3.32 5.693c8.182 14.226 11.948 16.084 26.402 13.155l6.284-1.213-4.742-.282Zm18.717-5.938c1.136-.69 2.426-1.963 2.958-2.879 1.004-2.048 1.583-8.858 1.166-14.165l-.357-3.929-1.266 1.654c-.749.973-3.243 3.264-5.689 5.156-2.466 1.819-4.907 4.018-5.404 4.77-.856 1.157-1.715 7.501-1.268 9.162.291 1.083 2.694-.1 5.401-2.758 3.19-3.173 3.408-3.231 2.877-1.155-.221.911-1.719 2.858-3.334 4.373l-2.943 2.643 2.902-.775c1.576-.498 3.82-1.406 4.957-2.097Zm112.384-32.274c4.76-1.967 7.665-4.756 8.968-8.587.975-2.737 2.069-16.886 1.405-17.329-.184-.105-.72.502-1.198 1.327-1.88 3.133-4.694 4.814-13.28 7.88-9.293 3.332-12.311 4.834-14.582 7.376-1.61 1.823-3.013 7.306-2.391 9.618.408 1.517.626 1.458 4.428-.021 6.95-2.784 14.302-6.682 16.327-8.693 1.953-1.993 2.026-2.012 1.471-.316-.757 2.68-6.298 6.946-12.378 9.498-7.111 3.059-8 4.38-1.832 2.733 2.613-.697 5.699-1.366 6.899-1.531 1.2-.166 3.938-.974 6.163-1.955Z" fill="#073137"/><path d="M581.603 140.372c4.021-4.711 3.752-12.07-.664-15.767-3.753-3.255-6.681-4.022-11.034-2.86-4.353 1.162-6.523 3.212-8.173 8.064-2.09 5.821 2.684 13.447 8.819 14.286 4.2.582 8.621-.907 11.052-3.723ZM570.366 133c-.301-1.7.056-2.105 1.87-2.589 1.741-.465 2.346-.24 2.86 1.094.985 2.214-.619 4.345-2.85 3.857-1.079-.254-1.675-1.024-1.88-2.362Zm224.589-49.573c-.039-.144-2.019-.854-4.308-1.559-5.492-1.63-5.881-3.074-.524-1.95 5.85 1.225 6.754.829 5.353-2.357-1.832-3.922-4.335-5.421-10.379-6.208-3.048-.347-6.338-1.016-7.258-1.545-1.709-.86-1.762-.768-.011 3.718 1.979 5.044 5.287 8.96 8.641 10.154 1.98.71 8.699.542 8.486-.253Zm10.91-6.323c2.112-2.266 2.673-6.827 1.372-11.664-1.185-4.404-2.802-6.372-2.94-3.704.016.925-1.153 2.94-2.404 4.357-2.629 2.945-3.685 6.245-2.928 9.061.719 2.671 2.03 2.631 4.204-.27 2.497-3.144 2.686-2.73.678 1.366-1.656 3.382-.775 3.766 2.018.854Zm-217.026 38.358c3.959-2.914 5.604-8.075 4.264-13.057-2.856-10.615-16.443-12.561-21.916-3.129-2.444 4.213-2.603 8.822-.466 12.431 1.856 3.142 3.11 4.046 7.233 5.499 3.519 1.228 7.844.538 10.885-1.744Zm-10.515-1.218c-1.631-.571-3.66-2.042-4.667-3.476-1.585-2.131-1.798-2.925-1.535-5.704.735-10.568 15.557-12.125 18.296-1.943 1.981 7.366-4.82 13.593-12.094 11.123Z" fill="#073137"/><path d="M584.164 107.345c.85-1.465.059-4.118-1.538-4.852-1.69-.788-3.459.149-4.135 2.264-1.129 3.32 3.92 5.61 5.673 2.588Z" fill="#073137"/><path d="m535.108 264.876 1.028.129h6.526v1.695h-6.32v5.318l-1.092.514c-.035 0-.069-.115-.103-.347a12.34 12.34 0 0 1-.039-1.194v-6.115Zm0 8.935h7.566v5.588c0 .805-.162 1.391-.488 1.76-.317.368-.702.552-1.156.552h-.385c-.351 0-.642-.077-.874-.231-.222-.146-.381-.304-.475-.476-.12.377-.33.677-.629.9-.292.222-.677.334-1.156.334h-.232c-.257 0-.514-.03-.77-.09a1.765 1.765 0 0 1-.707-.347c-.205-.163-.372-.398-.501-.707-.128-.299-.193-.693-.193-1.181v-6.102Zm4.535 1.696v3.622c-.009.3.064.522.218.668a.87.87 0 0 0 .604.218h.128a.921.921 0 0 0 .566-.205c.188-.137.282-.394.282-.771v-3.532h-1.798Zm-3.301 0v4.046c0 .325.081.569.244.732.162.171.385.257.668.257h.231a.792.792 0 0 0 .642-.295c.171-.197.257-.523.257-.977v-3.763h-2.042Zm-51.394-12.834c0-2.975.132-5.163.394-6.563.263-1.4.569-2.1.919-2.1l5.71 2.625c-.175 1.006-.35 3.5-.525 7.482-.132 4.025-.197 9.538-.197 16.539v1.247c0 1.881.328 3.216.984 4.003.7.788 1.86 1.182 3.479 1.182h1.312c1.532 0 2.626-.328 3.282-.985.656-.612.984-2.012.984-4.2v-15.227c0-4.419.81-7.635 2.429-9.647 1.662-2.013 4.353-3.019 8.072-3.019h1.05c1.925 0 3.698.35 5.316 1.05 1.619.744 2.91 1.991 3.873 3.741 1.006 1.75 1.509 4.156 1.509 7.219v17.852c0 2.975-.153 5.381-.459 7.219-.307 1.838-.635 2.757-.985 2.757l-5.513-1.313c.132-1.138.263-3.719.394-7.744.175-4.026.263-9.429.263-16.211l.065-.722c0-2.013-.415-3.369-1.247-4.069-.787-.7-1.794-1.072-3.019-1.116h-1.116c-1.443 0-2.537.394-3.281 1.181-.7.832-1.05 2.188-1.05 4.069v14.571c0 2.8-.285 5.184-.853 7.153-.569 1.969-1.619 3.479-3.151 4.529-1.487 1.05-3.697 1.575-6.628 1.575h-1.05c-3.282 0-5.929-.853-7.942-2.56-2.012-1.662-3.019-4.572-3.019-8.729v-21.789Zm-10.369 27.637h-11.254l4.634-15.744 6.62 15.744Zm-11.254-31.486h11.254l-4.634 15.744-6.62-15.744Z" fill="#073137" fill-opacity=".7"/><path d="M539.373 261.033c-.805-7.964-4.797-15.385-11.224-20.862-6.427-5.478-14.843-8.632-23.659-8.867-8.816-.236-17.422 2.464-24.194 7.588-6.771 5.125-11.238 12.321-12.559 20.228l2.739.376c1.219-7.301 5.344-13.944 11.595-18.675 6.252-4.732 14.198-7.224 22.337-7.007 8.14.218 15.91 3.13 21.844 8.187 5.933 5.057 9.62 11.909 10.363 19.262l2.758-.23Zm.036 25.225c-.692 7.875-4.501 15.257-10.725 20.784-6.224 5.528-14.443 8.828-23.14 9.291-8.697.464-17.285-1.94-24.18-6.769-6.896-4.828-11.632-11.754-13.337-19.501l2.716-.491c1.574 7.152 5.948 13.547 12.314 18.004 6.366 4.458 14.295 6.678 22.325 6.25 8.029-.428 15.617-3.475 21.363-8.578 5.747-5.103 9.264-11.919 9.903-19.189l2.761.199Z" fill="#073137" fill-opacity=".7"/></svg>