<svg width="21" height="20" viewBox="0 0 21 20" fill="none" xmlns="http://www.w3.org/2000/svg">
<path d="M9.32737 12C9.33522 11.5352 9.38818 11.168 9.48625 10.8984C9.58433 10.6289 9.7844 10.3301 10.0865 10.002L10.8573 9.21094C11.1868 8.83984 11.3516 8.44141 11.3516 8.01562C11.3516 7.60547 11.2437 7.28516 11.028 7.05469C10.8122 6.82031 10.4984 6.70312 10.0865 6.70312C9.68632 6.70312 9.36464 6.80859 9.12142 7.01953C8.8782 7.23047 8.75659 7.51367 8.75659 7.86914H7.66797C7.67581 7.23633 7.90138 6.72656 8.34468 6.33984C8.79189 5.94922 9.37249 5.75391 10.0865 5.75391C10.8279 5.75391 11.4046 5.95312 11.8165 6.35156C12.2323 6.74609 12.4402 7.28906 12.4402 7.98047C12.4402 8.66406 12.1225 9.33789 11.487 10.002L10.8456 10.6348C10.5592 10.9512 10.416 11.4062 10.416 12H9.32737ZM9.2803 13.8574C9.2803 13.6816 9.33326 13.5352 9.43918 13.418C9.54902 13.2969 9.70986 13.2363 9.9217 13.2363C10.1335 13.2363 10.2944 13.2969 10.4042 13.418C10.5141 13.5352 10.569 13.6816 10.569 13.8574C10.569 14.0332 10.5141 14.1797 10.4042 14.2969C10.2944 14.4102 10.1335 14.4668 9.9217 14.4668C9.70986 14.4668 9.54902 14.4102 9.43918 14.2969C9.33326 14.1797 9.2803 14.0332 9.2803 13.8574Z" fill="#1C52AC"/>
<path d="M19.5855 10C19.5855 15.2447 15.3151 19.5 10.0427 19.5C4.77042 19.5 0.5 15.2447 0.5 10C0.5 4.7553 4.77042 0.5 10.0427 0.5C15.3151 0.5 19.5855 4.7553 19.5855 10Z" stroke="#D9D9DE"/>
</svg>
