<svg width="244" height="27" viewBox="0 0 244 27" fill="none" xmlns="http://www.w3.org/2000/svg">
<path d="M54.194 0H67L57.806 27H45L54.194 0Z" fill="#3D76CA"/>
<path d="M31.194 0H44L34.806 27H22L31.194 0Z" fill="#3D76CA"/>
<path d="M9.19403 0H22L12.806 27H0L9.19403 0Z" fill="#3D76CA"/>
<path d="M121.776 0H134L125.224 27H113L121.776 0Z" fill="#3D76CA"/>
<path d="M100.194 0H113L103.806 27H91L100.194 0Z" fill="#3D76CA"/>
<path d="M78.194 0H91L81.806 27H69L78.194 0Z" fill="#3D76CA"/>
<path d="M187.194 0H200L190.806 27H178L187.194 0Z" fill="#3D76CA"/>
<path d="M165.194 0H178L168.806 27H156L165.194 0Z" fill="#3D76CA"/>
<path d="M143.194 0H156L146.806 27H134L143.194 0Z" fill="#3D76CA"/>
<path d="M231.194 0H244L234.806 27H222L231.194 0Z" fill="#3D76CA"/>
<path d="M209.194 0H222L212.806 27H200L209.194 0Z" fill="#3D76CA"/>
</svg>
