<svg width="1019" height="583" viewBox="0 0 1019 583" fill="none" xmlns="http://www.w3.org/2000/svg">
<path d="M640.053 434.92C665.937 421.587 680.78 392.937 675.495 366.641C672.418 351.442 662.359 336.017 648.144 324.797C643.104 320.802 640.529 319.322 636.793 318.153C634.576 317.429 634.504 317.448 634.911 318.964C635.125 319.759 638.025 322.158 641.506 324.402C653.236 331.874 661.435 340.675 666.549 351.306L669.075 356.359L668.542 364.782C667.839 378.359 664.153 388.939 658.927 392.346C654.295 395.363 649.692 393.573 651.115 389.323C652.259 385.768 650.007 384.047 648.273 387.141C646.926 389.358 648.396 393.377 651.063 394.91C653.086 396.072 653.778 396.042 656.747 394.94L660.041 393.597L657.832 395.502C656.628 396.52 653.34 398.172 650.477 399.091C645.476 400.735 645.239 400.721 642.499 399.208C638.893 397.075 638.291 394.836 639.697 388.501C640.429 385.442 640.572 383.083 640.068 382.366C639.342 381.399 639.105 381.385 637.292 383.029C634.924 385.209 634.332 389.082 635.634 393.92C636.469 397.025 637.065 397.795 639.994 399.722C641.872 400.923 643.237 401.952 642.947 402.029C641.569 402.397 634.707 400.591 632.427 399.342C628.196 396.911 626.727 394.053 625.912 386.686C625.356 381.727 624.967 380.282 624.009 379.61C622.387 378.495 621.246 378.877 620.169 380.944C617.769 385.609 620.374 393.272 626.18 398.378C628.659 400.657 630.697 401.584 634.83 402.493C640.114 403.637 640.278 403.67 648.108 401.271C654.942 399.214 656.441 398.427 659.206 395.987C665.074 390.628 667.955 383.126 670.657 365.997C670.989 364.051 671.061 364.032 671.761 366.632C672.688 369.789 673.114 375.712 672.835 381.901C671.866 400.269 660.907 418.209 643.357 429.859C636.762 434.25 624.864 437.426 618.129 436.67C608.471 435.455 599.816 429.871 595.236 421.807C591.01 414.189 591.852 410.095 599.209 403.333C606.387 396.773 608.48 390.101 604.417 386.851C602.941 385.697 601.717 385.482 599.211 385.996C594.398 386.894 591.41 389.084 588.841 393.408C583.316 402.931 583.673 416.689 589.599 425.711C598.945 439.933 622.171 444.181 640.053 434.92Z" fill="#073137"/>
<path d="M865.104 365.568C866.694 363.673 866.965 359.188 865.646 356.599C865.118 355.502 863.655 354.112 862.479 353.497C860.567 352.459 860.02 352.45 858.618 353.599C856.442 355.34 856.083 358.919 857.85 359.996C859.026 360.611 859.389 360.514 860.641 359.096C862.449 357.143 863.146 357.421 863.962 360.454C864.758 363.415 863.265 365.672 859.927 366.563C856.59 367.453 853.211 365.878 848.009 360.997C842.014 355.476 839.16 351.516 833.309 340.461C827.215 329.084 822.04 321.409 816.644 315.805L812.881 311.933L818.195 313.765C828.864 317.575 835.535 316.645 842.482 310.379C845.247 307.938 846.223 306.362 846.869 303.558C849.229 293.252 839.925 283.815 831.689 288.181C826.234 291.03 824.79 298.382 829.407 299.936C832.137 300.833 835.456 299.87 836.479 297.894C837.011 296.978 837.033 295.037 836.625 293.52C835.984 291.137 836.124 290.79 837.561 290.639C840.052 290.361 843.719 293.871 844.69 297.482C846.924 305.788 838.876 313.741 828.54 313.481C822.98 313.34 821.402 312.677 793.174 298.229C773.142 287.94 766.821 285.835 735.953 279.212C709.549 273.566 704.095 273.241 680.002 276.189L676.31 276.632L683.844 271.68C693.612 265.203 705.717 254.695 715.993 243.748C745.371 212.453 766.534 196.586 786.483 190.952C800.356 187.017 807.834 199.495 795.948 206.77C793.675 208.151 792.191 208.702 791.184 208.429C790.342 208.19 788.45 208.385 787.071 208.753C784.967 209.315 784.537 209.739 784.848 210.894C785.528 213.422 788.078 213.361 793.77 210.526C799.443 207.618 801.763 205.838 803.405 202.69C805.878 198.005 805.047 194.047 800.635 190.658L798.253 188.739L805.24 189.274C809.053 189.572 815.045 190.45 818.447 191.244C829.917 193.988 833.747 196.372 837.082 202.99C841.547 211.783 837.825 220.207 828.339 222.817C824.585 223.896 823.947 223.834 821.516 222.316C818.127 220.124 815.519 219.969 814.456 221.801C812.331 225.464 818.381 227.719 826.814 226.398C835.793 225.084 841.57 219.672 841.974 212.211C842.207 208.743 840.009 202.595 837.578 199.916C836.667 198.843 836.197 197.963 836.414 197.904C837.14 197.711 851.291 206.086 860.283 212.046C870.029 218.501 870.979 219.718 871.644 226.816C872.92 239.944 872.539 241.129 862.369 251.894C860.31 254.069 860.147 256.357 861.991 256.562C867.029 257.075 873.552 248.367 874.342 240.029C874.572 237.413 874.407 231.884 873.919 227.757C873.431 223.63 873.118 220.153 873.171 220.061C873.224 219.97 875.653 220.328 878.523 220.878C882.709 221.695 885.042 221.692 889.599 220.708C896.299 219.307 899.529 217.438 907.878 210.023C918.238 200.834 921.178 199.043 928.85 196.917C934.945 195.291 936.237 195.178 939.876 195.987C945.819 197.264 951.901 201.369 957.418 207.714C961.356 212.236 962.461 214.031 964.014 218.648C965.587 223.337 965.68 224.551 964.99 226.902C964.054 229.784 960.947 233.554 959.06 234.058C958.48 234.213 958.813 233.427 959.925 232.357C962.09 229.998 962.47 227.652 960.746 225.868C958.445 223.386 953.047 225.291 952.233 228.914C951.741 231.135 953.647 235.038 955.816 236.162C958.241 237.373 962.285 236.216 964.194 233.771C968.369 228.477 968.431 222.346 964.266 214.091C956.655 199.094 943.152 191.397 929.278 194.171C921.978 195.655 917.916 197.901 909.025 205.615C901.517 212.108 897.862 214.709 897.59 213.698C897.512 213.41 898.478 211.217 899.675 208.73C902.607 203.148 902.375 199.107 898.955 195.066C895.981 191.526 894.766 190.766 890.714 189.293C883.018 186.703 875.665 192.614 877.554 199.927C878.409 203.105 879.891 204.567 882.872 205.242C886.255 205.965 888.103 205.317 889.591 202.752C890.6 201.012 890.677 200.14 889.911 199.029C888.68 197.345 885.995 196.9 884.776 198.154C884.187 198.854 884.555 199.065 886.234 199.236C888.716 199.502 889.008 200.586 887.166 202.703C886.093 203.918 885.639 203.962 883.601 203.035C878.445 200.928 879.255 192.662 884.697 191.209C887.164 190.551 892.028 191.575 894.187 193.243C896.308 194.767 898.9 198.332 899.483 200.499C900.862 205.626 893.816 213.545 885.462 216.316C877.762 218.914 873.88 217.782 862.008 209.495C840.291 194.393 821.505 186.713 803.834 185.779C797.834 185.445 787.823 186.105 783.595 187.156C780.673 187.858 780.673 187.858 784.682 185.705C790.607 182.575 811.619 176.27 821.034 174.841C838.208 172.192 855.743 171.459 882.961 172.322C908.611 173.138 913.362 172.876 922.181 170.677C926.534 169.515 932.426 167.71 935.086 166.613C941.766 163.979 945.129 164.629 951.521 169.889C957.69 174.899 959.874 175.787 963.792 174.742C968.073 173.599 970.832 169.689 969.735 166.189C968.963 163.608 966.784 161.868 965.672 162.939C965.314 163.344 965.34 164.885 965.729 166.329C966.603 169.579 965.653 172.697 963.621 173.239C960.283 174.13 955.675 172.032 949.592 166.766C947.336 164.737 945.206 163.757 942.355 163.28C940.071 162.883 938.295 162.351 938.309 162.115C938.396 161.86 941.604 157.597 945.495 152.689C956.377 138.792 959.723 130.701 959.575 118.588C959.508 109.085 954.793 102.835 948.844 104.423C943.982 105.721 940.07 112.571 942.685 115.356C944.652 117.462 947.023 117.604 948.685 115.689C950.546 113.644 950.099 111.983 947.544 111.736C945.062 111.47 944.756 110.623 946.472 108.617C949.599 104.918 955.034 106.332 956.355 111.242C957.21 114.42 957.207 121.929 956.327 127.04C954.932 135.153 948.736 147.102 941.993 154.707C939.132 157.948 927.204 167.091 926.469 166.669C926.285 166.563 927.599 164.509 929.435 162.084C934.552 155.377 937.653 144.642 936.948 136.238C936.698 133.286 936.626 133.305 935.333 142.088C933.79 152.252 927.552 161.735 919.819 165.657C914.2 168.473 904.035 169.715 889.325 169.384C839.419 168.308 824.88 169.479 799.823 176.942C780.804 182.56 771.17 187.222 756.422 197.737C746.646 204.759 741.067 210.041 728.549 224.219C718.68 235.522 710.221 243.973 708.407 244.457C708.044 244.554 709.42 241.864 711.531 238.437C716.319 230.502 719.958 221.481 728.27 196.582C737.712 168.364 742.99 158.208 751.813 150.822C759.486 144.362 766.679 143.061 770.105 147.41C772.265 150.239 772.269 153.722 770.116 159.018C768.07 164.131 768.265 166.014 770.974 165.678C773.321 165.439 776.272 159.929 776.311 155.739C776.278 151.568 774.848 148.853 771.211 146.031C768.756 144.132 768.456 143.593 769.36 143.197C770.787 142.429 776.677 143.798 779.93 145.484C783.643 147.435 786.729 151.1 788.349 155.39C789.703 158.976 789.688 159.212 787.621 163.092C785.414 167.319 785.348 168.808 787.188 169.865C790.315 171.662 794.225 166.825 793.828 161.59C793.387 155.903 789.117 148.992 783.471 144.771C774.818 138.334 760.261 140.594 748.522 150.152C741.512 155.894 737.629 163.432 725.534 194.216C711.065 231.208 702.555 247.567 696.823 249.097C695.807 249.368 694.839 249.239 694.742 248.878C694.431 247.723 695.655 242.442 698.997 230.868C714.842 175.862 735.36 138.804 765.095 111.439C771.626 105.361 779.342 99.3533 785.005 95.8294C798.008 87.7918 820.991 87.0756 829.514 94.4761C832.526 97.0006 834.23 103.048 833.403 108.068C832.441 113.743 833.461 112.619 834.602 106.741C835.545 102.155 835.505 100.85 834.283 97.4605C832.449 92.3769 828.512 89.0157 822.36 87.2519C815.879 85.4211 810.978 85.4135 802.517 87.2075L795.144 88.7109L798.747 86.2013C801.827 84.0633 804.308 83.1688 816.479 79.8428C828.94 76.4394 831.392 76.0169 837.15 76.0281C856.355 76.0108 869.498 82.9521 875.003 96.1896C876.104 98.8371 876.372 100.701 876.142 103.316C875.447 109.694 870.511 114.185 866.827 111.763C863.917 109.908 864.146 106.132 867.12 105.337C868.281 105.028 868.412 105.225 867.92 106.285C867.287 107.692 868.164 108.929 869.688 108.522C870.994 108.174 871.137 105.813 869.81 104.929C868.464 103.973 865.035 104.811 864.184 106.276C863.334 107.741 864.456 111.622 866.044 112.901C866.727 113.415 868.556 113.856 870.013 113.777C881.01 113.318 882.447 97.8408 872.579 86.3097C860.352 72.0798 829.819 70.1671 803.668 81.9463C786.958 89.5027 776.339 96.2847 762.348 108.456C734.836 132.519 714.571 166.181 698.347 214.864C695.882 222.179 691.839 234.327 689.321 241.733L684.863 255.23L677.732 261.391C660.58 276.264 644.566 282.938 621.425 285.09C619.606 285.266 619.064 285.565 619.258 286.287C619.783 288.237 622.12 288.542 631.874 287.797C639.736 287.246 645.367 286.207 661.031 282.568C680.725 278.008 695.044 275.734 702.699 275.858C712.396 276.057 725.639 280.185 730.723 284.633C734.607 288.086 736.311 292.972 734.799 296.317C733.974 298.163 733.234 298.592 728.518 299.851C723.366 301.226 723.24 301.337 723.508 303.201C724.102 307.145 731.293 307.857 735.098 304.365C741.237 298.856 740.018 289.119 732.624 283.894C726.669 279.678 726.354 279.375 729.452 280.483C734.529 282.301 744.097 288.959 747.885 293.211C750.801 296.535 751.814 298.277 752.766 301.816C754.145 306.944 753.722 309.998 750.896 314.236C748.229 318.198 745.153 319.484 737.165 320.145C727.009 320.844 723.082 322.434 723.878 325.395C724.364 327.2 727.739 329.628 730.628 330.25C733.682 330.905 742.046 328.75 746.176 326.177C753.047 321.944 757.022 314.458 756.066 307.437C755.432 302.188 756.269 302.119 758.287 307.309C761.848 316.498 761.469 329.836 757.483 335.544C754.565 339.729 749.739 343.184 742.213 346.431C735.394 349.413 731.376 352.111 730.681 354.154C729.479 357.493 734.196 361.73 738.652 361.237C740.089 361.086 743.098 360.128 745.25 359.166C751.595 356.157 755.772 352.023 760.109 344.441C766.186 334.072 767.098 326.475 763.951 314.776C760.984 304.035 755.43 295.532 746.152 287.636L741.421 283.636L746.134 284.39C765.351 287.311 796.061 300.864 808.468 311.718C815.718 318.142 819.705 323.425 829.689 339.724C841.378 358.897 849.08 367.291 855.618 368.177C859.16 368.625 863.514 367.463 865.104 365.568Z" fill="#073137"/>
<path d="M467.57 455.175C478.21 448.775 485.447 434.926 485.346 421.256C485.208 408.602 481.299 398.115 473.071 388.626C467.87 382.586 457.514 373.278 451.73 369.405C449.557 367.973 448.095 366.584 448.399 366.27C448.684 365.885 450.464 365.564 452.321 365.533C459.33 365.287 482.72 357.728 482.215 355.851C482.021 355.129 482.166 355.09 471.179 358.178C456.638 362.214 445.232 362.008 431.988 357.573C424.314 355.056 413.207 348.735 407.421 343.701C404.575 341.211 403.418 340.669 401.822 341.094C400.081 341.559 399.922 341.834 400.524 344.072C401.34 347.105 406.209 350.757 421.02 359.572C426.484 362.834 432.747 367.043 434.984 369C447.165 379.6 454.466 391.426 452.43 397.154C451.523 399.563 447.231 403.262 444.257 404.056C439.035 405.45 431.476 402.206 429.324 397.673C427.38 393.626 429.42 387.045 432.593 387.282C433.14 387.291 433.891 388.638 434.376 390.443C435.114 393.186 435.56 393.687 437.572 394.233C439.658 394.759 440.001 394.59 442.19 392.613C445.544 389.474 444.937 386.927 440.247 384.233C437.121 382.436 436.134 382.235 433.595 382.913C427.212 384.617 424.493 389.831 426.299 396.545C427.775 402.033 431.043 404.643 437.966 405.813C442.954 406.725 448.665 405.124 451.511 402.12C456.416 396.941 455.401 388.545 448.683 378.886C442.468 369.943 441.925 369.082 442.37 368.421C442.563 367.983 445.868 369.577 449.677 371.888C466.273 381.851 477.161 395.737 475.622 405.047C475.122 407.812 472.9 411.113 471.159 411.578C470.942 411.636 468.996 410.762 466.736 409.586C462.124 407.18 460.146 407.631 460.618 410.832C461.027 413.509 465.059 416.069 468.498 415.848C471.318 415.637 475.924 412.241 477.46 409.277C477.952 408.217 478.327 405.563 478.271 403.334L478.112 399.275L480.013 404.03C484.523 415.594 482.783 427.047 475.87 430.827C471.954 433.033 467.731 432.071 459.764 427.311C451.705 422.497 449.349 422.12 448.806 425.593C448.292 428.593 450.006 430.921 454.788 433.669C461.041 437.262 466.043 437.939 471.894 435.99C475.463 434.805 477.068 433.835 478.909 431.719C483.591 426.29 483.713 428.192 479.218 436.047C474.563 444.177 470.74 447.596 464.449 449.353C459.951 450.553 458.931 450.516 450.503 448.665C438.509 445.985 435.172 446.876 436.609 452.218C437.794 456.623 444.254 459.541 452.942 459.466C458.079 459.488 462.465 458.163 467.57 455.175Z" fill="#073137"/>
<path d="M714.883 377.614C721.344 373.876 723.264 372.048 719.926 372.939C716.878 373.752 713.456 372.885 705.283 369.105C701.207 367.251 696.569 365.625 695.074 365.559C692.228 365.39 687.753 366.972 684.62 369.202C682.855 370.447 682.874 370.519 684.569 371.615C686.632 372.923 697.238 376.208 700.524 376.569C703.481 376.864 702.95 377.78 699.674 378.035C697.4 378.255 690.429 376.632 683.778 374.459C681.305 373.648 681.305 373.648 682.472 374.807C684.884 377.415 694.442 382.296 697.84 382.783C702.534 383.465 707.503 381.984 714.883 377.614Z" fill="#073137"/>
<path d="M560.44 413.167C570.905 408.129 573.823 394.116 566.291 384.904C563.37 381.272 561.636 380.031 557.644 378.775C545.244 374.887 532.51 384.787 533.326 397.649C533.744 404.117 537.896 410.593 543.299 413.331C548.294 415.712 555.29 415.703 560.44 413.167ZM547.9 408.465C542.097 406.841 538.205 399.598 539.795 393.369C542.943 381.074 560.617 381.155 563.899 393.359C566.521 403.108 557.966 411.196 547.9 408.465Z" fill="#073137"/>
<path d="M558.906 403.129C563.749 398.585 560.962 388.803 554.507 387.353C547.083 385.774 540.935 391.827 542.858 398.976C544.781 406.125 553.473 408.371 558.906 403.129ZM550.148 398.036C549.335 397.324 549.233 396.655 549.672 395.687C550.55 393.749 552.04 393.506 553.469 395.06C555.842 397.522 552.647 400.388 550.148 398.036Z" fill="#073137"/>
<path d="M602.705 374.116C612.769 370.191 622.316 361.452 627.237 351.702C631.998 342.227 633.513 328.201 630.813 318.163C629.298 312.531 624.829 304.59 620.223 299.319C603.042 279.679 572.497 278.003 553.225 295.685C545.239 303.002 540.569 311.369 538.523 321.977C537.05 329.8 537.258 334.621 539.414 342.636C541.571 350.652 543.81 354.93 549.012 360.972C562.444 376.504 583.665 381.675 602.705 374.116ZM586.003 363.482C571.958 363.593 560.063 356.087 554.535 343.631C545.603 323.725 559.417 299.914 581.153 297.75C588.192 297.033 594.187 298.219 600.529 301.557C611.391 307.248 618.001 317.945 618.057 330.004C618.126 336.332 617.012 340.577 613.83 346.38C608.155 356.795 597.334 363.399 586.003 363.482Z" fill="#073137"/>
<path d="M598.516 355.653C606.475 351.129 611.442 344.154 613.059 335.131C613.925 330.256 613.885 328.951 612.331 323.174C610.777 317.397 610.157 316.247 606.96 312.456C594.138 297.458 571.332 298.824 560.966 315.213C547.474 336.461 565.866 363.207 590.618 358.38C593.143 357.939 596.621 356.701 598.516 355.653ZM583.135 345.595C574.425 344.437 568.283 336.634 569.712 328.358C571.813 315.646 587.402 310.866 596.193 320.129C599.903 324.092 601.177 330.563 599.367 335.69C596.819 342.407 590.074 346.529 583.135 345.595Z" fill="#073137"/>
<path d="M799.011 317.76C800.49 315.74 802.511 309.085 801.495 309.356C801.278 309.414 800.065 310.976 798.765 312.794C797.537 314.593 795.816 316.291 795.018 316.504C793.784 316.833 793.905 316.414 795.64 314.48C797.482 312.363 799.385 308.448 799.093 307.365C799.054 307.22 797.288 307.305 795.251 307.539L791.487 308.002L787.351 314.602C785.061 318.233 782.707 321.338 782.054 321.513C781.183 321.745 781.169 321.981 781.905 322.404C782.457 322.721 786.149 322.278 790.126 321.448C796.826 320.047 797.533 319.781 799.011 317.76Z" fill="#073137"/>
<path d="M497.835 386.342C503.641 381.619 504.329 372.612 499.335 367.057C496.773 364.18 494.696 363.109 490.825 362.595C480.911 361.294 473.565 369.833 476.226 379.726C478.674 388.825 490.284 392.382 497.835 386.342ZM486.616 386.55C483.069 385.794 479.257 382.323 478.403 379.145C477.16 374.524 479.578 368.77 483.819 366.322C485.912 365.144 487.165 364.887 489.957 365.148C500.031 366.174 503.657 378.209 495.801 384.563C493.051 386.768 490.327 387.34 486.616 386.55Z" fill="#073137"/>
<path d="M492.667 377.815C494.261 375.067 491.103 371.421 487.91 372.273C485.806 372.835 484.922 374.464 485.544 376.775C485.816 377.786 486.509 378.916 487.153 379.286C487.797 379.656 489.127 379.688 490.143 379.417C491.159 379.146 492.295 378.456 492.667 377.815Z" fill="#073137"/>
<path d="M538.05 367.777C541.801 364.376 541.926 358.77 538.188 355.279C532.875 350.273 523.837 354.543 524.052 361.993C524.233 368.446 533.148 372.104 538.05 367.777ZM529.432 366.672C526.009 364.644 525.14 361.703 526.98 358.425C529.903 353.388 537.079 354.337 538.574 359.897C539.079 361.775 538.902 363.138 537.853 364.733C535.829 367.905 532.835 368.627 529.432 366.672Z" fill="#073137"/>
<path d="M533.904 361.609C534.198 360.679 531.957 359.574 531.479 360.399C531.247 360.693 531.204 361.401 531.359 361.978C531.651 363.062 533.596 362.775 533.904 361.609Z" fill="#073137"/>
<path d="M803.56 296.429C808.028 294.539 810.774 292.026 811.942 288.851C812.849 286.442 814.659 272.646 814.271 271.202C814.173 270.841 813.458 271.651 812.589 273.044C811.758 274.582 809.298 276.709 806.43 278.481C801.092 281.763 798.893 284.285 798.118 288.052C797.164 292.022 797.269 295.012 798.284 294.741C799.59 294.392 806.039 288.879 807.14 287.192C807.619 286.367 808.247 285.813 808.523 285.971C809.443 286.5 805.723 291.749 802.614 294.359C800.835 295.84 799.511 297.277 799.608 297.638C799.686 297.927 799.817 298.124 799.889 298.105C800.015 297.994 801.678 297.24 803.56 296.429Z" fill="#073137"/>
<path d="M705.621 311.862C701.551 310.317 698.655 307.065 694.646 299.39C688.907 288.461 684.186 285.077 674.031 284.615C671.278 284.498 668.926 284.429 668.709 284.487C666.967 284.952 676.928 298.856 681.543 302.423L684.883 305.014L682.488 304.492C677.934 303.463 672.608 298.693 667.506 291C663.528 285.173 663.117 285.67 665.664 293.117C671.142 309.146 675.471 311.938 696.604 313.03C702.677 313.344 707.926 313.491 708.289 313.394C708.724 313.278 707.528 312.591 705.621 311.862Z" fill="#073137"/>
<path d="M780.826 283.939C786.193 277.013 785.777 272.868 778.651 261.692C774.931 255.953 774.82 255.828 775.084 258.544C775.182 260.065 774.662 262.757 773.89 264.511C773.118 266.265 771.747 269.262 770.869 271.198C770.063 273.116 769.34 275.63 769.341 276.791C769.43 278.856 772.275 284.52 773.838 285.418C775.125 286.158 776.588 283.213 778.086 276.933C779.121 272.4 779.44 271.851 779.906 273.584C780.469 275.677 779.695 280.604 778.128 284.892C777.641 286.26 777.405 287.406 777.589 287.512C777.773 287.618 779.203 285.998 780.826 283.939Z" fill="#073137"/>
<path d="M925.225 246.9C925.109 246.467 924.813 246.236 924.451 246.333C922.855 246.759 919.077 241.963 916.56 236.367C912.721 227.873 911.529 226.333 907.1 224.033C902.948 221.891 898.06 220.487 897.582 221.311C897.104 222.135 902.449 231.311 905.195 234.293L907.849 237.222L904.644 235.136C901.532 233.104 899.376 230.583 895.742 224.588L893.925 221.591L895.261 227.425C896.952 234.868 899.21 238.057 904.756 240.756C909.606 243.176 925.497 247.911 925.225 246.9Z" fill="#073137"/>
<path d="M531.107 349.483C536.276 347.02 536.03 347.55 534.515 341.918C533.058 336.503 532.576 328.351 533.419 324.257C533.963 321.944 533.871 321.892 532.339 322.842C516.534 332.014 500.182 334.521 484.736 330.286C469.64 326.19 457.59 316.947 449.309 303.216C444.905 295.802 441.526 283.238 441.652 274.46C441.688 266.789 443.735 257.343 446.81 250.564C449.406 244.608 455.314 236.221 458.818 233.351C460.167 232.295 461.187 231.171 461.128 230.955C461.051 230.666 459.676 230.181 458.104 229.827C453.952 228.846 447.176 224.464 444.071 220.727L441.432 217.562L437.073 222.749C425.642 236.325 418.791 254.792 418.378 272.624C417.58 312.15 445.439 346.348 484.494 353.954C496.628 356.287 505.804 356.004 518.795 352.847C524.637 351.442 530.15 349.97 531.107 349.483Z" fill="#073137"/>
<path d="M650.541 312.726C655.823 307.214 651.987 297.867 644.216 297.31C640.094 297.017 637.657 298.364 635.372 302.302C633.938 304.774 633.774 305.902 634.415 308.285C635.989 314.134 640.515 316.796 646.174 315.285C647.698 314.878 649.646 313.739 650.541 312.726ZM639.935 312.616C635.152 309.868 635.43 302.518 640.31 300.133C646.582 297.143 652.824 303.293 649.85 309.583C648.127 313.293 643.595 314.658 639.935 312.616Z" fill="#073137"/>
<path d="M645.173 306.652C645.216 305.944 644.751 305.371 644.02 305.257C642.505 305.119 641.404 306.806 642.348 307.715C643.385 308.677 644.995 308.015 645.173 306.652Z" fill="#073137"/>
<path d="M418.09 373.305C419.719 371.554 422.665 365.736 422.393 364.724C422.315 364.435 420.787 365.695 419.013 367.485C417.094 369.313 414.661 370.969 413.21 371.356L410.743 372.015L413.6 369.626C417.231 366.644 420.407 362.545 419.666 361.814C419.351 361.511 417.178 361.239 414.826 361.17L410.543 361.152L404.742 367.346C401.484 370.848 398.017 373.863 397.001 374.135L395.134 374.71L397.22 375.237C400.497 376.143 411.4 376.485 413.94 375.807C415.246 375.458 417.123 374.338 418.09 373.305Z" fill="#073137"/>
<path d="M389.079 364.353C396.66 359.002 399.625 348.923 396.008 340.678C393.942 335.889 388.785 331.461 383.64 329.97C372.713 326.927 362.461 332.759 359.366 343.802C358.475 347.136 358.534 348.513 359.777 353.135C360.807 356.962 361.863 359.157 363.292 360.71C366.13 363.745 370.565 366.354 374.441 367.177C378.574 368.086 385.747 366.713 389.079 364.353ZM373.338 362.208C368.077 360.285 364.696 356.388 363.772 351.217C362.546 344.347 365.737 337.999 372.043 334.846C376.903 332.388 385.386 334.148 389.43 338.486C391.75 341.04 393.537 347.684 392.844 350.888C390.753 359.882 381.624 365.26 373.338 362.208Z" fill="#073137"/>
<path d="M384.917 352.927C389.366 346.631 383.18 338.375 375.489 340.428C372.079 341.338 369.23 346.356 370.182 349.894C371.114 353.36 373.139 355.684 375.863 356.272C379.483 357.009 382.96 355.771 384.917 352.927Z" fill="#073137"/>
<path d="M732.777 269.01C735.9 266.164 737.007 260.451 735.286 256.654C732.677 251.003 725.437 248.369 719.851 251.021C716.398 252.639 713.524 257.277 713.513 260.994C713.46 270.916 725.387 275.936 732.777 269.01ZM723.111 269.501C714.193 267.856 713.948 255.383 722.727 253.04C725.557 252.285 726.525 252.413 729.192 253.946C731.583 255.32 732.475 256.32 733.018 258.342C733.99 261.953 733.098 265.287 730.637 267.414C727.998 269.744 726.547 270.131 723.111 269.501Z" fill="#073137"/>
<path d="M727.006 262.579C728.599 259.832 725.292 257.077 722.996 259.237C721.131 260.974 723.176 264.53 725.57 263.891C726.005 263.775 726.634 263.22 727.006 262.579Z" fill="#073137"/>
<path d="M430.621 350.148C432.671 348.518 433.567 345.492 433.567 339.997C433.597 336.351 432.79 332.774 432.269 334.306C432.115 334.889 429.515 337.364 426.459 339.882C421.949 343.64 421.002 344.744 421.105 346.574C421.107 347.734 421.152 349.348 421.128 350.128C421.087 351.996 422.499 351.465 426.197 348.156C427.884 346.622 429.411 345.363 429.556 345.324C430.427 345.092 427.601 349.329 425.735 351.065L423.545 353.043L426.085 352.365C427.463 351.997 429.523 350.983 430.621 350.148Z" fill="#073137"/>
<path d="M777.703 240.764C774.92 239.959 770.14 235.197 765.513 228.692C763.962 226.397 761.608 224.006 760.32 223.266C757.745 221.786 751.488 221.367 747.352 222.471L744.595 223.206L748.625 227.781C750.834 230.21 754.166 233.346 756.011 234.711C759.589 237.317 759.667 237.605 756.12 236.849C753.303 236.208 750.001 233.761 745.399 228.797L741.912 225.084L743.784 230.312C744.799 233.215 746.607 236.757 747.779 238.224C750.216 241.212 754.771 243.402 758.691 243.517C763.065 243.587 776.258 242.62 778.363 242.058L780.249 241.555L777.703 240.764Z" fill="#073137"/>
<path d="M619.001 280.387C633.116 267.256 640.263 245.849 635.927 229.44C633.708 220.902 629.307 215.809 621.943 213.286C613.718 210.452 606.232 217.016 611.369 222.532C613.519 224.743 617.521 222.282 616.725 219.322C616.473 218.384 615.795 218.177 614.562 218.507C612.459 219.068 612.46 220.228 614.545 220.755C615.88 221.095 615.9 221.167 614.469 221.627C612.075 222.266 610.235 220.049 611.156 217.404C612.405 213.666 618.591 213.253 623.837 216.572C628.769 219.589 630.154 221.85 632.252 229.648C634.509 238.331 634.742 243.531 633.259 250.736C631.661 258.669 628.417 265.106 621.215 274.457C617.65 279.123 614.674 283.09 614.549 283.201C614.443 283.384 614.52 283.673 614.704 283.778C614.907 283.956 616.904 282.418 619.001 280.387Z" fill="#073137"/>
<path d="M305.095 365.376C308.063 361.951 308.82 359.271 308.485 353.398C308.096 346.456 306.036 338.798 301.01 325.892C295.639 311.994 295.23 309.316 296.997 300.559C298.866 291.311 302.74 284.314 308.268 280.283C313.868 276.233 326.398 272.5 344.408 269.473C359.727 266.855 371.571 263.461 377.834 259.853C379.837 258.621 381.626 257.756 381.738 257.882C381.922 257.987 381.303 259.159 380.342 260.5C379.453 261.821 378.689 263.032 378.728 263.176C378.767 263.321 380.765 262.942 383.126 262.467C387.249 261.598 387.645 261.338 390.536 257.624C392.213 255.472 395.384 252.225 397.633 250.463C401.337 247.461 401.622 247.076 400.74 245.53C399.179 242.617 398.414 242.667 393.805 246.065C388.297 250.168 382.091 252.832 370.842 255.835C354.586 260.175 347.815 259.582 335.632 252.458C331.491 250.079 327.065 246.925 325.82 245.476C322.739 242.118 318.851 235.18 318.814 233.022C318.78 232.024 320.379 229.584 322.724 227.022C326.949 222.487 327.871 219.841 326.329 217C325.127 214.844 322.15 214.477 317.873 215.928C315.174 216.881 314.651 217.253 314.982 218.481C315.312 219.709 315.878 219.79 318.999 218.957C322.12 218.124 322.686 218.205 323.253 219.447C324.107 221.465 322.677 224.247 319.017 227.702C316.522 229.994 315.957 231.074 316.24 232.702C316.566 234.783 316.217 234.644 308.281 229.717C303.714 226.909 298.035 224.012 295.745 223.307C290.725 221.705 281.327 222.045 276.784 223.955C271.647 226.256 269.91 231.365 273.175 234.83C275.365 237.188 283.079 237.529 286.015 235.429C287.509 234.333 286.475 231.357 284.409 230.902C282.322 230.375 280.736 231.418 281.144 232.935C281.571 234.524 279.824 234.681 277.505 233.287C274.706 231.556 274.496 229.909 276.735 227.53C279.171 225.021 282.49 224.058 288.196 224.161C298.224 224.426 305.584 228.656 318.523 241.772C323.731 246.963 329.446 252.019 332.153 253.697L336.904 256.61L330.064 255.184C326.279 254.413 319.013 252.559 313.814 251.159C300.87 247.569 286.392 244.929 265.028 242.425C234.754 238.892 220.39 238.701 203.126 241.606C190.187 243.821 179.501 247.758 158.082 258.354C148.829 262.993 136.32 269.12 130.264 272.053C111.679 281.041 93.0594 293.368 79.0906 305.924C70.8853 313.302 66.3052 316.229 60.572 317.759C56.2176 318.922 54.9593 318.87 46.8031 317.176C38.9035 315.568 37.316 315.45 33.5422 316.458C27.9541 317.95 25.1689 320.319 23.4992 325.101C21.81 329.811 22.1037 333.217 24.405 335.7C27.0793 338.702 34.6538 339.39 34.9366 336.682C34.9989 336.046 33.7435 333.981 32.1251 332.013C28.777 327.951 27.729 325.211 28.6896 322.709C29.2496 321.32 30.2799 320.813 34.344 319.728C38.8435 318.527 40.1018 318.578 47.9094 320.133C57.5999 322.037 63.1698 321.634 68.8242 318.653C70.6671 317.697 72.2779 317.035 72.462 317.14C72.6459 317.246 70.6574 322.578 68.1036 328.989C56.1646 358.349 54.3789 368.195 58.2648 382.644C61.3735 394.203 66.0702 401.544 72.8058 405.476C77.8659 408.383 80.7506 408.697 86.5033 407.239C90.7851 406.096 92.0136 405.458 94.5228 402.93C96.3503 401.048 97.964 398.372 98.7263 396C100.646 389.835 98.7743 385.767 93.7696 385.089C89.1861 384.532 86.0174 385.765 84.1911 388.808C82.3311 392.015 82.4334 392.684 85.0094 394.165C86.5735 395.064 87.5027 395.048 89.4376 394.144C92.9108 392.597 94.3828 393.443 93.7034 396.412C92.5999 401.275 88.3204 404.741 82.77 405.216C76.5807 405.629 68.0028 398.318 63.8558 388.972C58.6853 377.266 59.3899 360.507 65.7676 345.177C75.6118 321.332 77.3603 318.001 85.181 308.325C88.8788 303.853 91.1366 301.547 91.708 301.936C91.892 302.042 91.696 304.495 91.2149 307.333C90.6612 310.191 90.2978 314.624 90.2858 317.183C90.3487 322.044 92.6476 332.039 94.4899 335.418C97.3843 340.685 102.808 344.657 107.348 344.762C110.319 344.82 115.95 342.62 116.385 341.343C116.558 340.832 116.229 340.765 115.634 341.156C113.889 342.474 107.438 342.492 104.3 341.239C99.8221 339.338 96.8757 335.323 94.9911 328.316C91.7801 316.087 94.7532 303.136 102.543 295.946C112.503 286.706 133.368 274.631 157.739 264.021C176.194 255.997 193.886 250.345 195.064 252.121C195.306 252.443 193.145 255.111 190.24 257.9C187.334 260.689 183.505 264.963 181.741 267.37C173.67 278.429 171.834 286.353 173.775 301.089C174.906 309.923 174.303 316.357 171.917 320.788C164.173 335.089 143.53 341.917 136.358 332.604C133.529 329.023 131.856 321.649 132.839 317.205C134.55 309.392 141.031 305.726 147.03 309.235C150.783 311.331 152.796 316.213 151.149 319.053C149.82 321.344 147.101 322.225 145.387 321.056C144.336 320.33 144.326 319.713 145.146 317.559C146.334 314.454 145.757 313.756 143.528 315.59C141.821 317.053 141.577 319.905 142.949 322.404C144.19 324.705 148.057 324.912 150.828 322.778C160.311 315.523 152.317 301.707 140.377 304.739C135.858 305.868 132.86 308.605 130.987 313.208C129.08 317.976 129.02 320.935 130.599 327.095C133.207 337.084 140.137 341.738 150.633 340.562C153.798 340.182 161.112 337.3 163.849 335.331C165.324 334.163 160.582 344.875 157.63 349.225C150.763 359.266 141.02 362.951 134.394 357.983C131.958 356.156 131.439 354.514 132.152 351.381C133.014 347.357 138.626 345.084 140.695 347.861C141.722 349.368 140.621 351.056 139.023 350.321C138.05 349.884 137.634 350.072 137.194 351.041C136.243 352.999 137.992 355.165 139.952 354.642C142.056 354.08 142.815 352.561 142.618 349.516C142.249 343.807 134.163 344.108 131.163 350.019C128.676 354.942 131.715 360.17 138.217 362.074C140.599 362.831 142.457 362.8 145.868 361.889C153.27 359.913 155.218 357.612 167.128 337.398C172.94 327.484 178.017 318.307 178.267 316.924L178.845 314.447L180.057 316.059C187.287 325.589 195.312 331.422 202.969 332.708C211.139 334.166 218.192 330.889 215.357 327C214.199 325.296 212.887 325.336 205.514 326.84C196.886 328.601 191.198 326.249 184.429 318.144C181.88 315.031 181.032 313.321 178.813 305.938C174.652 292.492 175.216 284.753 180.781 275.369C185.623 267.34 195.031 257.782 202.861 253.059C208.346 249.737 220.795 246.568 231.117 245.903C253.033 244.388 279.17 247.864 314.86 257.074C331.406 261.33 342.524 263.627 346.314 263.544C350.959 263.466 348.299 264.563 339.652 266.252C322.524 269.663 308.205 275.422 302.906 281.172C298.038 286.498 294.785 294.646 290.355 313.173C288.341 321.299 287.003 324.134 283.401 327.806C281.071 330.131 279.716 330.88 275.725 331.945C270.5 333.34 268.05 332.91 264.079 329.712C261.328 327.581 259.74 321.965 261.116 319.275C262.459 316.748 262.987 316.685 264.267 319.131C265.397 321.307 268.19 322.729 270.368 322.148C272.109 321.683 274.926 316.827 274.46 315.093C273.935 313.143 270.352 311.389 266.998 311.355C263.572 311.341 259.698 314.001 258.424 317.361C257.164 320.485 258.122 325.495 260.584 328.864C263.569 333.022 267.849 335.055 272.839 334.807C281.796 334.274 288.406 328.483 291.754 318.374L293.665 312.754L296.926 321.407C304.418 341.166 305.398 344.233 306.086 349.393C306.958 355.819 305.847 362.388 303.618 364.222C300.813 366.519 297.886 366.913 296.035 365.239C293.889 363.334 294.091 361.19 296.331 361.134C298.591 361.15 299.64 359.554 298.979 357.097C298.319 354.641 296.609 353.781 293.687 354.484C290.837 355.167 289.716 356.783 289.932 359.9C290.56 368.017 299.855 371.343 305.095 365.376Z" fill="#073137"/>
<path d="M409.6 334.728C414.653 331.831 419.028 327.567 422.506 321.995L425.506 317.246L423.659 313.56C422.568 311.529 421.245 308.631 420.546 307.192L419.261 304.439L418.206 308.9C416.929 314.272 415.64 316.706 412.281 320.699C408.671 324.914 403.153 328.399 397.784 329.832L393.213 331.052L395.427 333.789C396.672 335.237 397.849 337.013 398.043 337.735C398.315 338.746 399.027 338.789 402.127 337.884C404.231 337.322 407.578 335.887 409.6 334.728Z" fill="#073137"/>
<path d="M564.291 283.254C568.357 281.317 571.292 280.379 575.635 279.761L581.468 278.901L581.493 274.947C581.603 264.084 578.255 249.037 573.559 239.38C569.788 231.719 563.835 223.171 562.568 223.664C562.061 223.8 559.624 225.147 557.188 226.493C552.334 229.259 545.365 230.81 540.6 230.147C539.067 229.938 537.901 229.939 537.959 230.156C537.998 230.3 539.165 231.459 540.588 232.704C552.716 243.396 559.962 263.98 557.726 281.679C557.303 284.732 557.44 286.398 557.929 286.19C558.417 285.982 561.255 284.683 564.291 283.254Z" fill="#073137"/>
<path d="M610.248 270.435C623.273 262.779 629.072 246.759 623.921 232.81C622.965 230.125 621.346 226.997 620.397 225.78C618.963 223.918 618.431 223.673 617.024 224.513C614.911 225.619 611.035 224.796 609.088 222.762C607.882 221.458 607.649 220.592 607.719 218.251C607.837 215.511 607.668 215.169 605.887 214.329C602.712 212.932 595.918 211.96 591.279 212.346C584.183 212.848 574.324 218.11 570.188 223.548C569.135 224.836 569.193 225.052 571.461 228.858C572.827 231.047 574.043 232.967 574.227 233.073C574.431 233.251 575.146 232.441 575.875 231.395C579.672 225.273 588.472 220.99 596.223 221.475C608.695 222.17 618.282 234.393 616.194 246.868C613.852 260.418 600.653 268.585 587.828 264.269L584.165 263.079L584.326 265.126C584.328 266.286 584.456 268.497 584.501 270.11C584.669 273.625 585.917 274.22 593.373 274.475C598.97 274.761 605.684 273.124 610.248 270.435Z" fill="#073137"/>
<path d="M402.356 323.985C406.075 321.909 408.404 319.585 411.192 315.203C420.423 300.665 411.937 281.259 394.812 278.013C389 276.933 380.922 278.702 376.024 282.176C366.248 289.197 362.691 303.149 368.125 313.231C370.738 318.029 373.333 320.742 377.879 323.476C384.928 327.709 395.243 327.896 402.356 323.985ZM387.533 315.713C374.516 312.996 372.684 294.91 384.909 289.479C389.015 287.687 394.164 288.325 398.274 291.175C405.59 296.111 406.306 306.291 399.901 312.257C396.958 314.9 391.265 316.575 387.533 315.713Z" fill="#073137"/>
<path d="M365.664 329.53C365.824 329.255 367.666 328.299 369.838 327.41L373.765 325.82L370.806 323.204C366.574 319.612 364.64 316.181 362.717 309.031C361.26 303.615 361.2 302.238 362.086 297.435C364.988 281.335 380.141 271.175 396.3 274.293C401.401 275.331 408.667 279.506 411.865 283.296C414.413 286.409 415.381 286.538 414.642 283.793C414.404 282.619 414.101 279.758 414.041 277.22C413.916 272.996 413.819 272.635 411.843 271.073C407.708 267.842 399.736 265.094 392.841 264.612C378.358 263.679 364.905 270.907 357.466 283.729C349.443 297.558 351.202 314.504 361.874 327.291C364.271 330.134 365.007 330.557 365.664 329.53Z" fill="#073137"/>
<path d="M680.731 243.237C680.575 242.659 677.897 240.51 674.803 238.549C671.709 236.588 669.128 234.799 669.07 234.583C668.817 233.644 672.758 234.992 677.318 237.49C679.855 238.826 682.17 239.911 682.387 239.853C682.605 239.795 681.742 238.322 680.419 236.585C677.328 232.611 672.767 230.112 668.979 230.195C665.374 230.383 651.765 233.86 651.979 234.655C652.057 234.944 653.339 235.375 654.801 235.605C656.519 235.92 659.153 237.617 662.224 240.358C664.96 242.724 668.059 244.994 669.25 245.372C670.441 245.751 673.538 245.699 676.208 245.218C680.132 244.481 680.964 244.104 680.731 243.237Z" fill="#073137"/>
<path d="M602.866 259.483C606.749 257.44 608.808 255.265 610.816 251.169C613.105 246.379 613.232 243.094 611.354 237.559C607.196 225.279 592.354 221.269 582.584 229.759C580.68 231.351 578.539 234.089 577.873 235.66C576.754 238.436 576.739 238.672 579.111 244.308C580.367 247.532 581.953 251.985 582.575 254.296C583.604 258.123 583.847 258.445 586.969 259.934C590.144 261.33 596.714 262.053 599.142 261.25C599.776 261.004 601.439 260.25 602.866 259.483ZM592.908 253.395C585.568 252.413 582.076 244.058 586.361 237.729C587.96 235.29 588.879 234.657 591.853 233.863C599.907 231.714 606.682 239.27 603.773 247.244C602.152 251.624 597.839 254.091 592.908 253.395Z" fill="#073137"/>
<path d="M854.822 190.439C855.701 189.662 856.653 187.705 856.97 185.995C857.529 183.447 857.388 182.633 856.08 180.66C852.116 174.598 842.833 176.224 841.292 183.214C840.584 186.654 841.961 189.46 845.272 191.362C848.675 193.318 851.931 192.99 854.822 190.439ZM848.614 190.78C848.252 190.876 847.134 190.478 846.122 189.897C841.891 187.466 842.822 179.942 847.611 178.664C850.295 177.947 854.395 180.181 855.095 182.781C856.008 186.175 853.206 190.792 850.361 190.623C849.742 190.634 848.977 190.683 848.614 190.78Z" fill="#073137"/>
<path d="M850.154 184.642C849.979 183.992 849.335 183.622 848.682 183.796C848.029 183.971 847.763 184.429 848.044 184.895C848.829 186.079 850.484 185.87 850.154 184.642Z" fill="#073137"/>
<path d="M887.077 163.948C888.908 162.376 890.763 160.023 891.41 158.38C892.351 155.808 892.258 154.594 890.436 146.955C889.222 141.863 887.955 138.022 887.307 137.344C886.251 136.31 886.251 136.31 886.548 137.701C887.188 140.084 885.793 142.7 881.164 148.037C876.463 153.394 875.827 155.653 877.264 160.996C878.74 166.483 879.538 166.27 883.773 159.181C886.926 153.851 887.569 153.06 887.633 154.745C887.688 155.814 886.322 159.119 884.695 162.03C881.474 167.688 881.973 168.096 887.077 163.948Z" fill="#073137"/>
<path d="M690.797 209.755C694.118 206.779 695.16 203.715 694.468 199.41C693.738 194.961 691.8 192.383 687.942 190.471C683.572 188.387 679.445 188.947 675.82 192.236C671.6 195.917 670.717 198.707 672.116 203.906C672.97 207.083 673.76 208.575 675.31 209.709C680.442 213.757 686.364 213.802 690.797 209.755ZM681.624 210.346C678.392 209.893 674.862 206.888 674.066 203.927C672.317 197.428 676.738 191.604 683.372 191.691C692.08 191.689 695.802 202.924 688.952 208.39C686.38 210.392 685.002 210.76 681.624 210.346Z" fill="#073137"/>
<path d="M685.068 203.776C686.62 202.898 686.583 199.579 685.053 198.517C682.545 196.71 678.658 199.605 679.996 202.266C680.694 203.705 683.569 204.563 685.068 203.776Z" fill="#073137"/>
<path d="M837.165 163.207C832.59 159.786 830.043 156.674 829.842 154.483C829.672 152.981 829.744 152.962 830.936 154.501C833.037 157.113 837.999 160.818 840.839 161.84L843.443 162.847L843.502 159.891C843.581 151.512 843.654 151.493 834.186 145.198C829.341 141.926 825.261 138.605 824.844 137.633L824.121 135.813L823.761 138.231C823.127 142.811 823.518 152.07 824.567 155.969C825.46 159.29 825.983 160.079 828.8 161.881C830.586 163.029 834.07 164.42 836.484 165.014L840.892 166.082L837.165 163.207Z" fill="#073137"/>
<path d="M330.342 295.724C332.711 293.543 336.187 289.983 337.937 287.812L341.078 283.877L337.566 285.279C334.417 286.584 333.323 286.566 324.456 284.83C315.753 283.127 314.423 283.095 311.307 284.237C307.921 285.528 302.786 290.15 303.175 291.595C303.408 292.462 314.366 293.872 319.848 293.725L324.329 293.613L319.632 294.944C316.076 295.893 313.472 296.046 308.981 295.542C305.695 295.18 302.922 294.992 302.869 295.083C302.603 295.541 312.154 298.953 315.959 299.796C322.087 301.18 325.26 300.255 330.342 295.724Z" fill="#073137"/>
<path d="M558.334 222.887C565.36 218.071 569.397 211.111 570.313 202.663C570.936 196.305 568.072 187.394 563.897 182.859C556.269 174.446 546.619 171.527 535.808 174.412C528.209 176.518 523.694 179.968 519.656 186.928C515.193 194.62 514.748 199.615 517.52 208.472C519.272 214.119 520.004 215.394 523.176 218.804C530.223 226.211 538.847 228.785 549.049 226.527C553.388 225.601 555.777 224.653 558.334 222.887ZM538.973 218.845C532.358 217.669 526.048 211.846 524.28 205.275C522.318 197.981 526.165 188.286 532.586 184.405C537.131 181.644 539.018 181.14 543.958 181.292C558.047 181.634 566.839 197.553 559.792 209.805C555.436 217.314 548.056 220.523 538.973 218.845Z" fill="#073137"/>
<path d="M553.083 212.602C563.631 203.827 559.091 187.237 545.44 184.767C541.182 183.968 534.299 186.424 531.438 189.665C524.967 197.119 526.425 208.03 534.476 213.389C540.242 217.19 547.944 216.915 553.083 212.602ZM540.17 208.541C537.204 207.63 534.578 204.229 534.362 201.113C533.926 195.734 539.688 190.559 544.736 191.688C548.065 192.502 551.475 195.926 551.797 198.859C552.515 205.865 546.748 210.733 540.17 208.541Z" fill="#073137"/>
<path d="M288.935 292.48C283.114 291.944 279.62 291.096 276.735 289.622C273.37 287.811 273.224 286.689 276.603 288.264C279.449 289.594 292.403 290.626 292.968 289.546C293.712 288.264 289.802 283.27 286.878 281.651C284.525 280.421 282.261 280.097 276.614 280.211C268.345 280.405 267.121 280.19 263.519 278.365C260.615 276.818 260.367 276.188 266.062 285.504C271.829 294.801 275.662 296.332 287.466 293.956L293.005 292.864L288.935 292.48Z" fill="#073137"/>
<path d="M649.709 185.687C648.349 180.632 646.79 178.882 642.823 178.006C639.441 177.284 639.379 177.92 642.65 179.677C644.194 180.503 645.487 181.551 645.623 182.057C645.758 182.562 644.312 182.097 642.4 181.06L638.998 179.105L639.634 182.34C640.194 185.286 640.547 185.733 643.17 186.813C644.748 187.475 646.988 188.579 648.164 189.194C649.36 189.881 650.424 190.371 650.569 190.332C650.787 190.274 650.388 188.214 649.709 185.687Z" fill="#073137"/>
<path d="M627.732 195.664C629.594 194.78 631.775 193.346 632.616 192.425C634.1 190.713 635.116 186.106 635.025 181.718L634.95 179.416L633.115 183.002C632.164 184.959 631.41 186.786 631.416 187.094C631.571 187.672 628.308 190.865 627.365 191.117C627.147 191.175 627.741 189.623 628.711 187.739C630.334 184.519 631.805 179.868 631.514 178.785C631.378 178.279 624.576 180.172 623.261 181.065C622.666 181.456 621.049 184.984 619.673 188.835C618.206 192.633 616.434 196.744 615.744 197.935L614.429 199.989L619.417 198.58C622.155 197.772 625.923 196.456 627.732 195.664Z" fill="#073137"/>
<path d="M418.351 247.989C418.548 246.698 418.837 245.46 418.904 245.133C418.972 244.805 417.781 244.426 416.32 244.197C408.578 243.168 403.421 234.405 406.196 227.086C407.557 223.472 412.106 219.858 415.831 219.251C419.938 218.619 424.995 220.365 427.466 223.189L429.398 225.459L431.433 222.904C433.395 220.368 433.375 220.296 431.709 218.728C425.937 213.458 420.502 212.045 413.392 213.943C407.37 215.55 404.223 218.015 401.417 223.485C399.177 227.876 398.861 231.907 400.279 237.179C401.809 242.575 406.332 247.25 411.995 249.222C416.907 251.006 417.725 250.865 418.351 247.989Z" fill="#073137"/>
<path d="M709.607 171.154C709.549 170.937 707.496 169.086 705.042 167.188C702.568 165.217 700.254 162.972 699.803 162.164C696.9 156.284 697.208 155.118 700.482 159.196C701.654 160.663 704.922 163.273 707.811 165.056C713.813 168.871 713.885 168.851 713.209 159.978L712.821 154.2L704.544 148.285C695.197 141.571 692.462 139.206 691.899 137.112C690.681 132.872 690.259 146.913 691.307 155.145C692.218 161.712 693.871 164.676 698.125 167.487C700.942 169.288 709.879 172.165 709.607 171.154Z" fill="#073137"/>
<path d="M208.405 300.85C211.069 298.9 215.136 295.802 217.418 293.876C221.426 290.561 221.479 290.47 218.993 291.056C215.471 291.841 211.119 290.99 202.996 287.971C196.228 285.365 195.991 285.351 192.078 286.705C188.091 288.079 181.882 292.756 182.324 294.109C182.616 295.192 193.337 297.75 197.237 297.792C201.81 297.733 201.758 298.986 197.143 299.753C194.598 300.123 191.021 299.839 186.815 298.949C183.175 298.14 180.324 297.662 180.402 297.951C180.713 299.107 189.07 304.153 192.386 305.204C197.387 306.733 201.813 305.552 208.405 300.85Z" fill="#073137"/>
<path d="M519.409 219.049C519.39 218.977 518.416 217.379 517.311 215.585C514.486 211.154 512.981 204.977 513.265 199.097C513.311 196.376 513.328 194.127 513.236 194.074C512.868 193.863 498.281 193.113 497.774 193.248C497.411 193.345 497.311 194.997 497.526 196.952C498.146 202.436 497.295 208.235 495.379 212.384C494.374 214.432 493.694 216.239 493.858 216.273C494.042 216.378 496.466 216.428 499.253 216.381C502.039 216.333 507.405 216.913 511.281 217.736C519.579 219.391 519.507 219.41 519.409 219.049Z" fill="#073137"/>
<path d="M307.24 274.897C313.366 270.785 311.76 260.765 304.597 258.42C301.867 257.523 297.021 258.585 294.976 260.524C292.912 262.39 291.837 266.779 292.634 269.74C293.391 272.556 296.544 275.894 298.867 276.435C301.611 277.096 304.934 276.441 307.24 274.897ZM300.089 274.329C291.422 272.463 293.451 259.77 302.296 260.273C306.781 260.469 310.188 265.906 308.377 269.872C306.639 273.819 304.057 275.204 300.089 274.329Z" fill="#073137"/>
<path d="M303.942 269.276C305.31 268.291 303.918 264.561 302.186 264.482C299.051 264.39 297.495 267.281 299.573 269.513C300.648 270.619 302.269 270.574 303.942 269.276Z" fill="#073137"/>
<path d="M480.854 224.64C487.594 220.21 491.971 213.933 493.667 206.36C494.755 201.735 494.687 200.902 492.88 194.186C491.288 188.265 490.473 186.393 488.409 183.925C484.878 179.759 477.113 175.176 471.631 174.162C467.517 173.325 466.226 173.438 459.768 175.162C453.021 176.963 452.262 177.32 448.781 180.571C443.972 184.95 440.823 190.59 439.76 196.756C439.028 200.975 439.127 202.497 440.642 208.13C442.235 214.051 442.744 215.076 445.994 218.775C452.92 226.601 462.575 229.829 472.704 227.589C475.936 226.882 479.248 225.61 480.854 224.64ZM465.555 219.513C461.017 219.409 453.344 214.878 451.148 211.053C449.011 207.444 447.751 200.737 448.532 197.278C451.528 183.553 469.162 177.995 479.361 187.578C484.562 192.459 486.607 200.35 484.363 206.754C481.531 215.017 474.559 219.742 465.555 219.513Z" fill="#073137"/>
<path d="M476.276 211.39C482.879 205.293 481.949 194.319 474.416 189.441C463.789 182.603 450.034 192.466 453.298 204.598C454.269 208.209 457.176 212.077 460.041 213.479C465.313 216.019 472.148 215.123 476.276 211.39ZM465.006 204.182C462.43 202.702 462.983 198.685 465.885 197.91C467.844 197.387 469.499 198.339 470.024 200.288C470.548 202.238 469.592 203.886 467.633 204.409C466.762 204.642 465.65 204.552 465.006 204.182Z" fill="#073137"/>
<path d="M423.941 234.654C427.558 227.575 427.387 226.072 422.604 223.324C419.109 221.316 415.181 221.745 412.217 224.317C407.567 228.421 407.341 234.519 411.545 238.582C413.361 240.419 417.61 241.762 419.714 241.2C420.294 241.045 422.14 238.076 423.941 234.654ZM416.072 232.575C415.489 230.409 417.466 228.798 419.306 229.855C420.666 230.575 420.783 231.008 420.237 232.16C419.339 234.025 416.538 234.308 416.072 232.575Z" fill="#073137"/>
<path d="M377.974 248.577C384.139 244.61 388.569 238.242 390.164 231.16C391.065 227.282 390.972 226.068 389.321 219.93C387.67 213.792 387.141 212.695 384.414 209.785C380.573 205.625 375.331 202.612 369.79 201.382C365.894 200.487 364.602 200.6 358.508 202.226C352.051 203.95 351.364 204.288 347.705 207.741C343.364 211.841 341.012 216.107 339.746 222.095C339.019 225.462 339.136 227.056 340.71 232.905C342.846 240.849 345.327 244.288 351.896 248.185C357.913 251.764 363.502 252.595 370.453 250.972C373.685 250.264 377.056 249.209 377.974 248.577ZM364.075 244.315C359.774 244.225 352.139 239.839 349.91 236.177C342.176 223.613 351.155 208.136 365.955 208.52C370.257 208.61 377.891 212.997 380.12 216.659C382.499 220.59 383.384 224.456 382.653 228.676C381.859 233.531 379.913 236.992 376.103 240.176C372.545 243.138 368.923 244.414 364.075 244.315Z" fill="#073137"/>
<path d="M372.258 240.041C381.339 235.063 383.155 222.736 375.765 215.498C371.005 210.809 363.224 209.636 357.702 212.812C348.48 218.137 346.765 229.972 354.155 237.21C358.824 241.846 366.697 243.073 372.258 240.041ZM360.978 233.377C358.403 231.897 357.695 231.002 357.035 228.547C356.374 226.092 356.538 224.965 358.026 222.4C359.513 219.836 360.412 219.132 362.879 218.473C365.346 217.815 366.478 217.977 369.054 219.457C371.629 220.936 372.336 221.831 372.997 224.286C373.657 226.742 373.494 227.869 372.006 230.433C370.519 232.997 369.619 233.702 367.152 234.36C364.686 235.018 363.553 234.856 360.978 233.377Z" fill="#073137"/>
<path d="M646.553 172.777C658.654 167.457 660.551 152.243 649.121 151.965C646.678 151.843 645.826 152.148 643.742 153.943C641.804 155.699 641.398 156.504 641.778 158.492C642.06 160.12 642.792 161.395 643.823 162.049C647.101 164.116 651.114 161.109 648.61 158.449C647.292 157.02 646.271 156.983 645.856 158.332C645.755 158.824 645.107 159.306 644.527 159.461C642.931 159.887 642.575 157.118 644.058 155.406C647.311 151.597 653.308 152.783 654.57 157.477C656.144 163.327 651.368 168.705 642.68 171.101C632.686 173.846 624.549 171.064 611.653 160.418C608.162 157.557 603.202 152.998 600.514 150.232C597.826 147.466 595.312 145.35 594.93 145.375C594.567 145.472 594.05 146.151 593.862 146.898C593.36 148.503 599.3 156.129 605.311 161.414C610.251 165.901 620.776 172.071 626.217 173.793C632.664 175.787 640.638 175.362 646.553 172.777Z" fill="#073137"/>
<path d="M577.95 185.838C587.507 177.715 591.382 167.548 590.077 153.733L589.866 150.925L587.797 152.484C586.249 153.671 585.651 154.914 585.614 157.091C585.474 161.772 584.543 164.962 582.427 168.081C579.654 172.226 576.622 173.964 569.197 175.559L562.807 176.955L565.849 180.168C567.501 181.972 569.482 185.003 570.317 186.947C571.151 188.892 572.033 190.436 572.25 190.378C572.541 190.301 575.093 188.226 577.95 185.838Z" fill="#073137"/>
<path d="M245.14 273.083C249.207 271.146 251.802 268.364 253.038 264.861C254.027 261.887 254.728 251.483 253.9 251.008C253.696 250.83 252.963 252.728 252.312 255.224C251.131 259.796 247.233 266.41 245.346 266.913C244.838 267.049 245.186 266.027 246.147 264.687C247.713 262.412 251.61 250.303 251.241 248.931C251.008 248.064 246.66 249.534 243.884 251.359C240.229 253.96 239.311 255.753 237.771 263.904C236.467 270.909 235.294 273.776 232.568 276.362C231.581 277.322 232.418 277.253 236.772 276.091C239.727 275.225 243.568 273.89 245.14 273.083Z" fill="#073137"/>
<path d="M795.708 119.827C793.119 114.249 789.974 109.207 788.105 107.461C785.606 105.11 781.493 104.273 777.72 105.28L774.983 106.088L777.891 106.782C785.464 108.63 787.62 111.151 780.308 109.697C774.53 108.453 773.462 108.816 774.838 111.621C776.855 115.649 780.04 117.663 785.663 118.329C788.546 118.643 792.243 119.668 793.88 120.547L796.803 122.166L795.708 119.827Z" fill="#073137"/>
<path d="M65.5797 311.324C69.2971 308.087 69.3445 302.192 65.6591 298.609C63.751 296.719 59.6519 295.646 57.04 296.344C53.0495 297.409 49.5961 303.361 50.6838 307.405C50.9558 308.416 52.2058 310.172 53.518 311.292C57.4743 314.726 61.6835 314.763 65.5797 311.324ZM58.1198 311.922C55.1388 311.247 53.6569 309.785 52.8022 306.608C51.9475 303.43 52.961 300.838 55.7363 299.013C58.4585 297.281 61.139 297.417 64.0538 299.58C66.6731 301.512 67.4501 304.401 66.1516 307.379C64.4137 311.325 61.9235 312.764 58.1198 311.922Z" fill="#073137"/>
<path d="M62.0322 306.234C63.297 303.42 59.5157 300.637 57.4037 302.903C55.3642 305.15 57.2449 308.673 60.147 307.898C60.8725 307.705 61.6797 306.947 62.0322 306.234Z" fill="#073137"/>
<path d="M169.435 281.479C171.029 278.731 171.125 277.932 170.27 274.754C169.513 271.938 168.728 270.754 166.883 269.389C162.037 266.116 156.135 267.305 153.266 272.25C150.417 277.267 152.295 282.803 157.711 285.305C159.749 286.231 161.171 286.316 164.001 285.561C167.193 284.709 167.841 284.226 169.435 281.479ZM158.735 283.329C156.702 282.71 154.697 280.459 154.036 278.004C153.823 277.21 154.498 275.094 155.507 273.354C157.208 270.424 157.73 270.052 160.221 269.774C163.859 269.422 167.064 271.508 167.977 274.902C168.89 278.296 168.307 280.464 165.86 282.355C163.685 284.097 161.885 284.345 158.735 283.329Z" fill="#073137"/>
<path d="M162.72 277.621C163.483 276.411 162.514 275.122 161.136 275.49C160.193 275.741 159.821 276.382 160.073 277.321C160.442 278.693 162.049 278.884 162.72 277.621Z" fill="#073137"/>
<path d="M513.771 187.907C520.027 182.832 520.729 173.589 515.309 167.606C510.8 162.695 501.578 162.525 496.319 167.257C485.907 176.537 495.726 193.962 509.182 190.216C510.614 189.756 512.674 188.742 513.771 187.907ZM504.433 187.304C500.088 186.761 496.761 183.934 495.712 180.034C494.081 173.968 497.017 168.696 502.894 167.127C508.408 165.655 513.985 169.043 515.447 174.767C516.384 178.541 515.241 182.097 512.152 184.779C509.209 187.422 507.922 187.843 504.433 187.304Z" fill="#073137"/>
<path d="M508.247 180.095C511.283 177.504 508.22 171.898 504.302 172.944C501.11 173.796 500.331 178.416 502.969 180.42C504.795 181.713 506.56 181.629 508.247 180.095Z" fill="#073137"/>
<path d="M742.559 117.165C735.057 112.977 734.397 110.522 741.894 114.402C749.245 118.321 750.077 117.944 748.03 112.068C747.113 109.527 745.761 107.102 745.078 106.587C744.396 106.073 740.984 104.662 737.486 103.507C734.06 102.332 730.643 100.613 729.863 99.7373C728.711 98.3425 728.546 98.309 728.441 99.6526C728.134 101.979 730.959 111.904 732.548 114.343C734.641 117.499 737.4 119.084 742.131 119.911C748.416 121.019 748.498 120.455 742.559 117.165Z" fill="#073137"/>
<path d="M628.92 143.048C631.78 138.645 634.97 134.31 635.942 133.586C637.668 132.197 637.576 132.144 632.113 132.363C618.874 132.878 614.511 134.585 611.85 140.017C610.333 143.054 608.549 149.724 609.275 149.53C609.493 149.472 611.064 147.504 612.755 145.118C615.819 140.893 618.246 138.929 620.143 139.042C620.69 139.051 619.873 140.353 618.35 141.921C615.643 144.579 612.242 150.441 612.573 151.669C612.67 152.03 614.184 152.168 615.931 152.011C617.731 151.763 620.15 151.504 621.442 151.392C623.407 151.177 624.301 150.164 628.92 143.048Z" fill="#073137"/>
<path d="M537.08 166.07C539.82 162.088 540.527 157.486 539.07 152.069C536.835 143.762 530.103 137.818 520.98 135.995C513.429 134.527 508.189 134.997 502.24 137.746C491.299 142.757 483.655 149.907 476.921 161.304C474.457 165.445 472.432 168.618 472.374 168.401C472.083 167.318 478.684 153.401 481.597 148.907C487.671 139.39 496.223 130.991 505.513 125.337C515.437 119.436 529.361 116.262 545.436 116.461C552.763 116.518 556.232 115.824 555.843 114.379C555.493 113.079 538.178 111.74 530.973 112.425C508.871 114.686 485.276 130.197 474.214 149.795C470.533 156.351 465.493 168.844 465.921 170.433C466.076 171.011 467.451 171.496 469.019 171.542L471.864 171.711L477.323 162.512C482.179 154.249 483.464 152.667 489.643 147.302C496.325 141.492 496.741 141.304 502.837 139.677C508.57 138.146 509.407 138.078 511.503 139.221C514.592 140.874 515.025 142.772 512.748 145.005C510.775 146.925 510.675 148.578 512.592 148.763C514.363 148.987 516.63 146.137 516.627 143.815C516.581 141.04 514.556 138.716 511.424 137.772C508.128 136.793 509.395 136.3 514.955 136.442C520.371 136.622 525.188 139.207 526.062 142.457C526.995 145.924 525.957 148.137 521.668 152.146C517.81 155.731 517.213 158.135 520.131 158.285C523.833 158.458 529.25 151.129 529.042 146.307C528.949 145.093 528.294 142.946 527.47 141.617C526.287 139.533 526.209 139.244 527.274 139.734C529.569 140.747 534.206 146.709 534.944 149.454C535.915 153.066 535.217 155.962 532.131 162.127C529.339 167.363 529.31 167.835 530.966 168.786C532.714 169.791 535.157 168.751 537.08 166.07Z" fill="#073137"/>
<path d="M585.217 151.8C595.743 144.966 598.863 129.969 591.814 120.241L589.706 117.321L585.498 118.444C583.23 118.972 581.455 119.601 581.658 119.779C587.639 125.535 589.619 131.74 587.351 137.763C582.487 150.903 563.875 151.382 558.705 138.521C555.053 129.279 561.269 118.565 570.799 117.569L573.6 117.286L571.556 114.89C570.369 113.659 569.086 112.067 568.746 111.383C568.073 110.325 567.473 110.407 564.668 111.543C557.215 114.771 551.591 121.612 550.422 129.122C549.538 135.085 551.655 142.957 555.37 147.228C558.659 151.071 563.883 154.011 568.891 154.996C573.551 155.842 581.233 154.334 585.217 151.8Z" fill="#073137"/>
<path d="M119.365 272.045C113.51 271.673 106.023 269.569 103.97 267.717C102.434 266.347 102.599 266.38 106.335 267.55C110.565 268.821 123.519 269.852 124.05 268.937C124.475 268.204 120.57 262.358 118.575 260.723C116.376 258.91 111.881 258.098 105.199 258.411C97.2061 258.764 95.1059 258.473 91.3735 256.45L88.1009 254.692L91.4209 260.385C99.6023 274.611 103.369 276.469 117.823 273.54L124.107 272.327L119.365 272.045Z" fill="#073137"/>
<path d="M138.081 266.108C139.217 265.417 140.508 264.144 141.039 263.228C142.044 261.18 142.622 254.37 142.206 249.063L141.849 245.134L140.583 246.788C139.834 247.762 137.34 250.053 134.893 251.944C132.428 253.763 129.987 255.962 129.489 256.714C128.634 257.871 127.774 264.215 128.221 265.876C128.512 266.959 130.916 265.776 133.622 263.118C136.812 259.945 137.03 259.887 136.5 261.963C136.278 262.874 134.78 264.822 133.166 266.336L130.222 268.979L133.124 268.205C134.701 267.706 136.945 266.798 138.081 266.108Z" fill="#073137"/>
<path d="M250.467 233.833C255.226 231.866 258.132 229.077 259.434 225.246C260.409 222.509 261.503 208.36 260.84 207.917C260.656 207.812 260.119 208.419 259.641 209.244C257.762 212.377 254.947 214.058 246.361 217.124C237.069 220.456 234.051 221.958 231.779 224.5C230.169 226.323 228.767 231.806 229.388 234.118C229.796 235.635 230.014 235.576 233.816 234.097C240.767 231.313 248.118 227.415 250.144 225.404C252.097 223.411 252.169 223.392 251.614 225.088C250.857 227.768 245.316 232.034 239.236 234.586C232.126 237.645 231.237 238.966 237.405 237.319C240.017 236.622 243.104 235.953 244.304 235.788C245.504 235.622 248.242 234.814 250.467 233.833Z" fill="#073137"/>
<path d="M581.603 140.381C585.624 135.67 585.356 128.311 580.94 124.614C577.187 121.359 574.259 120.592 569.906 121.754C565.552 122.916 563.382 124.966 561.732 129.818C559.643 135.639 564.416 143.265 570.552 144.104C574.752 144.686 579.173 143.197 581.603 140.381ZM570.367 133.009C570.065 131.309 570.423 130.904 572.236 130.42C573.978 129.955 574.583 130.18 575.097 131.514C576.081 133.728 574.477 135.859 572.246 135.371C571.167 135.117 570.571 134.347 570.367 133.009Z" fill="#073137"/>
<path d="M794.956 83.4364C794.917 83.2919 792.937 82.582 790.648 81.8773C785.156 80.2476 784.767 78.8034 790.124 79.9276C795.974 81.1522 796.878 80.7561 795.477 77.57C793.645 73.6477 791.142 72.1487 785.098 71.3626C782.05 71.0153 778.76 70.3457 777.84 69.8173C776.131 68.9577 776.078 69.0492 777.829 73.5351C779.808 78.5792 783.116 82.4946 786.47 83.689C788.449 84.399 795.169 84.2307 794.956 83.4364Z" fill="#073137"/>
<path d="M805.866 77.1131C807.977 74.847 808.539 70.2862 807.237 65.4488C806.053 61.0445 804.435 59.0774 804.298 61.7452C804.313 62.6697 803.144 64.6841 801.893 66.1015C799.265 69.0473 798.208 72.3471 798.966 75.163C799.684 77.8344 800.995 77.794 803.169 74.8922C805.667 71.7492 805.856 72.1631 803.848 76.2588C802.192 79.6414 803.073 80.0254 805.866 77.1131Z" fill="#073137"/>
<path d="M588.839 115.471C592.798 112.557 594.443 107.396 593.103 102.414C590.247 91.7986 576.66 89.8527 571.187 99.2852C568.743 103.498 568.584 108.107 570.721 111.716C572.577 114.858 573.831 115.762 577.954 117.215C581.473 118.443 585.798 117.753 588.839 115.471ZM578.324 114.253C576.693 113.682 574.664 112.211 573.657 110.777C572.072 108.646 571.859 107.852 572.122 105.073C572.857 94.5054 587.679 92.9484 590.418 103.13C592.399 110.496 585.598 116.723 578.324 114.253Z" fill="#073137"/>
<path d="M584.164 107.354C585.014 105.889 584.223 103.236 582.626 102.502C580.936 101.714 579.167 102.651 578.491 104.766C577.362 108.086 582.411 110.376 584.164 107.354Z" fill="#073137"/>
<path d="M535.109 264.885L536.137 265.014L542.662 265.014L542.662 266.709L536.342 266.709L536.342 272.027L535.25 272.541C535.216 272.541 535.182 272.426 535.147 272.194C535.122 271.963 535.109 271.565 535.109 271L535.109 264.885ZM535.109 273.82L542.675 273.82L542.675 279.408C542.675 280.213 542.512 280.799 542.187 281.168C541.87 281.536 541.485 281.72 541.031 281.72L540.645 281.72C540.294 281.72 540.003 281.643 539.772 281.489C539.549 281.343 539.391 281.185 539.297 281.014C539.177 281.39 538.967 281.69 538.667 281.913C538.376 282.135 537.991 282.247 537.511 282.247L537.28 282.247C537.023 282.247 536.766 282.217 536.509 282.157C536.252 282.097 536.017 281.981 535.803 281.81C535.597 281.647 535.43 281.412 535.302 281.103C535.173 280.804 535.109 280.41 535.109 279.922L535.109 273.82ZM539.643 275.516L539.643 279.138C539.635 279.438 539.708 279.66 539.862 279.806C540.024 279.952 540.226 280.024 540.465 280.024L540.594 280.024C540.791 280.024 540.979 279.956 541.159 279.819C541.348 279.682 541.442 279.425 541.442 279.048L541.442 275.516L539.643 275.516ZM536.342 275.516L536.342 279.562C536.342 279.887 536.423 280.131 536.586 280.294C536.749 280.465 536.971 280.551 537.254 280.551L537.485 280.551C537.751 280.551 537.965 280.453 538.128 280.256C538.299 280.059 538.385 279.733 538.385 279.279L538.385 275.516L536.342 275.516Z" fill="#073137" fill-opacity="0.7"/>
<path d="M484.949 262.682C484.949 259.707 485.08 257.519 485.343 256.119C485.605 254.719 485.911 254.019 486.261 254.019L491.971 256.644C491.796 257.65 491.621 260.144 491.446 264.126C491.315 268.151 491.249 273.664 491.249 280.665L491.249 281.912C491.249 283.793 491.577 285.128 492.234 285.915C492.934 286.703 494.093 287.097 495.712 287.097L497.025 287.097C498.556 287.097 499.65 286.769 500.306 286.112C500.963 285.5 501.291 284.1 501.291 281.912L501.291 266.686C501.291 262.266 502.1 259.051 503.719 257.038C505.382 255.025 508.073 254.019 511.792 254.019L512.842 254.019C514.767 254.019 516.539 254.369 518.158 255.069C519.777 255.813 521.068 257.06 522.03 258.81C523.036 260.56 523.54 262.967 523.54 266.029L523.54 283.881C523.54 286.856 523.386 289.263 523.08 291.1C522.774 292.938 522.446 293.857 522.096 293.857L516.583 292.544C516.714 291.407 516.845 288.825 516.977 284.8C517.152 280.774 517.239 275.371 517.239 268.589L517.305 267.867C517.305 265.854 516.889 264.498 516.058 263.798C515.27 263.098 514.264 262.726 513.039 262.682L511.923 262.682C510.479 262.682 509.385 263.076 508.641 263.863C507.941 264.695 507.591 266.051 507.591 267.933L507.591 282.503C507.591 285.303 507.307 287.687 506.738 289.656C506.169 291.625 505.119 293.135 503.588 294.185C502.1 295.235 499.891 295.76 496.959 295.76L495.909 295.76C492.628 295.76 489.98 294.907 487.968 293.2C485.955 291.538 484.949 288.628 484.949 284.472L484.949 262.682Z" fill="#073137" fill-opacity="0.7"/>
<path d="M474.579 290.319L468.952 290.319L463.325 290.319L467.959 274.575L474.579 290.319Z" fill="#073137" fill-opacity="0.7"/>
<path d="M463.325 258.833L468.952 258.833L474.579 258.833L469.945 274.577L463.325 258.833Z" fill="#073137" fill-opacity="0.7"/>
<path d="M539.373 261.043C538.568 253.078 534.576 245.657 528.149 240.18C521.722 234.703 513.306 231.548 504.49 231.313C495.674 231.077 487.068 233.777 480.296 238.902C473.525 244.026 469.058 251.222 467.737 259.129L470.476 259.505C471.695 252.204 475.82 245.561 482.071 240.83C488.323 236.098 496.269 233.606 504.408 233.824C512.548 234.041 520.318 236.953 526.252 242.01C532.185 247.067 535.872 253.919 536.615 261.272L539.373 261.043Z" fill="#073137" fill-opacity="0.7"/>
<path d="M539.409 286.267C538.717 294.142 534.908 301.524 528.684 307.051C522.46 312.579 514.241 315.879 505.544 316.342C496.847 316.806 488.259 314.402 481.364 309.574C474.468 304.745 469.732 297.819 468.027 290.072L470.743 289.581C472.317 296.733 476.691 303.128 483.057 307.586C489.423 312.043 497.352 314.263 505.382 313.835C513.411 313.407 520.999 310.36 526.745 305.257C532.492 300.154 536.009 293.338 536.648 286.068L539.409 286.267Z" fill="#073137" fill-opacity="0.7"/>
</svg>
